<!DOCTYPE svg PUBLIC "-//W3C//DTD SVG 20010904//EN" "http://www.w3.org/TR/2001/REC-SVG-20010904/DTD/svg10.dtd">
<svg version="1.0" xmlns="http://www.w3.org/2000/svg" width="747px" height="686px" viewBox="0 0 7470 6860" preserveAspectRatio="xMidYMid meet">
<g id="layer101" fill="#004da0" stroke="none">
 <path d="M3094 6090 c-529 -41 -963 -227 -1284 -551 -122 -123 -214 -251 -295 -414 -117 -236 -164 -426 -172 -701 -11 -366 64 -686 247 -1059 156 -318 337 -564 616 -835 521 -507 1160 -830 1871 -946 152 -25 556 -30 713 -10 612 80 1083 353 1373 796 307 469 344 1103 100 1720 -405 1025 -1502 1849 -2643 1984 -165 20 -389 26 -526 16z m561 -275 c506 -81 991 -287 1413 -600 610 -453 1014 -1092 1093 -1729 15 -123 6 -392 -16 -496 -62 -287 -194 -530 -394 -723 -441 -427 -1175 -564 -1946 -362 -863 226 -1612 816 -1984 1565 -358 721 -291 1433 178 1901 245 244 575 397 981 454 138 19 531 13 675 -10z"/>
 <path d="M2136 4821 c-9 -13 -5 -15 107 -36 49 -9 145 -32 215 -51 69 -19 132 -32 140 -29 9 3 12 19 10 52 l-3 48 -55 7 c-122 15 -407 21 -414 9z"/>
 <path d="M3305 4658 c-3 -8 -4 -60 -3 -117 l3 -102 165 -73 c521 -230 933 -477 1166 -699 162 -154 235 -281 236 -407 2 -134 -44 -213 -150 -263 -59 -27 -79 -31 -179 -35 -231 -9 -509 59 -921 224 -102 41 -189 71 -192 67 -4 -5 -13 -41 -19 -81 -21 -121 -99 -248 -186 -302 -19 -12 -35 -26 -35 -31 0 -15 285 -151 458 -220 652 -258 1217 -329 1573 -199 167 61 289 170 364 325 224 465 -49 945 -780 1365 -325 188 -815 383 -1278 509 -195 53 -215 57 -222 39z"/>
 <path d="M6882 2613 c-14 -27 -180 -426 -184 -442 -4 -17 139 -78 152 -65 9 11 190 443 190 456 0 9 -121 68 -139 68 -6 0 -14 -8 -19 -17z"/>
 <path d="M6325 2064 c-84 -21 -215 -91 -215 -114 0 -5 25 -36 56 -69 l56 -61 34 30 c69 60 110 75 209 75 103 0 169 -19 308 -89 48 -24 89 -41 92 -38 3 3 5 30 5 59 l0 54 -102 49 c-57 26 -140 59 -185 74 -79 24 -216 40 -258 30z"/>
 <path d="M6044 1866 c-10 -25 67 -236 134 -368 69 -136 178 -324 193 -334 9 -5 69 22 69 32 0 2 -14 31 -30 64 -17 33 -30 61 -29 62 1 2 -28 62 -63 135 -55 111 -88 198 -136 362 -5 18 -21 29 -57 42 -62 22 -74 23 -81 5z"/>
 <path d="M6446 1808 c-3 -7 -7 -47 -9 -88 -3 -41 -7 -82 -9 -89 -4 -18 96 -75 116 -68 17 7 36 90 36 152 0 45 0 45 -60 75 -68 34 -69 35 -74 18z"/>
 <path d="M6657 1703 c-4 -3 -7 -22 -7 -42 0 -20 -6 -62 -14 -94 -15 -64 -18 -59 58 -95 28 -13 53 -19 58 -14 13 13 43 166 35 184 -10 26 -116 76 -130 61z"/>
 <path d="M5737 1663 c-4 -3 -7 -34 -7 -68 l0 -61 63 -41 c78 -51 247 -225 346 -356 41 -53 77 -97 80 -97 4 0 21 15 39 33 l31 32 -115 145 c-134 168 -273 313 -360 376 -66 47 -67 48 -77 37z"/>
 <path d="M5490 1577 c-14 -7 -30 -15 -36 -19 -8 -5 9 -60 52 -175 35 -92 64 -170 64 -174 0 -3 -30 5 -67 17 -38 12 -86 24 -108 26 l-40 3 0 -70 0 -69 90 -23 c146 -37 278 -107 409 -215 32 -27 62 -45 66 -41 4 4 16 32 26 61 l18 53 -29 24 c-17 14 -70 53 -120 87 -49 34 -91 62 -93 63 -2 2 -42 105 -90 231 -57 148 -92 229 -102 231 -8 1 -26 -4 -40 -10z"/>
 <path d="M4855 1418 c-3 -8 -5 -44 -3 -79 l3 -64 75 -6 c88 -6 138 -27 181 -77 30 -34 85 -139 78 -146 -2 -2 -78 -16 -169 -30 -91 -15 -170 -29 -176 -31 -7 -2 -7 -24 1 -77 10 -63 14 -73 31 -71 53 4 412 65 432 73 29 12 28 21 -13 148 -57 178 -130 278 -240 333 -73 36 -191 52 -200 27z"/>
 <path d="M4365 1408 c-3 -8 -14 -42 -25 -77 -17 -58 -17 -63 -2 -68 59 -18 145 -69 173 -100 57 -65 99 -179 114 -312 l7 -64 -173 4 -174 4 0 -80 0 -80 180 0 179 0 7 25 c5 18 7 10 8 -28 1 -45 6 -58 30 -83 16 -16 34 -29 39 -29 18 0 61 60 68 95 7 40 -9 96 -36 120 -26 23 -65 13 -84 -23 -9 -15 -15 -21 -16 -14 0 24 20 52 52 68 l31 16 -7 72 c-17 188 -80 349 -174 444 -81 82 -186 140 -197 110z m381 -782 c-10 -39 -36 -33 -36 7 0 41 9 52 28 33 9 -9 12 -24 8 -40z"/>
 <path d="M6488 1348 c-14 -12 -12 -21 18 -85 29 -61 37 -70 55 -66 32 9 33 26 0 97 -30 66 -44 77 -73 54z"/>
 <path d="M6423 1320 l-22 -9 33 -71 c18 -39 36 -71 39 -71 4 1 14 1 22 1 28 0 27 29 -3 95 -32 68 -34 69 -69 55z"/>
 <path d="M5093 790 c-89 -16 -166 -31 -171 -34 -9 -5 8 -129 19 -141 7 -6 365 52 382 62 11 7 -1 113 -15 131 -14 16 -24 15 -215 -18z"/>
 </g>
<g id="layer102" fill="#2e6cb1" stroke="none">
 <path d="M2950 6084 c-733 -101 -1268 -490 -1509 -1096 -40 -101 -91 -309 -96 -392 -2 -37 -6 -71 -9 -74 -3 -3 -6 -67 -6 -143 0 -360 90 -707 278 -1073 451 -878 1435 -1571 2450 -1726 75 -12 151 -20 169 -18 18 1 35 -1 39 -5 8 -8 418 -10 426 -2 3 3 39 8 81 10 164 9 448 82 640 166 309 134 575 357 757 634 147 225 250 543 254 780 2 129 -17 125 -26 -7 -39 -581 -387 -1090 -923 -1349 -189 -91 -485 -175 -685 -194 -36 -4 -71 -9 -79 -11 -18 -6 -442 -6 -462 -1 -8 3 -61 10 -119 17 -664 75 -1388 430 -1914 940 -267 259 -452 511 -606 825 -130 264 -202 495 -234 747 -15 122 -24 414 -12 425 3 4 6 19 6 34 0 49 40 237 71 332 40 127 145 333 226 446 298 415 827 682 1427 719 63 4 111 11 111 17 0 16 -138 15 -255 -1z"/>
 <path d="M3355 6091 c-10 -17 14 -22 88 -21 39 1 79 0 87 -3 8 -3 60 -10 115 -16 691 -78 1467 -475 1980 -1012 453 -475 739 -1070 773 -1606 9 -145 27 -156 26 -15 -5 416 -233 968 -583 1412 -111 140 -408 433 -551 544 -344 265 -694 453 -1085 580 -206 66 -469 123 -614 131 -40 2 -76 7 -79 10 -9 9 -151 5 -157 -4z"/>
 <path d="M2980 5844 c-214 -29 -431 -94 -610 -184 -283 -142 -542 -404 -664 -673 -68 -149 -132 -397 -124 -483 1 -18 -1 -36 -5 -40 -8 -8 -10 -188 -2 -196 3 -3 7 -39 10 -79 13 -270 171 -691 373 -994 378 -567 956 -1012 1612 -1240 229 -79 530 -144 692 -148 115 -3 112 16 -4 26 -330 27 -737 146 -1070 313 -185 93 -397 229 -569 365 -129 101 -380 352 -482 479 -162 204 -312 462 -402 689 -48 124 -102 338 -116 460 -6 53 -13 103 -16 111 -7 22 -6 221 1 228 3 3 6 23 6 45 0 54 36 227 66 316 177 530 661 891 1304 975 112 15 496 24 508 12 3 -3 21 -6 41 -6 54 0 271 -37 385 -66 464 -117 916 -346 1285 -652 95 -80 291 -273 375 -372 313 -367 510 -781 572 -1201 13 -88 15 -154 11 -294 -8 -254 -39 -382 -147 -600 -185 -373 -526 -632 -986 -749 -101 -26 -268 -53 -354 -58 -81 -5 -43 -23 44 -21 170 4 455 79 645 168 209 100 437 286 565 464 111 154 198 354 241 551 22 104 31 373 16 496 -119 960 -972 1888 -2059 2238 -210 67 -523 131 -609 124 -18 -1 -35 1 -39 5 -13 12 -384 6 -494 -9z"/>
 <path d="M3007 5615 c-125 -15 -281 -47 -358 -74 l-54 -18 -3 -351 -2 -352 -104 5 c-57 2 -110 7 -117 10 -24 9 -344 1 -344 -9 0 -13 35 -21 135 -35 78 -10 244 -48 375 -86 l54 -16 3 -232 c3 -231 3 -232 31 -289 37 -76 128 -159 204 -188 129 -49 268 -20 372 76 81 75 113 148 119 272 2 50 6 92 7 92 12 0 324 -144 471 -218 402 -201 716 -410 885 -589 83 -88 145 -183 165 -253 9 -30 19 -61 23 -69 12 -25 -18 -154 -47 -201 -22 -35 -43 -53 -96 -80 l-69 -35 -166 0 c-146 1 -181 4 -286 29 -156 36 -410 120 -604 199 l-155 62 -13 70 c-48 261 -286 435 -550 403 -197 -23 -376 -197 -414 -403 -22 -120 12 -263 87 -365 138 -188 372 -256 580 -170 l50 21 155 -76 c437 -214 1013 -384 1321 -389 116 -1 115 17 0 25 -281 21 -661 117 -1017 259 -107 42 -410 182 -422 194 -2 2 27 34 64 72 83 83 118 148 141 252 l17 79 145 -59 c180 -74 431 -158 570 -192 156 -37 258 -49 383 -44 95 4 121 8 172 32 69 31 107 64 140 121 26 44 50 158 38 178 -4 6 -6 21 -5 33 2 11 -7 45 -18 75 -75 189 -332 428 -700 649 -157 94 -503 270 -707 360 l-143 63 0 99 0 100 33 -7 c313 -68 865 -262 1192 -419 808 -388 1183 -847 1079 -1319 -20 -91 -91 -238 -144 -299 -107 -123 -309 -209 -530 -226 -88 -7 -114 -25 -45 -30 115 -10 333 50 451 124 241 149 363 462 295 749 -87 365 -457 714 -1076 1015 -317 154 -720 302 -1092 401 l-163 43 -2 470 -3 471 -100 2 c-55 0 -149 -5 -208 -12z m-576 -815 c20 0 64 -3 98 -6 l61 -7 0 -35 c0 -31 -2 -34 -22 -28 -13 4 -90 24 -173 46 l-150 39 65 3 c36 2 69 0 75 -4 5 -5 25 -8 46 -8z"/>
 <path d="M1105 3804 c-38 -30 -104 -75 -145 -101 -67 -41 -76 -44 -85 -28 -28 47 -28 47 -70 29 -62 -25 -66 -30 -49 -71 8 -19 14 -36 12 -37 -2 -1 -15 -7 -30 -14 -33 -14 -34 -17 -8 -77 16 -38 24 -46 38 -40 44 18 47 17 66 -34 10 -28 22 -53 26 -56 4 -3 26 1 47 9 l40 14 24 -75 c13 -41 29 -77 35 -80 19 -7 104 34 104 50 0 8 -7 31 -15 52 -9 20 -22 64 -28 98 l-13 62 -47 3 c-37 2 -49 -1 -54 -13 -5 -13 -9 -10 -20 15 -7 18 -12 34 -11 35 2 1 42 25 89 53 104 62 239 160 239 173 0 5 -17 27 -37 49 l-38 39 -70 -55z"/>
 <path d="M1152 3629 c-40 -20 -82 -65 -82 -88 0 -6 17 -22 37 -35 l36 -25 25 26 25 27 18 -23 c10 -12 28 -54 41 -93 12 -39 28 -72 35 -75 21 -8 103 34 103 54 0 28 -67 173 -92 201 -21 22 -75 52 -95 52 -4 0 -27 -10 -51 -21z"/>
 <path d="M1268 3276 c-74 -26 -126 -55 -233 -126 -102 -69 -104 -71 -65 -120 17 -22 36 -40 40 -40 5 0 40 24 78 53 120 89 262 152 262 114 0 -9 -15 -36 -34 -61 -26 -33 -32 -47 -23 -54 17 -14 74 -42 85 -42 15 0 89 112 100 151 13 50 5 82 -28 114 -40 39 -97 42 -182 11z"/>
 <path d="M1480 2948 c-88 -52 -181 -82 -259 -83 -71 -1 -79 -8 -80 -73 -1 -26 4 -34 25 -42 37 -14 111 -12 179 5 73 19 245 102 252 123 5 13 -33 99 -47 106 -3 2 -34 -14 -70 -36z"/>
 <path d="M1640 2791 c-19 -11 -66 -47 -105 -80 l-70 -60 -26 32 c-29 34 -29 34 -91 -21 l-27 -25 25 -32 25 -33 -42 -35 -41 -36 32 -41 c17 -22 37 -40 44 -40 7 0 25 14 41 30 16 17 32 30 35 30 4 0 25 -23 48 -51 l42 -52 -45 -35 c-26 -20 -42 -39 -38 -46 16 -27 59 -76 66 -76 5 0 26 14 48 32 l39 32 30 -29 29 -28 40 33 c23 17 41 36 41 40 0 5 -11 21 -24 36 l-23 28 24 20 c42 32 83 97 83 129 0 37 -29 85 -70 115 l-30 23 -40 -33 c-22 -18 -40 -36 -40 -39 0 -3 11 -16 25 -29 14 -13 25 -29 25 -36 0 -13 -38 -54 -50 -54 -3 0 -23 23 -45 51 l-39 52 54 49 c30 26 67 55 82 63 25 14 29 13 56 -10 16 -13 58 -60 92 -105 35 -44 66 -80 69 -80 3 1 26 18 50 39 l43 38 -78 93 c-44 52 -95 106 -115 122 -47 38 -102 45 -149 19z"/>
 <path d="M6882 2627 c-6 -7 -54 -114 -105 -238 -70 -165 -91 -227 -83 -235 6 -6 42 -24 79 -39 58 -24 70 -26 81 -14 19 20 199 455 194 469 -3 10 -131 70 -149 70 -4 0 -11 -6 -17 -13z m83 -41 c30 -14 55 -27 55 -29 0 -15 -180 -432 -187 -432 -19 0 -113 40 -113 48 0 7 166 411 177 430 6 10 6 10 68 -17z"/>
 <path d="M2026 2404 l-47 -36 59 -54 c84 -76 122 -136 122 -193 0 -75 -47 -130 -112 -131 -51 0 -91 37 -174 161 -37 54 -72 99 -77 99 -14 0 -97 -70 -97 -81 0 -14 143 -192 193 -241 51 -50 92 -68 154 -68 124 0 242 126 243 261 0 76 -36 145 -128 241 -41 43 -78 78 -82 78 -4 0 -28 -16 -54 -36z"/>
 <path d="M2363 2058 c-38 -51 -83 -115 -100 -143 -40 -65 -133 -231 -133 -238 0 -7 89 -57 101 -57 5 0 29 39 53 88 50 99 149 254 209 326 l41 48 -40 34 c-21 18 -44 33 -51 34 -6 0 -43 -42 -80 -92z"/>
 <path d="M6356 2071 c-4 -5 -13 -8 -22 -4 -38 14 -215 -72 -231 -113 -4 -10 11 -33 43 -67 27 -28 42 -46 34 -40 -30 22 -130 47 -141 36 -23 -23 58 -254 153 -433 65 -122 156 -276 172 -289 9 -8 23 -5 48 7 34 18 36 18 47 1 11 -19 32 -17 59 5 8 5 24 12 35 13 46 7 52 27 28 85 -37 87 -48 99 -79 92 -15 -4 -36 -13 -47 -20 -11 -8 -30 -14 -42 -14 -19 0 -33 21 -88 133 -57 117 -110 255 -130 341 -5 26 -4 28 9 17 13 -11 22 -7 59 23 130 107 273 102 512 -19 49 -24 93 -41 98 -36 4 4 7 35 5 67 l-3 59 -60 32 c-74 40 -197 88 -268 107 -79 21 -183 30 -191 17z m240 -61 c38 -13 111 -42 162 -66 l92 -43 0 -41 c0 -23 -3 -40 -7 -38 -189 97 -269 123 -378 123 -99 0 -140 -15 -209 -75 l-34 -30 -46 51 c-36 40 -44 55 -35 65 19 24 95 63 145 76 27 6 53 15 57 18 13 11 179 -16 253 -40z m-458 -176 c21 -8 32 -20 32 -33 0 -41 63 -211 125 -338 36 -73 65 -135 65 -138 0 -3 13 -32 30 -65 30 -59 30 -59 9 -70 -11 -7 -22 -10 -23 -8 -24 31 -116 195 -172 305 -57 111 -144 334 -144 368 0 7 29 -1 78 -21z m408 -549 c28 -64 28 -65 12 -65 -7 0 -23 24 -36 53 -25 59 -26 67 -11 67 5 0 21 -25 35 -55z m-77 -12 c29 -58 35 -83 19 -83 -15 1 -61 98 -52 111 9 14 13 11 33 -28z"/>
 <path d="M2515 1981 c-56 -34 -95 -100 -95 -160 0 -36 3 -38 60 -42 l44 -4 9 42 c4 22 15 44 23 47 21 8 70 -15 133 -63 30 -23 58 -41 62 -41 5 0 23 21 40 47 l32 47 -44 38 c-53 47 -172 108 -208 108 -14 0 -39 -8 -56 -19z"/>
 <path d="M2864 1829 c-56 -16 -107 -86 -198 -274 -47 -97 -86 -179 -86 -181 0 -10 104 -54 111 -47 4 4 42 82 84 173 80 172 94 195 125 203 32 8 97 -30 111 -66 15 -36 15 -110 0 -149 -13 -35 3 -48 61 -48 43 0 50 3 58 26 18 46 23 131 10 182 -27 115 -173 211 -276 181z"/>
 <path d="M6435 1818 c-2 -7 -6 -49 -8 -93 -3 -44 -8 -88 -12 -97 -5 -14 6 -24 58 -49 81 -40 91 -35 107 59 19 108 15 122 -55 159 -66 35 -84 40 -90 21z m125 -111 c0 -41 -14 -114 -23 -123 -2 -3 -25 5 -49 17 -45 21 -45 22 -37 58 5 20 9 60 9 89 l0 52 50 -25 c48 -24 50 -27 50 -68z"/>
 <path d="M4375 1810 c-3 -5 0 -13 8 -15 24 -10 217 -1 220 10 3 14 -219 19 -228 5z"/>
 <path d="M2309 1674 c-17 -25 -27 -49 -23 -54 13 -11 253 -170 257 -170 10 0 67 104 60 110 -22 19 -245 160 -253 160 -5 0 -23 -21 -41 -46z"/>
 <path d="M6647 1713 c-4 -3 -7 -27 -7 -52 0 -25 -7 -71 -15 -101 -8 -30 -15 -56 -15 -57 0 -2 30 -16 67 -33 81 -37 87 -33 108 65 25 119 24 122 -47 155 -65 31 -80 35 -91 23z m112 -60 c15 -7 10 -75 -9 -145 l-11 -36 -47 21 -48 22 13 55 c7 30 13 70 13 88 l0 32 38 -16 c20 -9 43 -18 51 -21z"/>
 <path d="M5726 1683 c-3 -3 -6 -39 -6 -79 l0 -72 78 -55 c90 -63 212 -188 324 -334 43 -56 84 -105 90 -109 5 -4 28 11 49 32 l39 39 -125 158 c-145 181 -275 316 -360 373 -79 53 -81 54 -89 47z m226 -200 c47 -49 138 -153 202 -233 l115 -145 -24 -25 -25 -25 -17 25 c-97 138 -307 363 -399 426 l-54 37 0 54 0 54 58 -40 c31 -22 96 -80 144 -128z"/>
 <path d="M3267 1610 c-46 -40 -65 -96 -47 -139 14 -35 83 -101 104 -101 8 0 17 -4 21 -9 3 -6 -34 3 -82 20 -48 16 -90 26 -94 22 -4 -5 -12 -25 -19 -46 -16 -50 -8 -58 85 -87 41 -13 75 -29 75 -35 0 -8 -35 0 -96 21 l-95 34 -15 -35 c-29 -71 -28 -74 71 -109 76 -27 90 -35 87 -53 -3 -24 10 -36 58 -52 32 -11 37 -10 53 10 l17 22 72 -27 c80 -29 87 -27 107 33 15 45 5 55 -80 83 -38 12 -65 26 -61 30 4 4 36 -1 70 -13 34 -12 68 -19 75 -16 15 6 42 86 32 95 -4 4 -34 16 -68 28 -47 16 -62 25 -62 39 0 15 16 24 75 40 86 24 120 41 120 58 0 11 -16 76 -25 105 -4 10 -14 8 -42 -6 -63 -32 -82 -36 -77 -15 7 25 -34 83 -74 106 -17 10 -58 21 -90 24 -55 5 -61 4 -95 -27z m131 -117 c3 -17 -2 -23 -16 -23 -34 0 -52 11 -52 32 0 16 6 19 33 16 24 -2 33 -8 35 -25z"/>
 <path d="M5473 1580 l-43 -19 29 -78 c16 -43 44 -118 64 -168 19 -49 33 -91 32 -93 -2 -2 -34 6 -71 17 -38 12 -85 22 -104 23 l-35 3 -3 -78 c-2 -56 1 -78 10 -81 7 -2 47 -12 88 -21 110 -24 278 -110 384 -195 101 -81 102 -81 131 10 l18 54 -43 36 c-23 19 -79 60 -124 91 l-81 55 -80 213 c-45 117 -86 221 -93 232 -15 23 -25 23 -79 -1z m119 -170 c32 -85 70 -185 84 -223 26 -66 27 -68 128 -137 135 -92 142 -100 126 -142 -7 -18 -17 -37 -21 -42 -4 -5 -32 11 -61 36 -135 113 -281 186 -450 222 -26 6 -28 10 -28 61 l0 55 33 -6 c17 -4 65 -17 106 -31 41 -13 77 -20 82 -16 4 4 -23 87 -60 184 l-67 176 25 11 c14 5 30 9 35 8 5 -1 35 -71 68 -156z"/>
 <path d="M3815 1451 c-14 -28 -21 -52 -17 -54 4 -2 32 -10 62 -17 l55 -13 -43 -15 c-106 -35 -137 -186 -53 -254 l26 -21 -25 6 c-100 23 -152 29 -161 20 -15 -15 -31 -95 -22 -104 4 -4 61 -17 125 -29 l117 -22 3 -31 c3 -29 7 -32 48 -39 55 -10 70 -5 70 23 0 20 3 21 48 13 26 -4 60 -8 77 -8 28 -1 30 2 39 47 5 30 5 52 -1 58 -5 5 -38 14 -72 20 l-63 11 7 46 c4 26 15 73 26 107 35 111 21 176 -51 238 -41 34 -114 67 -152 67 -11 0 -27 -18 -43 -49z m125 -225 c0 -38 -10 -56 -31 -56 -24 0 -33 21 -25 55 9 35 56 36 56 1z"/>
 <path d="M4844 1427 c-3 -8 -4 -47 -2 -88 l3 -74 80 -6 c126 -8 181 -45 231 -154 l24 -50 -23 -7 c-12 -4 -83 -16 -157 -28 -189 -29 -180 -23 -165 -107 6 -38 14 -74 18 -79 4 -7 81 2 233 27 125 21 234 41 242 44 17 6 12 43 -25 160 -66 208 -170 326 -322 361 -73 18 -130 18 -137 1z m211 -56 c70 -35 101 -64 150 -146 35 -59 109 -267 102 -288 -2 -7 -101 -28 -219 -47 l-216 -36 -7 54 c-4 29 -5 55 -3 58 2 2 80 16 172 31 107 18 170 32 173 41 10 25 -56 140 -106 184 -55 50 -104 68 -180 68 l-51 0 0 61 0 62 63 -7 c37 -3 86 -18 122 -35z"/>
 <path d="M4363 1418 c-6 -7 -19 -43 -30 -80 -20 -67 -17 -88 14 -88 26 0 113 -50 149 -87 45 -44 88 -137 105 -224 7 -35 16 -67 19 -72 4 -4 5 -21 2 -37 l-4 -29 -122 -3 c-168 -4 -155 -23 17 -23 l132 0 3 28 c2 16 0 36 -3 45 -4 10 -8 37 -10 62 -5 55 -36 148 -69 205 -33 56 -97 112 -162 142 -30 13 -54 28 -54 32 0 4 7 31 15 59 15 49 17 51 41 42 57 -22 139 -87 179 -141 53 -72 89 -162 111 -275 9 -49 19 -96 22 -104 12 -37 -1 -76 -34 -103 -23 -19 -38 -43 -45 -73 l-11 -44 -164 0 -163 0 -3 73 c-4 100 -23 88 -23 -15 l0 -83 188 -3 c176 -2 187 -4 187 -21 0 -11 11 -33 25 -49 19 -22 33 -29 56 -28 77 4 101 145 37 213 -17 18 -21 33 -19 63 1 22 0 44 -4 50 -4 6 -8 35 -10 64 -8 130 -76 293 -159 383 -78 84 -192 148 -213 121z m403 -725 c18 -42 13 -92 -11 -129 -19 -29 -29 -30 -55 -4 -15 15 -20 33 -20 73 0 94 56 133 86 60z"/>
 <path d="M4706 681 c-19 -21 -21 -72 -4 -89 19 -19 36 -14 54 13 31 48 -13 117 -50 76z m34 -41 c0 -10 -4 -22 -10 -25 -6 -4 -10 7 -10 25 0 18 4 29 10 25 6 -3 10 -15 10 -25z"/>
 <path d="M5097 800 c-92 -16 -174 -30 -181 -33 -10 -4 -11 -20 -3 -74 5 -37 14 -73 21 -80 9 -10 54 -5 206 20 l195 33 -3 64 c-4 75 -15 100 -45 99 -12 -1 -98 -14 -190 -29z m207 -51 c4 -28 5 -53 3 -56 -6 -5 -350 -63 -354 -59 -2 2 -4 27 -6 57 l-2 53 155 27 c213 37 196 39 204 -22z"/>
 </g>

</svg>