<!DOCTYPE svg PUBLIC "-//W3C//DTD SVG 20010904//EN" "http://www.w3.org/TR/2001/REC-SVG-20010904/DTD/svg10.dtd">
<svg version="1.0" xmlns="http://www.w3.org/2000/svg" width="512px" height="512px" viewBox="0 0 5120 5120" preserveAspectRatio="xMidYMid meet">
<g id="layer101" fill="#000000" stroke="none">
 <path d="M579 5087 c-287 -110 -501 -359 -564 -657 -23 -107 -23 -3613 0 -3720 73 -347 351 -624 698 -695 63 -13 312 -15 1902 -13 l1830 3 86 33 c295 113 511 362 574 662 23 107 23 3613 0 3720 -63 300 -279 549 -574 662 l-86 33 -1890 2 -1890 2 -86 -32z"/>
 </g>
<g id="layer102" fill="#373737" stroke="none">
 <path d="M579 5087 c-236 -90 -431 -282 -520 -512 -60 -154 -59 -133 -59 -1116 l0 -899 2560 0 2560 0 0 894 c0 977 1 957 -59 1111 -90 232 -287 424 -530 517 l-86 33 -1890 2 -1890 2 -86 -32z"/>
 <path d="M930 2180 l0 -49 318 -3 c174 -2 317 -3 318 -3 0 0 -2 24 -4 53 l-4 52 -314 0 -314 0 0 -50z"/>
 <path d="M1650 2191 c0 -22 -2 -45 -5 -53 -4 -11 77 -13 459 -13 l465 0 -21 22 c-11 12 -46 34 -77 50 l-56 28 -382 3 -383 3 0 -40z"/>
 <path d="M2740 2174 c0 -47 3 -55 16 -50 9 3 110 6 225 6 l209 0 0 50 0 50 -225 0 -225 0 0 -56z"/>
 <path d="M3443 2183 c-6 -27 -10 -48 -9 -49 0 -1 18 -4 39 -7 34 -5 38 -4 32 11 -4 9 -10 28 -13 42 -5 26 -20 50 -31 50 -4 0 -11 -21 -18 -47z"/>
 <path d="M3740 2174 c0 -47 3 -55 16 -50 9 3 110 6 225 6 l209 0 0 50 0 50 -225 0 -225 0 0 -56z"/>
 <path d="M930 1985 l0 -55 315 0 315 0 0 39 c0 22 3 46 6 55 6 14 -26 16 -315 16 l-321 0 0 -55z"/>
 <path d="M1645 1985 l0 -55 508 0 c564 0 521 -6 491 70 l-16 40 -492 0 -491 0 0 -55z"/>
 <path d="M2744 2026 c-3 -8 -4 -31 -2 -52 l3 -39 223 -3 222 -2 0 55 0 55 -220 0 c-180 0 -222 -3 -226 -14z"/>
 <path d="M3390 2033 c0 -5 -7 -29 -15 -55 l-14 -48 100 0 101 0 -7 43 c-4 23 -12 48 -17 55 -11 13 -148 18 -148 5z"/>
 <path d="M3744 2026 c-3 -8 -4 -31 -2 -52 l3 -39 223 -3 222 -2 0 55 0 55 -220 0 c-180 0 -222 -3 -226 -14z"/>
 <path d="M1105 1795 l0 -55 138 0 137 0 0 55 0 55 -137 0 -138 0 0 -55z"/>
 <path d="M1830 1795 l0 -56 138 3 137 3 0 50 0 50 -137 3 -138 3 0 -56z"/>
 <path d="M2380 1795 l0 -55 135 0 c149 0 146 -2 159 73 l7 37 -151 0 -150 0 0 -55z"/>
 <path d="M2920 1795 l0 -55 135 0 135 0 0 55 0 55 -135 0 -135 0 0 -55z"/>
 <path d="M3321 1809 c-7 -22 -15 -47 -18 -55 -4 -12 20 -14 158 -12 l164 3 -3 24 c-1 13 -8 36 -15 50 -12 26 -13 26 -143 29 l-131 3 -12 -42z"/>
 <path d="M3744 1836 c-3 -8 -4 -31 -2 -52 l3 -39 133 -3 132 -3 0 56 0 55 -130 0 c-103 0 -132 -3 -136 -14z"/>
 <path d="M2218 1653 l-388 -3 0 -50 0 -50 354 0 354 0 41 46 c38 44 51 67 34 62 -5 -2 -182 -4 -395 -5z"/>
 <path d="M3261 1619 c-7 -22 -15 -47 -18 -55 -4 -12 32 -14 221 -14 124 0 226 3 226 7 0 4 -7 27 -16 50 l-17 43 -178 0 c-97 0 -184 2 -191 5 -10 4 -18 -7 -27 -36z"/>
 <path d="M3740 1606 l0 -56 135 0 135 0 0 50 0 50 -119 0 c-66 0 -126 3 -135 6 -13 5 -16 -3 -16 -50z"/>
 <path d="M1110 1600 l0 -50 135 0 135 0 0 50 0 50 -135 0 -135 0 0 -50z"/>
 <path d="M2920 1600 l0 -50 135 0 135 0 0 50 0 50 -135 0 -135 0 0 -50z"/>
 <path d="M1110 1410 l0 -50 135 0 135 0 0 50 0 50 -135 0 -135 0 0 -50z"/>
 <path d="M1830 1410 l0 -50 390 0 c215 0 390 2 390 5 0 2 -14 25 -32 50 l-32 45 -358 0 -358 0 0 -50z"/>
 <path d="M2920 1408 l0 -53 260 0 c187 0 260 3 260 11 0 7 6 27 14 45 l15 34 12 -48 c9 -33 17 -46 27 -42 7 3 124 5 258 5 l244 0 0 50 0 50 -135 0 -135 0 -1 -27 -1 -28 -10 28 -10 27 -252 0 -253 0 -11 -32 -10 -33 -1 33 -1 32 -135 0 -135 0 0 -52z"/>
 <path d="M1108 1219 c-1 -28 -1 -53 1 -55 2 -2 64 -4 138 -4 l133 0 0 55 0 55 -134 0 -134 0 -4 -51z"/>
 <path d="M1830 1220 l0 -50 135 0 135 0 0 50 0 50 -135 0 -135 0 0 -50z"/>
 <path d="M2370 1218 l0 -53 150 0 149 0 -4 42 c-2 24 -7 47 -10 53 -4 6 -63 10 -146 10 l-139 0 0 -52z"/>
 <path d="M2920 1214 c0 -47 3 -55 16 -50 9 3 110 6 225 6 l209 0 10 25 c5 14 13 37 16 50 l6 25 -241 0 -241 0 0 -56z"/>
 <path d="M3525 1253 c3 -10 11 -34 17 -53 l11 -35 231 0 231 0 3 53 3 52 -252 0 c-235 0 -251 -1 -244 -17z"/>
 <path d="M930 1025 l0 -55 318 2 317 3 0 50 0 50 -317 3 -318 2 0 -55z"/>
 <path d="M1645 1025 l0 -55 495 0 495 0 13 40 c23 76 69 70 -495 70 l-508 0 0 -55z"/>
 <path d="M2744 1066 c-3 -8 -4 -31 -2 -52 l3 -39 281 -3 281 -2 20 55 21 55 -299 0 c-247 0 -301 -2 -305 -14z"/>
 <path d="M3583 1066 c3 -8 11 -32 18 -55 l12 -41 289 0 288 0 0 55 0 55 -306 0 c-258 0 -305 -2 -301 -14z"/>
 <path d="M1243 883 l-313 -3 0 -50 0 -50 320 0 320 0 0 55 c0 30 -3 54 -7 53 -5 -2 -149 -4 -320 -5z"/>
 <path d="M1645 872 c3 -8 5 -32 5 -53 l0 -40 383 3 c379 3 382 4 427 27 49 26 100 62 100 70 0 3 -207 6 -460 6 -379 0 -459 -2 -455 -13z"/>
 <path d="M2740 832 l0 -52 257 2 256 3 15 43 c8 24 12 45 10 47 -2 2 -124 5 -271 7 l-267 3 0 -53z"/>
 <path d="M3655 863 c4 -10 9 -33 12 -50 l6 -33 258 0 259 0 0 50 0 50 -271 0 c-254 0 -271 -1 -264 -17z"/>
 </g>
<g id="layer103" fill="#009a2c" stroke="none">
 <path d="M592 5091 c-236 -83 -442 -282 -533 -516 -60 -154 -59 -133 -59 -1116 l0 -899 2560 0 2560 0 0 894 c0 977 1 957 -59 1111 -90 232 -287 424 -530 517 l-86 33 -1885 2 -1885 3 -83 -29z"/>
 <path d="M930 2180 l0 -50 315 0 315 0 0 50 0 50 -315 0 -315 0 0 -50z"/>
 <path d="M1650 2180 l0 -50 458 0 457 1 -25 21 c-14 11 -50 33 -80 47 l-55 26 -377 3 -378 3 0 -51z"/>
 <path d="M2740 2180 l0 -50 225 0 225 0 0 50 0 50 -225 0 -225 0 0 -50z"/>
 <path d="M3446 2183 c-9 -26 -16 -48 -16 -50 0 -2 16 -3 36 -3 33 0 36 2 30 25 -9 35 -25 75 -30 75 -2 0 -11 -21 -20 -47z"/>
 <path d="M3740 2180 l0 -50 225 0 225 0 0 50 0 50 -225 0 -225 0 0 -50z"/>
 <path d="M930 1985 l0 -55 315 0 315 0 0 55 0 55 -315 0 -315 0 0 -55z"/>
 <path d="M1650 1985 l0 -55 505 0 c561 0 519 -6 489 70 l-16 40 -489 0 -489 0 0 -55z"/>
 <path d="M2744 2026 c-3 -8 -4 -31 -2 -52 l3 -39 223 -3 222 -2 0 55 0 55 -220 0 c-180 0 -222 -3 -226 -14z"/>
 <path d="M3386 1993 c-9 -26 -16 -50 -16 -55 0 -4 43 -8 96 -8 l97 0 -6 28 c-16 77 -21 82 -91 82 l-64 0 -16 -47z"/>
 <path d="M3744 2026 c-3 -8 -4 -31 -2 -52 l3 -39 223 -3 222 -2 0 55 0 55 -220 0 c-180 0 -222 -3 -226 -14z"/>
 <path d="M1110 1795 l0 -55 135 0 135 0 0 55 0 55 -135 0 -135 0 0 -55z"/>
 <path d="M1830 1795 l0 -56 138 3 137 3 0 50 0 50 -137 3 -138 3 0 -56z"/>
 <path d="M2380 1795 l0 -55 135 0 c150 0 155 2 155 74 l0 36 -145 0 -145 0 0 -55z"/>
 <path d="M2920 1795 l0 -55 135 0 135 0 0 55 0 55 -135 0 -135 0 0 -55z"/>
 <path d="M3326 1803 c-9 -26 -16 -50 -16 -55 0 -4 70 -8 156 -8 l157 0 -6 28 c-3 15 -10 39 -16 55 l-11 27 -124 0 -124 0 -16 -47z"/>
 <path d="M3744 1836 c-3 -8 -4 -31 -2 -52 l3 -39 133 -3 132 -3 0 56 0 55 -130 0 c-103 0 -132 -3 -136 -14z"/>
 <path d="M1110 1600 l0 -50 135 0 135 0 0 50 0 50 -135 0 -135 0 0 -50z"/>
 <path d="M1830 1600 l0 -50 353 0 354 0 20 23 c11 12 28 34 38 50 l17 27 -391 0 -391 0 0 -50z"/>
 <path d="M2920 1600 l0 -50 135 0 135 0 0 50 0 50 -135 0 -135 0 0 -50z"/>
 <path d="M3270 1625 c-5 -14 -13 -37 -16 -50 l-6 -25 220 0 221 0 -14 48 c-8 26 -15 48 -15 50 0 1 -86 2 -190 2 l-190 0 -10 -25z"/>
 <path d="M3740 1600 l0 -50 135 0 135 0 0 50 0 50 -135 0 -135 0 0 -50z"/>
 <path d="M1110 1410 l0 -50 135 0 135 0 0 50 0 50 -135 0 -135 0 0 -50z"/>
 <path d="M1830 1410 l0 -50 391 0 391 0 -17 28 c-10 15 -27 37 -38 50 l-20 22 -354 0 -353 0 0 -50z"/>
 <path d="M2920 1410 l0 -50 260 0 259 0 7 35 c9 50 21 52 35 5 l12 -40 259 0 258 0 0 50 0 50 -135 0 -135 0 -1 -27 -1 -28 -10 28 -10 27 -252 0 -253 0 -11 -32 -10 -33 -1 33 -1 32 -135 0 -135 0 0 -50z"/>
 <path d="M1110 1220 l0 -50 135 0 135 0 0 50 0 50 -135 0 -135 0 0 -50z"/>
 <path d="M1830 1220 l0 -50 135 0 135 0 0 50 0 50 -135 0 -135 0 0 -50z"/>
 <path d="M2372 1223 l3 -48 145 0 145 0 -4 40 c-1 22 -5 43 -8 48 -2 4 -67 7 -144 7 l-140 0 3 -47z"/>
 <path d="M2920 1220 l0 -50 225 0 225 0 10 25 c5 14 13 37 16 50 l6 25 -241 0 -241 0 0 -50z"/>
 <path d="M3530 1264 c0 -3 5 -25 11 -50 l11 -44 229 0 229 0 0 50 0 50 -240 0 c-132 0 -240 -3 -240 -6z"/>
 <path d="M930 1025 l0 -55 318 2 317 3 0 50 0 50 -317 3 -318 2 0 -55z"/>
 <path d="M1650 1025 l0 -55 489 0 489 0 10 28 c6 15 14 39 18 55 l6 27 -506 0 -506 0 0 -55z"/>
 <path d="M2744 1066 c-3 -8 -4 -31 -2 -52 l3 -39 282 -3 281 -2 16 47 c9 25 16 50 16 55 0 4 -133 8 -295 8 -244 0 -297 -2 -301 -14z"/>
 <path d="M3590 1072 c0 -5 7 -29 16 -55 l16 -47 284 0 284 0 0 55 0 55 -300 0 c-165 0 -300 -4 -300 -8z"/>
 <path d="M930 830 l0 -50 321 0 320 0 -3 48 -3 47 -317 3 -318 2 0 -50z"/>
 <path d="M1650 830 l0 -50 358 0 c334 0 362 1 418 20 32 12 75 34 94 50 l35 29 -452 1 -453 0 0 -50z"/>
 <path d="M2740 830 l0 -50 253 0 253 0 16 50 16 50 -269 0 -269 0 0 -50z"/>
 <path d="M3650 877 c0 -2 7 -24 16 -50 l16 -47 254 0 254 0 0 50 0 50 -270 0 c-148 0 -270 -1 -270 -3z"/>
 </g>
<g id="layer104" fill="#ffffff" stroke="none">
 <path d="M1410 3625 l0 -546 238 3 c216 3 241 5 283 24 95 44 152 122 180 249 21 91 18 449 -4 538 -33 131 -87 205 -182 249 -47 21 -65 23 -282 26 l-233 4 0 -547z m398 365 c57 -26 80 -79 94 -213 12 -124 3 -347 -17 -414 -26 -87 -84 -123 -197 -123 l-58 0 0 385 0 385 68 0 c45 0 81 -7 110 -20z"/>
 <path d="M2260 3625 l0 -545 220 0 c120 0 241 5 269 11 129 27 196 117 195 264 0 67 -4 88 -27 132 -26 50 -62 85 -107 101 -20 7 -18 9 20 21 100 30 158 139 147 280 -8 101 -45 174 -111 218 -83 56 -124 63 -378 63 l-228 0 0 -545z m417 361 c45 -23 63 -55 70 -119 4 -41 1 -64 -15 -99 -28 -65 -57 -81 -158 -86 l-84 -5 0 168 0 168 78 -5 c44 -3 91 -12 109 -22z m-52 -466 c24 -5 51 -21 68 -40 23 -26 27 -39 27 -90 0 -108 -33 -140 -157 -148 l-73 -5 0 147 0 146 48 0 c26 0 65 -5 87 -10z"/>
 <path d="M3060 4122 c0 -98 54 -226 137 -324 26 -32 94 -101 151 -154 56 -53 109 -109 118 -125 40 -79 40 -209 -1 -257 -32 -37 -111 -39 -148 -4 -27 25 -47 88 -47 146 l0 36 -105 0 -105 0 0 -58 c0 -125 48 -210 148 -259 53 -26 65 -28 182 -28 109 0 131 3 175 23 64 29 91 55 123 117 24 45 27 61 27 155 0 100 -2 109 -34 175 -29 59 -57 92 -174 205 -119 115 -187 197 -187 223 0 4 92 7 205 7 l205 0 0 85 0 85 -335 0 -335 0 0 -48z"/>
 <path d="M930 2180 l0 -50 315 0 315 0 0 50 0 50 -315 0 -315 0 0 -50z"/>
 <path d="M1650 2180 l0 -50 458 0 457 1 -25 21 c-14 11 -50 33 -80 47 l-55 26 -377 3 -378 3 0 -51z"/>
 <path d="M2740 2180 l0 -50 225 0 225 0 0 50 0 50 -225 0 -225 0 0 -50z"/>
 <path d="M3446 2183 c-9 -26 -16 -48 -16 -50 0 -2 16 -3 36 -3 33 0 36 2 30 25 -9 35 -25 75 -30 75 -2 0 -11 -21 -20 -47z"/>
 <path d="M3740 2180 l0 -50 225 0 225 0 0 50 0 50 -225 0 -225 0 0 -50z"/>
 <path d="M930 1985 l0 -55 315 0 315 0 0 55 0 55 -315 0 -315 0 0 -55z"/>
 <path d="M1650 1985 l0 -55 505 0 c561 0 519 -6 489 70 l-16 40 -489 0 -489 0 0 -55z"/>
 <path d="M2744 2026 c-3 -8 -4 -31 -2 -52 l3 -39 223 -3 222 -2 0 55 0 55 -220 0 c-180 0 -222 -3 -226 -14z"/>
 <path d="M3386 1993 c-9 -26 -16 -50 -16 -55 0 -4 43 -8 96 -8 l97 0 -6 28 c-16 77 -21 82 -91 82 l-64 0 -16 -47z"/>
 <path d="M3744 2026 c-3 -8 -4 -31 -2 -52 l3 -39 223 -3 222 -2 0 55 0 55 -220 0 c-180 0 -222 -3 -226 -14z"/>
 <path d="M1110 1795 l0 -55 135 0 135 0 0 55 0 55 -135 0 -135 0 0 -55z"/>
 <path d="M1830 1795 l0 -56 138 3 137 3 0 50 0 50 -137 3 -138 3 0 -56z"/>
 <path d="M2380 1795 l0 -55 135 0 c150 0 155 2 155 74 l0 36 -145 0 -145 0 0 -55z"/>
 <path d="M2920 1795 l0 -55 135 0 135 0 0 55 0 55 -135 0 -135 0 0 -55z"/>
 <path d="M3326 1803 c-9 -26 -16 -50 -16 -55 0 -4 70 -8 156 -8 l157 0 -6 28 c-3 15 -10 39 -16 55 l-11 27 -124 0 -124 0 -16 -47z"/>
 <path d="M3744 1836 c-3 -8 -4 -31 -2 -52 l3 -39 133 -3 132 -3 0 56 0 55 -130 0 c-103 0 -132 -3 -136 -14z"/>
 <path d="M1110 1600 l0 -50 135 0 135 0 0 50 0 50 -135 0 -135 0 0 -50z"/>
 <path d="M1830 1600 l0 -50 353 0 354 0 20 23 c11 12 28 34 38 50 l17 27 -391 0 -391 0 0 -50z"/>
 <path d="M2920 1600 l0 -50 135 0 135 0 0 50 0 50 -135 0 -135 0 0 -50z"/>
 <path d="M3270 1625 c-5 -14 -13 -37 -16 -50 l-6 -25 220 0 221 0 -14 48 c-8 26 -15 48 -15 50 0 1 -86 2 -190 2 l-190 0 -10 -25z"/>
 <path d="M3740 1600 l0 -50 135 0 135 0 0 50 0 50 -135 0 -135 0 0 -50z"/>
 <path d="M1110 1410 l0 -50 135 0 135 0 0 50 0 50 -135 0 -135 0 0 -50z"/>
 <path d="M1830 1410 l0 -50 391 0 391 0 -17 28 c-10 15 -27 37 -38 50 l-20 22 -354 0 -353 0 0 -50z"/>
 <path d="M2920 1410 l0 -50 260 0 259 0 7 35 c9 50 21 52 35 5 l12 -40 259 0 258 0 0 50 0 50 -135 0 -135 0 -1 -27 -1 -28 -10 28 -10 27 -252 0 -253 0 -11 -32 -10 -33 -1 33 -1 32 -135 0 -135 0 0 -50z"/>
 <path d="M1110 1220 l0 -50 135 0 135 0 0 50 0 50 -135 0 -135 0 0 -50z"/>
 <path d="M1830 1220 l0 -50 135 0 135 0 0 50 0 50 -135 0 -135 0 0 -50z"/>
 <path d="M2372 1223 l3 -48 145 0 145 0 -4 40 c-1 22 -5 43 -8 48 -2 4 -67 7 -144 7 l-140 0 3 -47z"/>
 <path d="M2920 1220 l0 -50 225 0 225 0 10 25 c5 14 13 37 16 50 l6 25 -241 0 -241 0 0 -50z"/>
 <path d="M3530 1264 c0 -3 5 -25 11 -50 l11 -44 229 0 229 0 0 50 0 50 -240 0 c-132 0 -240 -3 -240 -6z"/>
 <path d="M930 1025 l0 -55 318 2 317 3 0 50 0 50 -317 3 -318 2 0 -55z"/>
 <path d="M1650 1025 l0 -55 489 0 489 0 10 28 c6 15 14 39 18 55 l6 27 -506 0 -506 0 0 -55z"/>
 <path d="M2744 1066 c-3 -8 -4 -31 -2 -52 l3 -39 282 -3 281 -2 16 47 c9 25 16 50 16 55 0 4 -133 8 -295 8 -244 0 -297 -2 -301 -14z"/>
 <path d="M3590 1072 c0 -5 7 -29 16 -55 l16 -47 284 0 284 0 0 55 0 55 -300 0 c-165 0 -300 -4 -300 -8z"/>
 <path d="M930 830 l0 -50 321 0 320 0 -3 48 -3 47 -317 3 -318 2 0 -50z"/>
 <path d="M1650 830 l0 -50 358 0 c334 0 362 1 418 20 32 12 75 34 94 50 l35 29 -452 1 -453 0 0 -50z"/>
 <path d="M2740 830 l0 -50 253 0 253 0 16 50 16 50 -269 0 -269 0 0 -50z"/>
 <path d="M3650 877 c0 -2 7 -24 16 -50 l16 -47 254 0 254 0 0 50 0 50 -270 0 c-148 0 -270 -1 -270 -3z"/>
 </g>

</svg>