<!DOCTYPE svg PUBLIC "-//W3C//DTD SVG 20010904//EN" "http://www.w3.org/TR/2001/REC-SVG-20010904/DTD/svg10.dtd">
<svg version="1.0" xmlns="http://www.w3.org/2000/svg" width="350px" height="114px" viewBox="0 0 3500 1140" preserveAspectRatio="xMidYMid meet">
<g id="layer101" fill="#f70001" stroke="none">
 <path d="M0 570 l0 -570 1750 0 1750 0 0 570 0 570 -1750 0 -1750 0 0 -570z"/>
 </g>
<g id="layer102" fill="#d7131a" stroke="none">
 <path d="M699 700 c-155 -6 -194 -26 -234 -119 -21 -46 -19 -84 6 -128 30 -54 38 -62 83 -84 35 -17 60 -20 184 -18 78 0 142 5 142 10 0 5 6 9 13 9 18 0 73 60 82 88 11 39 21 24 20 -30 -1 -29 2 -59 8 -65 7 -10 52 -13 164 -13 175 0 190 5 225 73 18 36 19 45 8 78 -15 45 -61 89 -92 89 -21 0 -19 4 17 35 46 40 62 40 84 4 32 -52 60 -94 68 -104 5 -5 31 -47 57 -92 48 -81 50 -83 87 -83 42 0 43 1 143 159 l54 84 -5 -46 c-4 -37 0 -58 21 -101 40 -81 78 -96 245 -96 73 0 132 4 136 10 3 5 -1 23 -10 39 -14 29 -18 30 -60 24 -30 -4 -50 -1 -60 7 -13 11 -20 11 -41 0 -21 -12 -29 -11 -53 3 -16 9 -35 17 -41 17 -40 0 -55 103 -20 135 11 10 20 14 20 9 0 -5 4 -4 8 2 4 8 54 13 139 15 l132 4 3 -130 3 -130 38 -3 c26 -2 39 1 43 12 3 8 6 66 7 128 l2 113 125 3 125 3 -3 -76 c-4 -69 -2 -78 23 -111 51 -67 73 -74 232 -74 78 0 144 4 147 8 6 9 48 8 64 -2 18 -11 36 43 23 71 -12 26 -18 27 -55 13 -15 -5 -26 -17 -26 -28 0 -29 -12 -34 -24 -9 -11 20 -19 22 -116 25 -76 1 -114 7 -137 19 -18 10 -33 21 -33 25 0 5 63 8 139 8 155 0 163 4 129 58 l-20 32 -126 0 -127 0 25 20 c22 17 41 20 153 20 125 0 127 0 127 23 0 12 -7 32 -15 43 -8 12 -12 23 -10 26 9 9 -222 -1 -253 -10 -17 -6 -44 -20 -59 -32 -27 -21 -28 -21 -36 -2 -15 33 -47 41 -182 46 -144 4 -185 -6 -185 -47 -1 -21 -2 -20 -16 5 -17 32 -34 37 -129 42 -98 4 -163 -10 -210 -47 -28 -22 -34 -24 -20 -8 l20 23 -22 18 c-28 22 -67 15 -92 -16 -17 -22 -27 -24 -98 -24 -66 0 -81 -3 -96 -20 -9 -11 -17 -26 -17 -33 0 -14 -39 33 -40 49 0 29 -75 70 -100 54 -7 -4 -28 -4 -47 0 -50 12 -96 -5 -146 -53 -25 -23 -62 -56 -83 -73 -59 -51 -45 -64 70 -64 94 0 96 0 102 -25 11 -46 -8 -55 -117 -55 l-99 0 0 124 c0 100 -3 128 -16 140 -41 41 -84 2 -76 -69 5 -49 -12 -63 -27 -22 -14 35 -57 76 -88 82 -15 4 -35 9 -43 13 -8 4 -71 5 -141 2z m166 -106 c34 -22 42 -74 19 -113 -10 -17 -24 -33 -30 -35 -11 -4 -176 -9 -237 -7 -10 1 -29 13 -42 27 -33 35 -33 83 0 118 23 25 27 26 145 26 94 0 126 -4 145 -16z m814 -43 c2 -1 -3 -8 -10 -17 -7 -9 -18 -25 -24 -37 -5 -11 -14 -22 -20 -23 -10 -3 -55 59 -55 75 0 6 82 7 109 2z m-682 -28 c-4 -3 -7 0 -7 7 0 7 3 10 7 7 3 -4 3 -10 0 -14z"/>
 </g>
<g id="layer103" fill="#c3201d" stroke="none">
 <path d="M810 695 c-14 -17 -159 -22 -188 -6 -27 14 -120 -31 -128 -63 -3 -14 -9 -24 -13 -22 -4 3 -8 -5 -8 -17 -1 -12 -7 -23 -12 -25 -8 -3 -7 -10 0 -24 8 -15 8 -19 0 -14 -15 10 -14 -37 2 -53 6 -6 12 -16 12 -21 0 -22 47 -70 70 -70 13 0 27 -5 30 -11 4 -6 13 -8 20 -5 7 2 15 2 18 0 8 -9 266 -10 260 -1 -2 4 3 7 12 7 18 0 87 65 78 74 -3 3 0 12 6 20 7 8 10 20 6 26 -4 6 -2 17 5 25 7 9 8 15 0 20 -5 3 -7 17 -4 30 4 15 0 26 -11 32 -8 5 -19 22 -24 39 -5 16 -13 28 -20 27 -6 -2 -11 2 -11 8 0 5 -5 7 -10 4 -6 -4 -17 -2 -25 5 -7 6 -22 10 -32 8 -10 -2 -17 2 -15 10 3 16 -3 15 -18 -3z m0 -76 c0 -6 6 -9 14 -6 8 3 20 0 26 -8 6 -8 17 -12 24 -9 8 3 16 -5 20 -18 11 -34 12 -78 3 -78 -5 0 -6 -4 -3 -9 3 -5 -1 -11 -9 -15 -8 -3 -12 -12 -9 -21 4 -10 0 -15 -12 -15 -11 0 -76 -1 -146 -2 l-127 -2 -30 44 c-17 25 -26 47 -21 48 6 2 7 8 4 14 -3 5 2 16 12 24 11 9 13 12 5 8 -9 -4 -12 -2 -9 6 2 7 13 14 23 16 10 2 22 10 27 18 7 13 29 16 108 16 67 0 100 -4 100 -11z"/>
 <path d="M1009 688 c-16 -29 -19 -309 -4 -323 6 -6 74 -10 167 -10 145 0 158 2 173 20 9 11 13 13 9 5 -7 -13 -6 -13 9 -1 10 8 15 16 13 19 -3 3 3 17 14 32 11 15 17 30 13 33 -3 4 -7 21 -8 38 -3 35 -57 92 -79 83 -7 -3 -19 2 -26 10 -10 13 -9 17 4 21 9 3 23 7 32 10 9 3 18 14 21 25 4 16 11 19 27 14 22 -7 36 -22 36 -39 0 -6 14 -23 30 -38 17 -16 28 -32 25 -37 -2 -4 7 -20 20 -36 14 -16 31 -41 38 -56 6 -16 18 -28 26 -28 8 0 11 -3 8 -7 -4 -3 -2 -12 4 -20 6 -7 8 -13 3 -13 -4 0 1 -7 12 -16 10 -8 13 -12 5 -8 -9 4 -12 3 -8 -3 12 -19 89 -10 101 11 6 11 19 28 29 38 10 10 15 23 12 28 -4 6 -1 10 4 10 6 0 11 6 11 14 0 8 7 17 16 20 8 3 12 10 9 16 -3 5 -2 10 2 10 5 0 14 9 21 21 11 17 11 20 0 14 -7 -3 -3 2 9 13 12 11 19 22 16 26 -4 3 -2 6 4 6 14 0 24 -38 13 -45 -13 -8 -2 -76 14 -94 8 -9 15 -19 15 -24 0 -12 20 -43 21 -33 0 6 6 2 13 -7 6 -9 23 -19 37 -21 14 -3 25 -5 25 -6 0 -6 267 -5 270 1 3 3 -2 20 -11 38 -14 29 -17 30 -59 24 -30 -4 -50 -1 -60 7 -13 11 -20 11 -40 0 -14 -7 -31 -9 -42 -5 -10 5 -21 7 -25 7 -5 -1 -8 3 -8 9 0 5 -4 7 -10 4 -17 -10 -52 42 -55 80 -1 27 4 44 21 63 15 15 24 20 24 11 0 -8 7 -4 16 9 13 19 24 22 85 22 44 0 68 -4 64 -10 -4 -6 7 -10 25 -10 17 0 29 4 26 9 -3 5 9 7 27 5 17 -1 35 -3 39 -3 4 -1 7 -61 6 -133 l-1 -133 36 -1 c40 -1 53 16 35 46 -9 14 -9 22 1 33 8 10 9 17 1 22 -13 8 -13 112 0 120 6 4 8 10 5 14 -2 5 4 16 14 25 13 12 21 14 26 6 5 -8 10 -8 20 0 8 7 50 10 106 8 l94 -3 -3 -67 c-1 -38 2 -69 8 -73 5 -3 10 -13 10 -21 0 -10 -5 -12 -12 -8 -8 5 -7 0 2 -12 25 -32 65 -69 73 -66 4 1 7 -2 7 -8 0 -6 3 -9 8 -9 4 1 9 0 12 -1 13 -6 291 -6 295 0 2 3 20 5 40 4 29 -3 38 1 46 20 8 17 8 29 0 45 -14 25 -29 27 -37 6 -5 -11 -10 -13 -19 -5 -16 13 -28 0 -14 -16 6 -7 8 -17 5 -23 -10 -15 -38 -6 -50 17 -10 19 -18 20 -123 19 -97 -2 -114 0 -125 15 -7 10 -18 18 -25 18 -15 0 -18 19 -3 21 6 1 14 2 19 3 5 0 13 4 17 9 9 9 168 9 178 0 11 -12 65 -10 70 2 2 7 -5 26 -16 43 -20 31 -51 42 -63 22 -8 -14 -162 -13 -170 1 -4 6 -13 8 -20 5 -9 -3 -13 2 -12 15 1 11 7 17 14 15 7 -3 17 4 23 14 10 18 22 20 120 20 62 0 111 -4 115 -10 11 -19 25 -10 25 16 0 17 -4 23 -12 18 -8 -5 -9 -2 -5 9 3 9 2 19 -4 22 -5 4 -6 11 -3 17 4 6 -3 5 -16 -2 -17 -9 -24 -9 -30 0 -5 8 -9 7 -13 -4 -5 -12 -22 -16 -75 -16 -38 0 -73 5 -79 11 -9 9 -18 8 -38 -5 -14 -9 -30 -14 -36 -11 -5 4 -8 1 -7 -6 2 -7 -8 -18 -22 -25 -21 -12 -25 -11 -28 1 -2 8 -8 15 -13 15 -6 0 -7 5 -4 10 7 12 12 11 -167 11 -84 0 -140 4 -144 10 -3 6 -12 3 -21 -8 -8 -10 -11 -12 -7 -4 5 9 3 12 -5 7 -6 -4 -9 -16 -6 -27 5 -13 2 -19 -10 -19 -9 0 -14 4 -11 9 9 14 -18 42 -39 41 -95 -7 -202 -7 -210 0 -13 11 -85 -21 -85 -38 0 -7 -4 -11 -9 -7 -6 3 -15 -4 -21 -15 -6 -11 -16 -20 -23 -19 -9 0 -9 2 1 6 6 2 12 9 12 15 0 6 7 16 17 23 15 11 14 14 -6 34 -21 21 -22 21 -52 4 -17 -10 -35 -29 -40 -42 -9 -23 -12 -23 -97 -19 -92 4 -112 -3 -112 -39 0 -3 -9 2 -20 12 -11 10 -20 26 -20 36 0 21 -56 64 -64 50 -4 -6 -18 -6 -35 -1 -15 4 -41 5 -56 2 -19 -3 -26 -1 -21 7 4 6 2 11 -3 11 -6 0 -11 -3 -11 -8 0 -4 -14 -8 -31 -8 -35 -2 -39 -5 -43 -31 -2 -10 -9 -18 -17 -18 -8 0 -23 -10 -34 -22 -11 -13 -26 -23 -33 -23 -6 0 -14 -11 -18 -25 -4 -16 -12 -24 -22 -23 -11 2 -17 -4 -17 -17 0 -19 7 -20 92 -20 86 0 92 -1 111 -26 21 -25 21 -26 1 -42 -15 -14 -41 -17 -125 -17 -74 0 -103 3 -98 11 3 6 0 22 -7 36 -10 19 -10 28 -1 43 7 12 8 21 2 25 -14 9 -13 68 2 83 8 8 8 15 0 25 -7 8 -9 17 -5 20 10 10 -18 37 -38 37 -10 0 -24 -10 -30 -22z m670 -137 c2 -1 -3 -9 -10 -18 -10 -11 -10 -14 -1 -9 22 13 13 -3 -22 -38 l-35 -34 -6 29 c-4 16 -17 37 -30 48 -14 10 -22 21 -19 24 4 4 104 3 123 -2z m1371 -115 c0 -3 -5 -8 -12 -12 -7 -4 -8 -3 -4 4 7 12 16 16 16 8z"/>
 <path d="M2008 703 c7 -3 16 -2 19 1 4 3 -2 6 -13 5 -11 0 -14 -3 -6 -6z"/>
 <path d="M2083 703 c4 -3 10 -3 14 0 3 4 0 7 -7 7 -7 0 -10 -3 -7 -7z"/>
 <path d="M2283 703 c4 -3 10 -3 14 0 3 4 0 7 -7 7 -7 0 -10 -3 -7 -7z"/>
 <path d="M2328 703 c6 -2 18 -2 25 0 6 3 1 5 -13 5 -14 0 -19 -2 -12 -5z"/>
 <path d="M2388 703 c7 -3 16 -2 19 1 4 3 -2 6 -13 5 -11 0 -14 -3 -6 -6z"/>
 <path d="M2763 703 c4 -3 10 -3 14 0 3 4 0 7 -7 7 -7 0 -10 -3 -7 -7z"/>
 <path d="M2813 703 c9 -2 25 -2 35 0 9 3 1 5 -18 5 -19 0 -27 -2 -17 -5z"/>
 </g>
<g id="layer104" fill="#d11825" stroke="none">
 <path d="M810 695 c-15 -18 -159 -21 -191 -5 -13 7 -19 7 -19 0 0 -5 -11 -10 -24 -10 -14 0 -31 -7 -40 -15 -8 -9 -19 -17 -23 -18 -4 -1 -7 -5 -6 -9 2 -5 -2 -8 -7 -8 -6 0 -10 -7 -10 -16 0 -8 -5 -12 -10 -9 -6 4 -10 3 -9 -2 5 -29 -3 -83 -11 -78 -15 9 -12 -39 3 -54 6 -6 12 -16 12 -21 0 -4 10 -22 22 -38 16 -21 33 -31 64 -36 23 -4 46 -9 51 -12 10 -6 268 -11 262 -5 -8 8 18 31 28 25 17 -10 63 50 66 86 1 19 7 39 13 46 7 8 6 14 -1 19 -7 4 -10 18 -7 31 2 15 -1 28 -10 32 -7 5 -17 21 -22 38 -4 16 -14 29 -22 30 -34 2 -40 5 -35 13 3 4 -9 8 -27 8 -20 -1 -31 4 -29 11 3 16 -3 15 -18 -3z m0 -76 c0 -6 6 -9 14 -6 8 3 20 0 26 -8 6 -8 18 -11 25 -9 7 3 18 -4 24 -15 13 -24 14 -34 2 -26 -6 3 -6 -7 0 -27 12 -44 12 -45 -11 -51 -13 -3 -18 -10 -14 -21 3 -9 2 -16 -2 -17 -5 0 -71 -1 -146 -1 l-138 -2 -29 45 c-17 24 -26 45 -21 47 5 2 7 9 4 17 -7 17 14 57 26 50 5 -3 17 3 27 15 15 18 29 20 115 20 65 0 98 -4 98 -11z"/>
 <path d="M554 568 c-4 -7 -3 -8 4 -4 12 7 16 16 8 16 -3 0 -8 -5 -12 -12z"/>
 <path d="M1009 688 c-13 -25 -19 -178 -7 -178 5 0 8 -7 8 -16 0 -8 -3 -13 -7 -11 -5 3 -9 -11 -10 -31 -1 -32 0 -34 7 -12 8 24 8 24 9 -5 1 -17 -4 -36 -10 -42 -9 -9 -8 -15 2 -25 20 -19 283 -25 304 -8 9 7 18 10 22 7 3 -4 12 1 20 11 9 10 11 11 7 2 -7 -13 -5 -13 9 -1 9 7 15 17 12 21 -3 5 -1 11 5 15 5 3 10 20 10 36 0 17 4 28 10 24 5 -3 5 8 -2 27 -13 39 -63 89 -82 82 -7 -3 -19 2 -26 10 -10 13 -9 17 4 21 9 3 23 7 32 10 9 3 18 14 21 26 4 12 11 18 20 15 8 -3 18 -6 23 -6 4 0 13 -14 19 -31 6 -17 20 -33 31 -36 11 -3 21 -8 21 -12 1 -3 3 -16 4 -28 2 -20 35 -64 35 -47 0 4 7 -1 15 -12 8 -10 15 -29 15 -41 0 -14 6 -23 15 -23 14 0 17 -4 19 -32 1 -7 8 -19 16 -26 11 -10 11 -12 1 -6 -9 4 -12 3 -8 -3 4 -6 26 -10 49 -9 34 1 45 6 53 24 5 12 13 22 17 22 4 0 13 10 19 23 10 19 10 21 -2 12 -8 -5 -7 -3 3 7 10 9 18 21 18 26 0 5 7 13 16 16 8 3 12 10 9 16 -3 5 -2 10 2 10 5 0 14 9 21 21 8 12 9 18 3 14 -8 -4 -7 2 1 19 6 14 17 26 23 26 15 0 27 -38 15 -45 -17 -11 1 -80 28 -109 15 -17 18 -24 8 -16 -18 14 -18 14 -5 -7 7 -12 15 -20 18 -18 2 3 9 -3 16 -12 7 -9 25 -16 44 -15 17 0 29 -2 27 -6 -2 -4 55 -7 127 -7 82 0 132 4 131 10 0 6 -5 22 -12 37 -11 26 -14 27 -57 22 -30 -5 -50 -2 -60 6 -13 11 -20 11 -40 0 -14 -7 -31 -9 -42 -5 -10 5 -21 7 -25 7 -5 -1 -8 3 -8 9 0 8 -5 8 -15 -1 -12 -10 -16 -8 -24 13 -5 14 -14 28 -19 31 -5 3 -7 18 -4 32 3 19 1 25 -7 20 -16 -10 -13 14 5 44 8 14 13 17 10 7 -3 -11 -2 -15 4 -12 6 3 10 13 10 21 0 8 5 14 10 14 6 0 10 -6 10 -12 0 -7 7 -2 16 10 13 19 24 22 85 22 44 0 68 -4 64 -10 -4 -6 7 -10 25 -10 20 0 29 4 24 11 -5 9 16 9 73 -1 1 0 2 -60 1 -132 l-1 -133 36 -1 c40 -1 53 16 35 46 -9 14 -9 22 1 33 8 10 9 17 1 22 -12 8 -14 112 -1 120 5 3 8 17 5 30 -3 20 0 25 15 25 11 0 23 -5 26 -10 5 -8 11 -8 20 0 8 7 50 10 106 8 l94 -3 0 -67 c0 -36 3 -70 8 -74 11 -12 8 -36 -4 -28 -6 3 -4 -5 5 -19 10 -14 26 -27 37 -30 11 -3 18 -11 17 -19 -2 -7 3 -12 10 -10 6 1 12 -2 12 -8 0 -6 3 -9 8 -9 4 1 9 0 12 -1 13 -6 291 -6 295 0 2 3 20 5 40 4 29 -3 38 1 46 20 8 17 8 30 -1 45 -12 24 -31 24 -39 0 -4 -12 -1 -12 15 1 18 14 18 14 5 -3 -13 -16 -15 -16 -31 -2 -11 10 -20 12 -24 6 -4 -5 2 -14 11 -20 20 -11 14 -21 -14 -26 -19 -3 -55 23 -48 35 2 4 -49 8 -115 8 -123 1 -145 5 -134 24 4 6 2 8 -4 4 -6 -3 -14 -1 -18 5 -7 12 15 31 27 23 4 -2 10 0 14 6 7 11 168 14 179 3 11 -12 65 -10 70 2 2 7 -5 26 -16 43 -20 31 -51 42 -63 22 -9 -15 -158 -13 -174 3 -10 9 -15 9 -18 0 -2 -7 -11 -9 -19 -6 -17 6 -19 24 -1 21 6 -2 11 3 9 11 -2 8 3 11 12 8 10 -4 20 2 26 13 10 18 22 20 120 20 62 0 111 -4 115 -10 11 -19 25 -10 25 16 0 17 -4 23 -12 18 -8 -5 -9 -2 -5 9 3 9 2 19 -4 22 -5 4 -6 11 -3 17 4 6 -3 5 -16 -2 -17 -9 -24 -9 -30 0 -5 8 -9 7 -13 -4 -5 -12 -22 -16 -75 -16 -38 0 -73 5 -79 11 -9 9 -18 8 -38 -5 -14 -9 -30 -14 -36 -11 -5 4 -8 1 -7 -6 2 -7 -8 -18 -22 -25 -21 -12 -25 -11 -28 1 -2 8 -10 15 -17 15 -7 0 -15 5 -17 11 -3 8 -49 11 -145 11 -88 -1 -145 3 -149 9 -3 6 -12 3 -21 -8 -8 -10 -11 -12 -7 -4 5 9 3 12 -5 7 -6 -4 -9 -16 -6 -27 5 -13 2 -19 -10 -19 -9 0 -14 4 -11 9 9 14 -18 42 -39 41 -95 -7 -202 -7 -210 0 -13 10 -85 -21 -85 -37 0 -14 -48 -49 -56 -41 -8 9 8 38 21 38 24 0 26 19 5 40 -20 20 -22 20 -51 3 -17 -10 -35 -29 -40 -42 -9 -23 -12 -23 -97 -19 -92 4 -112 -3 -112 -39 0 -3 -9 2 -20 12 -11 10 -20 26 -20 36 0 21 -56 64 -64 50 -4 -6 -18 -6 -35 -1 -15 4 -41 5 -56 2 -19 -3 -26 -1 -21 7 4 6 2 11 -3 11 -6 0 -11 -3 -11 -8 0 -4 -14 -8 -31 -8 -35 -2 -39 -5 -43 -31 -2 -10 -9 -18 -17 -18 -8 0 -23 -10 -34 -22 -11 -13 -26 -23 -33 -23 -6 0 -14 -11 -18 -25 -4 -16 -12 -24 -22 -23 -11 2 -17 -4 -17 -17 0 -19 7 -20 92 -20 88 0 92 -1 113 -27 20 -26 20 -55 -1 -42 -5 3 -8 1 -7 -4 4 -12 8 -12 -118 -12 -74 0 -103 3 -98 11 3 6 0 22 -7 36 -10 19 -10 28 -1 43 7 12 8 21 2 25 -14 9 -13 68 2 83 8 8 8 15 0 25 -7 8 -9 17 -5 20 10 10 -18 37 -38 37 -10 0 -24 -10 -30 -22z m600 -135 c17 -4 22 -2 17 6 -5 7 1 11 17 11 28 0 41 -22 24 -40 -9 -10 -9 -11 1 -6 22 13 13 -2 -22 -38 l-35 -34 -6 29 c-4 16 -17 37 -29 46 -12 10 -26 24 -31 32 -6 11 -3 13 16 7 13 -3 35 -9 48 -13z m1438 -160 c-4 -3 -7 0 -7 7 0 7 3 10 7 7 3 -4 3 -10 0 -14z"/>
 <path d="M2008 703 c7 -3 16 -2 19 1 4 3 -2 6 -13 5 -11 0 -14 -3 -6 -6z"/>
 <path d="M2083 703 c4 -3 10 -3 14 0 3 4 0 7 -7 7 -7 0 -10 -3 -7 -7z"/>
 <path d="M2283 703 c4 -3 10 -3 14 0 3 4 0 7 -7 7 -7 0 -10 -3 -7 -7z"/>
 <path d="M2328 703 c6 -2 18 -2 25 0 6 3 1 5 -13 5 -14 0 -19 -2 -12 -5z"/>
 <path d="M2388 703 c7 -3 16 -2 19 1 4 3 -2 6 -13 5 -11 0 -14 -3 -6 -6z"/>
 <path d="M2763 703 c4 -3 10 -3 14 0 3 4 0 7 -7 7 -7 0 -10 -3 -7 -7z"/>
 <path d="M2813 703 c9 -2 25 -2 35 0 9 3 1 5 -18 5 -19 0 -27 -2 -17 -5z"/>
 <path d="M1854 638 c-4 -7 -3 -8 4 -4 7 4 12 9 12 12 0 8 -9 4 -16 -8z"/>
 </g>
<g id="layer105" fill="#e61225" stroke="none">
 <path d="M810 695 c-15 -18 -159 -21 -191 -5 -11 6 -19 7 -19 1 0 -7 -49 -25 -58 -21 -2 1 -10 -7 -19 -17 -8 -10 -11 -12 -7 -4 5 10 3 12 -5 7 -7 -5 -10 -10 -7 -13 8 -8 -14 -44 -23 -39 -4 3 -7 -3 -7 -12 0 -50 -5 -73 -14 -67 -6 3 -10 -5 -10 -19 0 -14 4 -27 9 -30 5 -4 7 4 5 16 -4 21 -4 21 6 -1 6 -14 8 -31 6 -38 -3 -7 0 -12 7 -10 7 1 12 -6 12 -15 0 -20 20 -42 38 -43 12 -1 58 -12 86 -21 24 -8 231 -10 231 -2 0 8 38 22 60 23 15 0 34 31 56 95 7 19 19 34 26 32 7 -2 5 5 -6 16 -9 11 -16 29 -14 39 1 10 -13 35 -32 57 -19 21 -34 42 -33 47 2 5 -3 6 -10 4 -19 -7 -72 11 -69 24 3 15 -3 14 -18 -4z m4 -77 c5 -10 7 -10 12 -1 3 7 12 9 20 6 7 -3 12 -9 9 -13 -3 -5 0 -12 6 -16 8 -5 9 -3 4 6 -5 8 -3 11 6 8 18 -5 50 -68 42 -82 -4 -5 -7 -20 -8 -33 -2 -49 -22 -55 -175 -56 -104 0 -144 3 -149 12 -5 7 -12 11 -17 9 -5 -1 -14 13 -20 32 -7 19 -8 36 -3 38 4 2 5 10 2 18 -8 21 25 67 43 60 8 -3 13 -2 9 3 -9 15 15 19 117 20 68 1 98 -3 102 -11z m-293 -215 c13 -16 12 -17 -3 -4 -17 13 -22 21 -14 21 2 0 10 -8 17 -17z"/>
 <path d="M554 568 c-4 -7 -3 -8 4 -4 12 7 16 16 8 16 -3 0 -8 -5 -12 -12z"/>
 <path d="M555 480 c3 -5 8 -10 11 -10 3 0 2 5 -1 10 -3 6 -8 10 -11 10 -3 0 -2 -4 1 -10z"/>
 <path d="M874 468 c-4 -7 -3 -8 4 -4 12 7 16 16 8 16 -3 0 -8 -5 -12 -12z"/>
 <path d="M1017 703 c-10 -9 -9 -355 1 -349 4 2 77 5 162 7 126 2 157 6 168 18 11 13 12 13 6 1 -6 -12 -4 -13 6 -3 8 7 15 21 16 30 2 10 7 37 12 61 5 23 6 42 2 42 -4 0 -11 7 -14 16 -4 10 -2 13 7 8 9 -6 9 -4 -1 8 -7 9 -25 19 -39 23 -21 5 -24 8 -12 15 9 6 1 7 -23 3 -22 -3 -38 -2 -38 4 0 15 36 44 51 41 7 -2 18 7 23 18 17 39 54 25 93 -33 19 -29 32 -56 29 -61 -2 -4 0 -14 6 -22 8 -12 9 -12 4 3 -9 29 0 20 34 -33 18 -28 28 -54 24 -61 -4 -7 -3 -9 4 -5 5 3 20 -9 31 -28 24 -38 26 -50 9 -40 -7 4 -9 3 -5 -1 14 -15 87 -12 100 4 10 12 9 13 -1 7 -11 -7 -12 -4 -2 13 6 12 15 19 20 16 12 -7 29 26 22 44 -2 8 0 11 6 7 5 -3 9 2 8 11 0 10 4 18 11 18 6 0 15 4 20 9 5 5 2 6 -6 1 -9 -5 -12 -3 -9 6 3 8 10 13 16 12 6 -2 9 3 6 11 -3 8 0 17 7 22 8 5 10 3 4 -6 -5 -9 -4 -11 4 -6 6 4 9 12 5 17 -8 14 36 80 48 73 7 -4 8 -2 4 4 -4 6 0 22 9 36 15 23 15 25 -5 36 -19 10 -26 7 -60 -30 l-38 -42 -85 4 c-47 2 -83 0 -81 -4 3 -4 -3 -19 -12 -33 l-16 -25 76 0 c42 0 76 -4 76 -8 0 -5 -7 -17 -16 -28 -8 -10 -12 -13 -8 -5 5 9 3 12 -5 7 -6 -4 -9 -11 -6 -16 9 -14 -24 -70 -40 -70 -17 0 -39 36 -30 50 3 5 0 12 -6 16 -8 4 -9 3 -5 -4 4 -7 5 -12 3 -12 -12 0 -86 132 -81 143 3 8 -3 20 -13 27 -15 12 -16 12 -5 0 6 -8 12 -19 12 -25 0 -5 -10 5 -22 23 -13 21 -24 30 -30 24 -6 -6 -22 -7 -38 -2 -16 5 -46 4 -67 0 -21 -5 -42 -5 -47 0 -5 5 -19 -4 -34 -21 -15 -18 -31 -28 -39 -24 -11 3 -13 1 -10 -10 7 -17 -29 -46 -49 -38 -8 3 -16 -5 -20 -21 -4 -17 -12 -25 -22 -24 -11 2 -17 -4 -17 -17 0 -18 6 -19 87 -16 97 3 123 -2 132 -26 6 -14 4 -14 -11 -2 -16 12 -16 11 0 -8 18 -21 15 -49 -4 -37 -5 3 -8 0 -7 -8 2 -10 -23 -14 -110 -16 -109 -3 -113 -2 -107 17 3 11 0 29 -7 40 -10 17 -10 25 -1 41 8 12 9 21 3 25 -14 9 -13 68 2 83 8 8 8 15 0 25 -7 8 -9 17 -5 20 3 4 0 13 -7 22 -13 15 -42 20 -53 8z m30 -9 c-3 -3 -12 -4 -19 -1 -8 3 -5 6 6 6 11 1 17 -2 13 -5z m293 -48 c0 -3 -5 -8 -12 -12 -7 -4 -8 -3 -4 4 7 12 16 16 16 8z m363 -221 c-3 -9 -8 -14 -10 -11 -3 3 -2 9 2 15 9 16 15 13 8 -4z"/>
 <path d="M1323 703 c4 -3 10 -3 14 0 3 4 0 7 -7 7 -7 0 -10 -3 -7 -7z"/>
 <path d="M2008 703 c7 -3 16 -2 19 1 4 3 -2 6 -13 5 -11 0 -14 -3 -6 -6z"/>
 <path d="M2083 703 c4 -3 10 -3 14 0 3 4 0 7 -7 7 -7 0 -10 -3 -7 -7z"/>
 <path d="M2283 703 c4 -3 10 -3 14 0 3 4 0 7 -7 7 -7 0 -10 -3 -7 -7z"/>
 <path d="M2328 703 c6 -2 18 -2 25 0 6 3 1 5 -13 5 -14 0 -19 -2 -12 -5z"/>
 <path d="M2388 703 c7 -3 16 -2 19 1 4 3 -2 6 -13 5 -11 0 -14 -3 -6 -6z"/>
 <path d="M2763 703 c4 -3 10 -3 14 0 3 4 0 7 -7 7 -7 0 -10 -3 -7 -7z"/>
 <path d="M2813 703 c9 -2 25 -2 35 0 9 3 1 5 -18 5 -19 0 -27 -2 -17 -5z"/>
 <path d="M2910 694 c-41 -15 -166 -18 -175 -4 -3 6 -11 10 -16 10 -6 0 -8 -4 -5 -9 7 -11 -41 -24 -56 -15 -6 4 -8 3 -4 -4 3 -6 -2 -17 -12 -24 -10 -7 -27 -25 -36 -40 -10 -15 -22 -25 -27 -22 -5 3 -7 -8 -4 -23 14 -94 15 -114 4 -107 -8 4 -9 3 -5 -5 4 -6 11 -9 16 -6 4 3 11 -2 14 -11 3 -8 2 -12 -4 -9 -6 3 -10 4 -10 0 0 -3 12 -10 26 -15 14 -6 23 -14 19 -19 -3 -5 0 -13 6 -17 8 -5 9 -3 4 6 -5 8 -3 11 6 8 8 -3 13 -10 12 -16 -1 -5 7 -8 19 -4 12 3 19 1 16 -4 -6 -9 263 -10 279 -1 4 3 23 3 41 2 41 -3 62 28 42 64 -12 24 -31 24 -39 0 -4 -12 -1 -12 15 1 18 14 18 14 5 -3 -13 -16 -15 -16 -31 -2 -12 11 -20 13 -25 6 -3 -6 1 -14 9 -17 28 -11 18 -30 -14 -30 -28 1 -54 22 -45 36 2 3 -46 4 -105 2 -109 -3 -158 7 -144 30 4 7 3 8 -4 4 -6 -3 -16 3 -23 15 -10 19 -9 21 5 16 8 -3 18 -2 21 3 7 11 188 14 199 3 11 -12 65 -10 70 2 2 7 -5 26 -16 43 -20 31 -51 42 -63 22 -9 -15 -158 -13 -173 2 -10 10 -15 10 -20 1 -5 -7 -13 -9 -21 -4 -7 5 -10 14 -7 20 4 6 12 9 17 5 5 -3 8 0 7 7 -2 6 3 14 11 17 9 3 11 0 6 -8 -5 -9 -4 -11 4 -6 6 4 9 11 6 16 -3 4 2 11 11 14 26 10 222 7 229 -4 11 -18 25 -10 25 15 0 14 -5 24 -11 23 -6 -2 -14 3 -17 11 -3 10 0 11 9 5 11 -6 12 -5 2 8 -7 8 -10 18 -6 21 8 8 8 8 -37 -9z m7 -141 c-4 -3 -10 -3 -14 0 -3 4 0 7 7 7 7 0 10 -3 7 -7z m21 -38 c-3 -3 -9 2 -12 12 -6 14 -5 15 5 6 7 -7 10 -15 7 -18z m109 -122 c-4 -3 -7 0 -7 7 0 7 3 10 7 7 3 -4 3 -10 0 -14z"/>
 <path d="M1955 691 c6 -11 3 -13 -13 -9 -12 4 -20 3 -17 -2 7 -11 -24 -22 -37 -13 -6 3 -8 1 -5 -4 4 -6 -1 -17 -10 -24 -32 -27 -79 -160 -49 -142 5 4 7 -3 4 -15 -4 -12 -2 -20 3 -16 5 3 10 -1 11 -8 0 -7 2 -17 2 -23 2 -16 25 -51 26 -40 0 6 -6 17 -12 25 -7 8 -3 6 9 -4 12 -10 21 -23 20 -28 -1 -6 5 -13 13 -15 13 -4 13 -3 0 6 -11 8 -11 11 -2 11 7 0 15 -6 18 -14 3 -8 13 -12 26 -8 12 3 19 1 16 -4 -7 -10 249 -10 260 0 3 4 0 11 -8 16 -8 5 -15 17 -15 27 0 15 -7 17 -48 15 -28 -2 -54 1 -63 9 -12 10 -20 9 -40 -2 -20 -10 -29 -10 -44 -1 -10 6 -20 7 -22 2 -2 -5 -17 -2 -34 6 -73 35 -72 144 1 179 37 17 180 22 170 5 -4 -6 7 -10 25 -10 21 0 29 4 24 11 -5 8 4 10 30 7 41 -5 45 1 16 20 -11 7 -20 17 -20 24 0 7 7 3 16 -8 15 -19 15 -19 5 1 -9 19 -17 20 -122 18 -78 -2 -117 1 -128 10 -12 10 -13 9 -6 -2z"/>
 <path d="M2252 682 c-8 -10 -10 -11 -6 -2 4 8 4 12 0 8 -4 -3 -8 -80 -8 -170 l0 -163 35 0 35 0 -6 102 c-3 72 -1 107 7 117 8 9 8 16 2 20 -15 10 -2 36 18 36 9 0 22 -5 28 -11 8 -8 13 -8 17 0 5 7 44 11 102 11 77 0 96 -3 101 -16 5 -13 7 -13 14 -2 12 18 11 51 0 43 -6 -3 -14 2 -19 11 -8 14 -29 16 -147 16 -77 -1 -144 3 -150 8 -7 6 -15 3 -23 -8z"/>
 <path d="M1246 674 c-5 -14 -4 -15 9 -4 17 14 19 20 6 20 -5 0 -12 -7 -15 -16z"/>
 <path d="M925 660 c3 -5 8 -10 11 -10 3 0 2 5 -1 10 -3 6 -8 10 -11 10 -3 0 -2 -4 1 -10z"/>
 <path d="M990 660 c0 -7 3 -10 7 -7 3 4 3 10 0 14 -4 3 -7 0 -7 -7z"/>
 <path d="M1859 668 c-5 -18 -6 -38 -1 -34 7 8 12 36 6 36 -2 0 -4 -1 -5 -2z"/>
 <path d="M1410 623 c0 -6 8 -17 18 -24 16 -13 16 -13 2 6 -8 11 -16 22 -17 24 -2 2 -3 0 -3 -6z"/>
 <path d="M1815 601 c-3 -5 -1 -12 4 -15 5 -3 11 1 15 9 6 16 -9 21 -19 6z"/>
 <path d="M1950 600 c0 -7 3 -10 7 -7 3 4 3 10 0 14 -4 3 -7 0 -7 -7z"/>
 <path d="M1914 578 c-4 -7 -3 -8 4 -4 12 7 16 16 8 16 -3 0 -8 -5 -12 -12z"/>
 <path d="M991 554 c0 -11 3 -14 6 -6 3 7 2 16 -1 19 -3 4 -6 -2 -5 -13z"/>
 <path d="M1608 553 c7 -3 16 -2 19 1 4 3 -2 6 -13 5 -11 0 -14 -3 -6 -6z"/>
 <path d="M1673 553 c4 -3 10 -3 14 0 3 4 0 7 -7 7 -7 0 -10 -3 -7 -7z"/>
 <path d="M1902 520 c0 -14 2 -19 5 -12 2 6 2 18 0 25 -3 6 -5 1 -5 -13z"/>
 <path d="M1629 473 c-13 -16 -12 -17 4 -4 16 13 21 21 13 21 -2 0 -10 -8 -17 -17z"/>
 <path d="M1915 470 c3 -5 8 -10 11 -10 3 0 2 5 -1 10 -3 6 -8 10 -11 10 -3 0 -2 -4 1 -10z"/>
 <path d="M992 440 c0 -14 2 -19 5 -12 2 6 2 18 0 25 -3 6 -5 1 -5 -13z"/>
 <path d="M990 380 c0 -7 3 -10 7 -7 3 4 3 10 0 14 -4 3 -7 0 -7 -7z"/>
 </g>
<g id="layer106" fill="#b9565b" stroke="none">
 <path d="M591 679 c-133 -28 -164 -210 -49 -287 35 -23 52 -26 151 -30 121 -5 178 5 221 39 81 64 77 190 -7 253 -24 18 -47 22 -158 26 -71 3 -142 2 -158 -1z m275 -68 c44 -27 60 -77 40 -124 -22 -54 -57 -67 -183 -67 -131 0 -166 15 -183 79 -13 51 -1 85 42 111 48 29 238 29 284 1z"/>
 <path d="M1015 678 c-3 -8 -4 -81 -3 -163 l3 -150 137 -3 c161 -3 198 7 224 61 23 48 12 98 -27 131 -17 14 -41 26 -55 26 -34 0 -30 10 23 57 27 22 45 44 42 47 -4 4 -24 4 -45 0 -31 -4 -58 -23 -124 -85 l-85 -78 97 -1 c101 0 128 -10 128 -49 0 -40 -31 -51 -143 -51 -126 0 -116 -13 -120 155 -2 106 -3 110 -25 113 -12 2 -24 -3 -27 -10z"/>
 <path d="M1405 681 c-2 -5 39 -78 93 -162 131 -207 122 -207 254 -1 54 84 98 157 98 162 0 5 -14 8 -30 8 -22 -1 -37 -9 -51 -30 -20 -27 -24 -28 -103 -28 -80 0 -82 -1 -99 -30 l-18 -30 75 0 c42 0 76 -4 76 -9 0 -20 -64 -112 -76 -109 -7 2 -46 55 -86 118 -62 97 -77 115 -100 117 -15 1 -30 -2 -33 -6z"/>
 <path d="M1957 679 c-145 -24 -176 -218 -47 -293 28 -17 57 -21 162 -24 135 -5 146 -1 114 41 -11 14 -30 17 -111 17 -67 0 -107 5 -130 15 -50 24 -69 84 -44 138 20 43 46 52 183 57 l128 5 -18 23 c-17 21 -28 23 -110 25 -51 1 -108 -1 -127 -4z"/>
 <path d="M2283 682 c-41 -4 -45 -23 -41 -192 l3 -125 30 0 30 0 -4 112 c-4 165 -16 153 150 153 l140 0 -14 26 c-14 26 -15 26 -138 28 -68 0 -138 0 -156 -2z"/>
 <path d="M2780 681 c-118 -7 -143 -18 -181 -84 -17 -31 -20 -50 -17 -89 6 -61 31 -96 88 -125 39 -20 59 -23 167 -23 l124 0 -16 30 -16 30 -110 0 c-110 0 -111 0 -141 31 -44 44 -28 50 127 48 106 -1 129 1 127 12 -9 35 -24 39 -141 39 -139 0 -158 8 -118 47 27 27 31 28 157 31 130 4 130 4 118 25 -13 27 -28 37 -48 35 -8 -1 -62 -4 -120 -7z"/>
 <path d="M3017 423 c-4 -3 -7 -17 -7 -30 0 -28 23 -27 28 1 4 20 -11 40 -21 29z"/>
 </g>
<g id="layer107" fill="#ffdde4" stroke="none">
 <path d="M591 679 c-133 -28 -164 -210 -49 -287 35 -23 52 -26 151 -30 121 -5 178 5 221 39 81 64 77 190 -7 253 -24 18 -47 22 -158 26 -71 3 -142 2 -158 -1z m275 -68 c66 -40 63 -140 -5 -175 -46 -24 -236 -22 -276 2 -68 42 -71 125 -6 169 30 21 46 23 145 23 92 0 116 -3 142 -19z"/>
 <path d="M1015 678 c-3 -8 -4 -81 -3 -163 l3 -150 137 -3 c161 -3 198 7 224 61 23 48 12 98 -27 131 -17 14 -41 26 -55 26 -34 0 -30 10 23 57 27 22 45 44 42 47 -4 4 -24 4 -45 0 -31 -4 -58 -23 -124 -85 l-85 -78 97 -1 c101 0 128 -10 128 -49 0 -41 -30 -51 -148 -51 l-111 0 -3 133 c-3 128 -4 132 -26 135 -12 2 -24 -3 -27 -10z"/>
 <path d="M1405 681 c-2 -5 39 -78 93 -162 131 -207 122 -207 254 -1 54 84 98 157 98 162 0 5 -14 8 -30 8 -22 -1 -37 -9 -51 -30 -20 -27 -24 -28 -103 -28 -80 0 -82 -1 -99 -30 l-18 -29 80 -3 80 -3 -35 -55 c-19 -30 -41 -55 -49 -55 -7 0 -47 52 -87 115 -62 97 -77 115 -100 117 -15 1 -30 -2 -33 -6z"/>
 <path d="M1957 679 c-145 -24 -176 -218 -47 -293 28 -17 57 -21 162 -24 135 -5 146 -1 114 41 -11 14 -30 17 -111 17 -67 0 -107 5 -130 15 -50 24 -69 84 -44 138 20 43 46 52 183 57 l128 5 -18 23 c-17 21 -28 23 -110 25 -51 1 -108 -1 -127 -4z"/>
 <path d="M2283 682 c-41 -4 -45 -23 -41 -192 l3 -125 30 0 30 0 -4 112 c-4 165 -16 153 150 153 l140 0 -14 26 c-14 26 -15 26 -138 28 -68 0 -138 0 -156 -2z"/>
 <path d="M2780 681 c-118 -7 -143 -18 -181 -84 -17 -31 -20 -50 -17 -89 6 -61 31 -96 88 -125 39 -20 59 -23 167 -23 l124 0 -16 30 -16 30 -109 0 c-108 0 -110 1 -142 30 -48 43 -29 51 127 49 106 -1 129 1 127 12 -9 35 -24 39 -153 39 -141 0 -152 5 -103 51 24 22 34 24 155 27 129 4 129 4 117 25 -13 27 -28 37 -48 35 -8 -1 -62 -4 -120 -7z"/>
 </g>
<g id="layer108" fill="#ffe5de" stroke="none">
 <path d="M598 682 c-14 -2 -32 -10 -38 -18 -7 -8 -18 -14 -26 -14 -7 0 -23 -14 -35 -32 -27 -37 -35 -124 -14 -148 7 -8 15 -24 17 -35 2 -11 13 -24 25 -30 11 -6 29 -17 38 -25 22 -18 251 -28 268 -11 6 6 20 11 32 11 33 1 85 56 100 107 13 42 12 49 -6 88 -11 23 -33 55 -50 71 -29 28 -34 29 -157 34 -70 3 -139 4 -154 2z m237 -54 c39 -10 48 -18 66 -55 18 -37 19 -48 9 -79 -20 -61 -55 -74 -197 -74 -114 0 -124 2 -149 24 -23 19 -28 32 -30 77 -3 60 10 83 61 105 38 17 180 18 240 2z"/>
 <path d="M1015 678 c-3 -8 -4 -81 -3 -163 l3 -150 137 -3 c143 -3 208 10 208 41 0 8 6 19 13 25 7 6 11 27 9 54 -3 37 -9 47 -42 71 -21 15 -45 27 -54 27 -19 0 -20 5 -6 31 6 10 17 19 24 19 18 0 49 37 42 49 -12 18 -70 -1 -106 -36 -19 -18 -57 -53 -84 -78 l-50 -45 96 0 c101 0 128 -10 128 -49 0 -39 -30 -50 -143 -52 -60 -1 -111 2 -114 5 -4 4 -7 64 -8 134 -1 123 -1 127 -23 130 -12 2 -24 -3 -27 -10z"/>
 <path d="M1413 673 c-3 -8 4 -27 16 -41 12 -15 26 -38 31 -51 6 -13 17 -29 25 -35 8 -6 25 -33 39 -61 14 -27 40 -67 58 -88 30 -34 36 -37 59 -28 15 5 31 22 37 38 5 15 33 59 61 97 28 38 51 75 51 82 0 7 12 26 26 43 29 35 28 53 -4 58 -17 2 -28 -6 -43 -32 l-21 -35 -77 0 c-69 0 -80 -3 -101 -25 l-23 -24 81 -3 81 -3 -14 -25 c-7 -14 -20 -39 -28 -56 -8 -17 -19 -34 -25 -38 -17 -10 -59 32 -83 82 -12 26 -34 63 -48 82 -14 19 -31 44 -36 55 -12 23 -54 29 -62 8z"/>
 <path d="M1977 678 c-5 -3 -16 -4 -23 -1 -17 6 -74 -25 -81 -45 -3 -9 -13 -25 -22 -35 -17 -20 -24 -124 -9 -133 5 -3 13 -16 18 -29 5 -12 28 -32 52 -45 36 -19 63 -24 166 -27 129 -5 139 -2 108 40 -11 14 -30 17 -111 17 -146 0 -198 31 -188 113 6 48 13 57 67 87 35 19 52 21 140 18 100 -3 124 5 92 31 -16 13 -190 21 -209 9z"/>
 <path d="M2283 678 c-14 -4 -30 -13 -34 -20 -5 -7 -9 -70 -9 -139 0 -112 2 -128 19 -143 39 -35 46 -18 43 110 -2 65 1 125 6 132 6 8 46 14 128 16 65 2 123 5 127 5 5 1 7 11 5 22 -3 20 -9 21 -131 23 -70 0 -139 -2 -154 -6z"/>
 <path d="M2785 681 c-120 -8 -150 -23 -184 -93 l-24 -49 18 -60 c19 -62 51 -99 86 -99 10 0 21 -4 24 -10 4 -6 58 -10 130 -10 l125 0 -11 24 c-14 31 -34 36 -138 36 -47 0 -99 5 -117 12 -34 12 -52 47 -31 60 7 5 69 8 140 7 70 -1 130 0 133 3 3 3 -7 16 -23 28 -25 20 -37 21 -140 19 -62 -2 -115 0 -119 4 -9 9 17 58 33 63 7 2 21 7 31 11 9 3 65 5 125 5 86 -1 107 1 107 13 0 20 -28 45 -48 43 -9 -1 -62 -4 -117 -7z"/>
 </g>
<g id="layer109" fill="#fef7f8" stroke="none">
 <path d="M568 664 c-32 -13 -58 -31 -65 -45 -34 -68 -36 -124 -6 -165 13 -17 23 -35 23 -41 0 -5 19 -16 43 -23 23 -7 46 -17 51 -22 13 -10 193 -11 200 0 2 4 19 9 38 10 42 3 98 60 115 115 10 35 9 45 -9 84 -13 28 -36 55 -61 71 -36 24 -52 27 -158 32 -104 4 -124 3 -171 -16z m267 -34 c3 -5 14 -10 24 -10 31 0 55 -37 57 -91 2 -43 -1 -53 -28 -79 l-30 -30 -132 0 c-148 0 -166 6 -191 67 -25 60 -3 111 60 139 36 16 231 19 240 4z"/>
 <path d="M1798 674 c-15 -8 -32 -23 -38 -34 -9 -17 -21 -20 -89 -20 -59 0 -82 -4 -91 -15 -22 -27 2 -38 72 -33 l64 4 -13 -26 c-72 -130 -77 -132 -131 -47 -22 34 -42 71 -46 82 -10 32 -75 97 -93 93 -28 -5 -24 -22 21 -82 24 -32 54 -80 67 -105 57 -115 124 -157 152 -93 20 45 68 122 77 122 5 0 18 21 31 48 12 26 31 60 42 75 24 35 11 51 -25 31z"/>
 <path d="M1978 679 c-6 -4 -18 -5 -27 -3 -21 6 -81 -31 -81 -49 0 -8 -8 -21 -18 -30 -20 -19 -21 -79 -1 -140 12 -37 17 -40 124 -89 11 -5 61 -8 110 -6 79 3 90 5 93 22 6 29 -15 36 -107 36 -141 0 -182 22 -186 100 -3 45 32 100 62 100 12 0 25 5 28 10 3 6 52 10 111 10 87 0 104 3 104 15 0 9 -6 18 -14 21 -21 8 -186 10 -198 3z"/>
 <path d="M2283 678 c-15 -4 -30 -13 -34 -20 -5 -7 -9 -70 -9 -139 0 -112 2 -128 19 -143 19 -17 20 -17 30 3 6 11 11 66 11 123 0 57 4 109 9 117 6 9 41 14 129 15 67 1 125 5 128 9 4 4 1 13 -5 21 -9 11 -42 16 -132 18 -66 2 -132 0 -146 -4z"/>
 <path d="M1021 666 c-8 -9 -11 -60 -9 -157 l3 -144 134 -3 c188 -4 231 20 231 129 0 28 -7 38 -37 59 -20 14 -42 24 -49 22 -7 -1 -15 2 -19 8 -8 14 13 50 30 50 16 0 38 34 28 44 -16 16 -59 4 -89 -26 -18 -18 -49 -48 -69 -66 -20 -19 -34 -39 -32 -45 2 -8 32 -13 78 -14 41 0 79 -2 84 -2 6 -1 16 -15 24 -32 13 -30 12 -33 -10 -50 -18 -14 -46 -19 -119 -21 -147 -5 -135 -15 -135 110 0 138 -12 177 -44 138z"/>
 <path d="M2694 672 c-49 -16 -105 -86 -109 -137 -3 -29 29 -118 46 -127 76 -42 107 -49 205 -46 93 3 99 4 96 23 -6 31 -20 35 -116 35 -49 0 -104 5 -122 12 -34 12 -52 47 -31 60 7 4 65 8 129 8 121 0 149 9 112 37 -15 12 -43 14 -126 10 -78 -3 -112 -1 -125 8 -17 13 -17 14 2 35 35 40 72 49 176 43 72 -4 98 -2 104 7 16 26 -23 38 -123 38 -53 0 -106 -3 -118 -6z"/>
 </g>

</svg>