<!DOCTYPE svg PUBLIC "-//W3C//DTD SVG 20010904//EN" "http://www.w3.org/TR/2001/REC-SVG-20010904/DTD/svg10.dtd">
<svg version="1.0" xmlns="http://www.w3.org/2000/svg" width="826px" height="418px" viewBox="0 0 8260 4180" preserveAspectRatio="xMidYMid meet">
<g id="layer101" fill="#0b0b0b" stroke="none">
 <path d="M1486 3612 c-3 -5 -22 -13 -41 -16 -19 -4 -35 -11 -35 -16 0 -5 -10 -12 -22 -15 -33 -11 -94 -82 -104 -120 -3 -14 -10 -25 -14 -25 -10 0 -30 -89 -30 -133 0 -18 -4 -37 -10 -43 -5 -5 -13 -99 -17 -207 -3 -108 -9 -197 -13 -197 -4 0 -21 7 -36 15 -34 18 -168 20 -229 4 -22 -6 -56 -14 -75 -18 -53 -13 -110 -40 -116 -56 -4 -10 -17 -5 -51 21 -40 30 -51 34 -107 34 -77 0 -111 -21 -201 -123 -14 -15 -25 -34 -25 -42 0 -7 -4 -15 -9 -17 -11 -4 -71 -117 -71 -134 0 -8 -4 -14 -9 -14 -5 0 -14 -22 -21 -50 -7 -27 -16 -50 -20 -50 -5 0 -11 -18 -15 -40 -4 -22 -11 -40 -15 -40 -5 0 -15 -27 -22 -60 -6 -33 -15 -60 -19 -60 -4 0 -12 -29 -19 -65 -7 -36 -16 -67 -20 -70 -4 -3 -13 -41 -21 -85 -7 -44 -16 -80 -19 -80 -4 0 -13 -40 -20 -90 -7 -49 -16 -90 -20 -90 -17 0 -40 -252 -40 -435 0 -183 20 -365 41 -365 4 0 10 -13 14 -30 4 -16 12 -33 19 -37 7 -5 18 -22 25 -40 7 -17 32 -50 54 -73 62 -62 73 -70 85 -70 7 0 12 -4 12 -9 0 -5 11 -12 25 -15 14 -4 25 -11 25 -16 0 -5 17 -12 38 -16 20 -4 40 -12 44 -18 10 -15 450 -15 469 0 8 6 37 15 64 19 28 4 55 10 60 15 25 20 70 20 100 0 17 -11 38 -20 47 -20 9 0 18 -5 20 -10 2 -6 29 -14 61 -17 32 -3 60 -10 63 -14 7 -13 188 -11 200 1 15 15 159 16 177 2 8 -7 42 -15 76 -18 33 -4 61 -11 61 -15 0 -12 317 -12 324 0 3 5 31 12 61 16 30 3 55 10 55 15 0 4 18 11 40 15 22 4 40 11 40 15 0 5 14 11 30 15 17 4 30 11 30 16 0 5 6 9 13 9 14 0 44 21 88 62 16 16 32 28 36 28 24 0 143 157 143 188 0 11 6 22 13 25 17 6 17 429 -1 435 -6 2 -12 16 -12 31 0 35 -19 140 -30 166 -5 11 -14 45 -21 75 -6 30 -15 60 -19 65 -3 6 -13 36 -20 68 -7 31 -17 57 -21 57 -4 0 -10 18 -14 39 -3 22 -13 47 -20 58 -8 10 -15 25 -15 33 0 8 -12 38 -25 65 -14 28 -25 56 -25 63 0 6 -4 12 -8 12 -5 0 -15 19 -22 43 -7 23 -15 44 -19 47 -8 7 -51 93 -51 104 0 4 19 5 43 2 225 -35 278 -31 297 18 5 13 14 27 19 31 17 10 13 68 -9 110 -11 22 -20 45 -20 52 0 7 -4 13 -8 13 -5 0 -14 11 -20 25 -30 66 -113 130 -211 164 -49 17 -91 22 -177 24 -106 2 -114 3 -115 22 0 11 -4 54 -9 95 -5 41 -16 134 -24 205 -8 72 -19 144 -25 160 -5 17 -13 47 -17 68 -13 73 -98 206 -131 207 -7 0 -13 4 -13 9 0 11 -75 51 -95 51 -8 0 -15 4 -15 9 0 24 -300 56 -314 33z"/>
 <path d="M4793 2593 c-13 -2 -23 -8 -23 -13 0 -5 -8 -11 -18 -14 -24 -8 -62 -84 -62 -125 0 -32 1 -32 43 -29 35 3 43 7 45 26 5 31 41 72 64 72 10 0 18 5 18 10 0 12 107 13 114 1 3 -4 18 -11 33 -14 38 -7 63 -54 70 -125 2 -31 1 -52 -4 -46 -4 6 -26 20 -48 30 -48 23 -215 28 -223 7 -2 -7 -10 -13 -18 -13 -30 0 -83 -65 -95 -116 -6 -27 -15 -57 -20 -66 -12 -24 -11 -108 1 -108 6 0 10 -11 10 -24 0 -59 64 -156 104 -156 8 0 16 -6 19 -12 2 -9 32 -13 103 -13 82 0 104 3 129 20 17 11 33 24 37 30 4 5 8 -2 8 -17 0 -26 3 -28 40 -28 l40 0 0 298 c0 334 -1 338 -73 396 -38 30 -41 31 -155 33 -65 0 -127 -1 -139 -4z m205 -307 c40 -22 61 -51 74 -107 22 -93 -22 -219 -75 -219 -9 0 -19 -4 -22 -10 -10 -16 -91 -11 -126 8 -52 28 -70 50 -81 105 -16 77 -3 155 32 194 15 17 36 33 47 36 40 10 125 6 151 -7z"/>
 <path d="M7484 2476 c-54 -51 -104 -73 -104 -47 0 6 -21 13 -47 16 -27 3 -56 10 -65 16 -22 11 -155 12 -162 0 -3 -4 -28 -11 -56 -14 -28 -3 -57 -13 -66 -22 -8 -8 -22 -15 -30 -15 -8 0 -14 -4 -14 -10 0 -5 -6 -10 -13 -10 -7 0 -20 -8 -28 -17 -9 -10 -26 -25 -37 -33 -12 -8 -22 -19 -22 -25 0 -6 -9 -21 -19 -32 -11 -11 -25 -39 -32 -62 -7 -22 -16 -41 -20 -41 -4 0 -10 -10 -12 -22 -2 -13 -5 7 -6 45 0 37 -5 67 -11 67 -5 0 -10 9 -10 21 0 65 -89 139 -195 161 -93 20 -314 5 -323 -22 -2 -6 -9 -10 -16 -10 -17 0 -96 -59 -96 -72 0 -5 -9 -21 -20 -35 -11 -14 -20 -38 -20 -52 0 -15 -5 -32 -11 -38 -5 -5 -9 -32 -7 -59 l3 -49 52 -3 c50 -3 53 -2 59 25 26 119 56 173 105 188 13 4 30 12 37 18 19 15 221 15 230 0 4 -6 19 -14 34 -18 17 -4 32 -18 40 -36 7 -16 16 -29 20 -29 5 0 8 -31 8 -70 0 -40 -4 -70 -10 -70 -5 0 -10 -7 -10 -16 0 -9 -9 -18 -20 -21 -11 -3 -20 -9 -20 -13 0 -5 -18 -11 -40 -15 -22 -4 -42 -10 -45 -15 -3 -4 -32 -11 -65 -15 -33 -4 -60 -10 -60 -15 0 -4 -23 -10 -51 -13 -28 -4 -56 -10 -63 -15 -6 -6 -26 -13 -43 -17 -18 -3 -33 -11 -33 -16 0 -5 -6 -9 -13 -9 -16 0 -46 -35 -69 -80 -27 -52 -25 -186 4 -241 24 -47 60 -89 76 -89 6 0 12 -5 14 -10 2 -6 27 -13 56 -17 28 -3 52 -10 52 -14 0 -5 47 -9 105 -9 63 0 105 4 105 10 0 6 13 10 29 10 16 0 36 6 43 14 8 7 24 17 37 21 53 17 99 92 112 184 11 73 6 81 -51 81 -48 0 -54 -7 -67 -72 -10 -50 -40 -98 -60 -98 -3 0 -14 -7 -23 -15 -21 -19 -128 -30 -203 -21 -44 6 -64 14 -94 42 -36 33 -38 38 -38 97 0 79 29 123 88 133 20 4 37 10 37 14 0 5 27 11 60 15 33 4 60 10 60 15 0 4 27 10 60 14 33 4 62 11 65 15 2 5 21 12 41 16 39 7 46 12 99 64 20 20 35 44 35 58 0 12 5 23 11 23 6 0 8 -11 5 -27 -16 -83 -16 -109 -2 -201 9 -55 23 -113 31 -128 8 -16 15 -35 15 -42 0 -7 7 -15 15 -18 8 -4 15 -13 15 -21 0 -21 106 -122 136 -129 13 -3 24 -10 24 -14 0 -5 20 -12 45 -16 25 -3 48 -10 51 -15 7 -12 214 -12 214 0 0 5 20 12 45 15 25 4 45 11 45 16 0 4 10 11 23 14 25 7 117 88 117 103 0 5 9 18 19 27 11 10 22 29 26 44 4 15 11 29 16 32 27 17 41 306 20 401 -11 49 -50 131 -79 168 l-20 24 46 44 c26 23 50 43 54 43 21 0 5 49 -26 79 l-33 32 -59 -55z m-194 -135 c3 -5 20 -12 38 -16 17 -3 32 -11 32 -16 0 -5 8 -13 17 -16 20 -8 63 -52 63 -64 0 -4 7 -15 16 -23 9 -9 21 -43 27 -76 6 -33 15 -60 19 -60 5 0 8 -43 8 -95 0 -52 -3 -95 -8 -95 -4 0 -12 -27 -19 -59 -6 -34 -20 -69 -32 -82 -12 -13 -21 -26 -21 -31 0 -11 -38 -48 -50 -48 -5 0 -13 -6 -17 -12 -4 -7 -26 -22 -47 -33 -58 -29 -213 -29 -276 2 -73 34 -147 119 -165 188 -31 123 -22 297 21 378 33 65 65 106 82 106 7 1 15 8 18 16 3 8 21 17 40 21 19 3 34 10 34 14 0 5 15 11 33 13 45 7 180 -2 187 -12z"/>
 <path d="M7647 2433 c-4 -3 -7 -212 -7 -463 l0 -457 50 -7 c28 -4 55 -4 60 -1 6 4 10 163 10 416 l0 409 250 0 250 0 0 55 0 55 -303 0 c-167 0 -307 -3 -310 -7z"/>
 <path d="M3625 2413 c-37 -5 -95 -31 -95 -42 0 -5 -8 -11 -18 -13 -9 -3 -26 -22 -37 -44 -11 -21 -24 -42 -30 -46 -5 -4 -12 -53 -13 -109 -4 -112 11 -174 55 -218 12 -13 23 -27 23 -31 0 -4 12 -11 27 -15 15 -3 31 -12 35 -18 5 -8 40 -12 101 -12 74 0 102 4 132 20 95 49 129 125 123 276 -2 55 -8 103 -14 107 -6 4 -16 21 -23 39 -12 30 -75 83 -98 83 -6 0 -13 4 -15 9 -4 10 -110 20 -153 14z m141 -107 c8 -9 19 -16 23 -16 4 0 14 -12 22 -27 8 -16 18 -31 22 -34 4 -3 8 -40 8 -82 1 -103 -30 -174 -79 -183 -18 -4 -35 -10 -38 -15 -8 -13 -78 -11 -105 4 -78 41 -105 91 -103 196 1 46 6 77 13 79 6 2 11 10 11 17 0 18 54 68 82 77 36 11 126 1 144 -16z"/>
 <path d="M4123 2413 c-29 -2 -53 -8 -53 -14 0 -5 -9 -9 -20 -9 -11 0 -28 -10 -38 -21 -9 -12 -23 -28 -31 -36 -8 -8 -17 -39 -19 -69 l-4 -54 40 0 c40 0 52 11 52 49 0 10 12 28 27 41 22 19 41 24 103 27 86 4 120 -8 134 -49 12 -35 -6 -78 -34 -78 -11 0 -20 -4 -20 -9 0 -5 -34 -12 -75 -16 -41 -4 -75 -10 -75 -15 0 -4 -21 -10 -47 -13 -27 -3 -50 -11 -55 -20 -5 -9 -15 -23 -23 -31 -17 -16 -22 -146 -6 -146 5 0 12 -11 15 -25 4 -14 14 -29 24 -32 9 -4 20 -11 24 -17 11 -16 260 -15 265 2 3 6 9 12 15 12 6 0 22 12 36 28 19 20 27 41 30 80 l4 52 -40 0 c-35 0 -41 -3 -47 -27 -3 -16 -18 -40 -33 -55 -23 -25 -33 -28 -90 -28 -54 0 -71 4 -99 26 -61 47 -30 102 63 111 30 3 54 9 54 13 0 4 29 10 65 13 44 4 74 13 94 28 30 22 61 82 61 118 0 27 -29 93 -49 112 -44 41 -131 59 -248 52z"/>
 <path d="M5678 2413 c-21 -2 -38 -8 -38 -14 0 -5 -7 -9 -15 -9 -21 0 -93 -67 -101 -93 -4 -12 -11 -25 -16 -28 -26 -17 -25 -268 1 -277 6 -2 11 -9 11 -16 0 -19 52 -69 95 -91 31 -16 58 -20 134 -20 66 0 96 4 99 13 2 6 9 12 15 12 7 1 29 18 49 38 44 44 78 130 78 197 l0 45 -210 0 -210 0 6 28 c7 29 36 74 69 107 17 17 33 20 97 20 72 0 77 -2 100 -29 12 -16 30 -43 38 -60 12 -25 22 -32 52 -34 28 -2 38 1 42 16 14 44 -53 141 -123 175 -37 19 -113 27 -173 20z m222 -333 c0 -11 -4 -20 -9 -20 -5 0 -12 -11 -15 -25 -13 -53 -75 -95 -139 -95 -81 0 -141 51 -160 138 l-5 22 164 0 c157 0 164 -1 164 -20z"/>
 <path d="M4570 2400 c0 -5 -6 -10 -13 -10 -7 0 -21 -10 -32 -22 -18 -21 -20 -41 -23 -215 l-3 -192 -37 -3 c-36 -3 -37 -4 -37 -43 0 -39 1 -40 38 -43 l37 -3 0 -80 0 -79 45 0 45 0 0 80 0 80 50 0 50 0 0 45 0 45 -50 0 -50 0 0 168 c0 117 4 172 12 180 7 7 29 12 51 12 l38 0 -3 43 -3 42 -57 3 c-36 2 -58 -1 -58 -8z"/>
 <path d="M2880 2010 l0 -390 213 0 214 0 40 29 c22 16 50 45 62 65 21 33 22 47 19 142 -2 62 -7 108 -14 112 -6 4 -14 17 -18 29 -4 12 -16 25 -27 28 -10 4 -19 10 -19 15 0 5 -16 12 -35 16 -19 3 -35 10 -35 15 0 5 -67 9 -150 9 l-150 0 0 154 c0 151 0 154 -22 160 -13 3 -35 6 -50 6 l-28 0 0 -390z m414 -53 c14 -15 26 -35 26 -43 0 -7 5 -14 10 -14 6 0 10 -25 10 -55 0 -30 -4 -55 -9 -55 -5 0 -12 -11 -15 -25 -11 -44 -51 -55 -201 -55 l-135 0 0 141 0 141 144 -4 c143 -3 144 -3 170 -31z"/>
 <path d="M5230 2130 l0 -260 40 0 c29 0 40 4 40 15 0 20 15 19 35 -2 11 -11 40 -18 91 -21 l75 -5 -3 49 -3 49 -61 3 c-48 2 -66 8 -81 25 -38 42 -53 116 -53 266 l0 141 -40 0 -40 0 0 -260z"/>
 </g>
<g id="layer102" fill="#316192" stroke="none">
 <path d="M1560 3520 c-99 -12 -189 -95 -224 -207 -25 -81 -35 -207 -36 -425 0 -112 -4 -188 -9 -188 -6 0 -30 13 -54 30 -65 44 -160 63 -243 50 -125 -20 -184 -58 -184 -120 0 -57 36 -81 180 -120 31 -8 59 -27 89 -58 l44 -45 -52 -14 c-29 -7 -61 -17 -71 -23 -10 -5 -23 -10 -28 -10 -6 0 -64 68 -131 151 -66 83 -132 160 -147 171 -17 14 -46 23 -80 26 -63 5 -102 -15 -163 -84 -37 -43 -141 -238 -141 -267 0 -7 -4 -17 -9 -22 -18 -20 -113 -344 -147 -499 -68 -319 -69 -321 -69 -536 0 -190 2 -211 24 -280 52 -161 123 -251 241 -308 165 -78 370 -72 677 19 44 14 49 12 121 -31 60 -36 163 -53 281 -45 168 10 201 9 291 -13 61 -15 118 -21 205 -21 232 -1 388 60 533 206 111 112 117 130 117 348 0 153 -4 195 -23 280 -38 162 -108 388 -149 485 -64 146 -102 226 -153 320 -39 70 -40 75 -23 88 18 14 114 12 271 -4 56 -6 65 -4 83 14 36 39 19 86 -54 153 -41 38 -141 93 -192 105 -16 4 -84 9 -149 13 -141 7 -127 -10 -146 183 -27 293 -60 452 -107 526 -66 101 -232 169 -373 152z"/>
 <path d="M7484 2475 c-54 -50 -104 -72 -104 -46 0 6 -21 13 -47 16 -27 4 -57 11 -69 17 -22 10 -118 6 -196 -9 -48 -10 -120 -41 -126 -55 -2 -5 -9 -8 -15 -8 -11 0 -69 -57 -109 -108 -9 -11 -22 -39 -29 -61 -7 -23 -16 -41 -20 -41 -4 0 -10 -10 -12 -22 -2 -13 -5 7 -6 45 0 37 -5 67 -11 67 -5 0 -10 9 -10 21 0 65 -89 139 -195 161 -93 20 -314 5 -323 -22 -2 -6 -9 -10 -16 -10 -18 0 -96 -62 -96 -76 0 -6 -7 -17 -15 -24 -8 -7 -17 -28 -21 -49 -4 -20 -11 -41 -16 -48 -5 -6 -8 -33 -6 -60 l3 -48 52 -3 c50 -3 53 -2 58 25 23 111 58 173 106 188 13 4 30 12 38 19 8 6 55 11 110 11 111 0 172 -21 193 -67 7 -16 16 -28 20 -28 5 0 8 -31 8 -70 0 -40 -4 -70 -10 -70 -5 0 -10 -6 -10 -14 0 -18 -42 -45 -83 -53 -17 -3 -36 -9 -42 -13 -5 -5 -36 -11 -67 -15 -32 -4 -58 -11 -58 -15 0 -4 -25 -11 -55 -15 -30 -3 -57 -10 -60 -15 -3 -4 -21 -11 -40 -14 -19 -4 -35 -11 -35 -16 0 -6 -6 -10 -13 -10 -17 0 -48 -37 -69 -84 -26 -57 -24 -176 3 -234 12 -24 31 -54 43 -66 28 -30 87 -56 125 -56 17 0 31 -4 31 -10 0 -12 197 -14 204 -1 3 4 24 11 46 15 22 3 40 10 40 15 0 5 12 12 26 15 55 14 108 104 117 199 6 61 8 59 -53 59 -16 0 -36 -1 -43 -1 -7 -1 -17 -26 -24 -60 -16 -87 -66 -128 -167 -138 -104 -9 -168 3 -212 41 -37 32 -39 36 -39 98 0 80 28 123 88 134 20 4 37 10 37 14 0 5 27 11 60 15 33 4 60 10 60 15 0 4 27 10 60 14 33 4 62 11 65 15 2 5 21 12 41 16 39 7 46 12 99 64 20 20 35 44 35 58 0 12 4 23 8 23 4 0 6 -42 4 -93 -5 -103 10 -219 33 -263 8 -16 15 -35 15 -42 0 -7 7 -15 15 -18 8 -4 15 -13 15 -21 0 -21 106 -122 136 -129 13 -3 24 -10 24 -14 0 -5 20 -12 45 -16 25 -3 48 -10 51 -15 3 -5 50 -9 104 -9 54 0 101 4 104 9 3 5 26 12 51 15 25 4 45 11 45 17 0 5 5 9 11 9 21 0 129 90 129 108 0 5 9 17 19 26 11 10 23 31 26 47 4 16 10 29 14 29 27 0 43 306 22 402 -12 51 -54 136 -83 168 l-19 21 56 53 c64 59 65 73 17 119 l-28 27 -60 -55z m-194 -134 c3 -5 20 -12 38 -16 17 -3 32 -11 32 -16 0 -5 8 -13 17 -16 20 -8 63 -52 63 -64 0 -4 7 -15 16 -23 9 -9 21 -43 27 -76 6 -33 15 -60 19 -60 5 0 8 -43 8 -95 0 -52 -3 -95 -8 -95 -4 0 -12 -27 -19 -59 -6 -34 -20 -69 -32 -82 -12 -13 -21 -27 -21 -31 0 -5 -12 -20 -27 -33 -77 -68 -111 -80 -227 -80 -83 1 -108 4 -141 22 -50 26 -104 77 -131 124 -62 105 -66 332 -8 444 33 63 65 104 82 104 7 1 15 8 18 16 3 8 21 17 40 21 19 3 34 10 34 14 0 5 15 11 33 13 45 7 180 -2 187 -12z"/>
 <path d="M7647 2433 c-4 -3 -7 -210 -7 -460 0 -354 3 -455 13 -458 6 -3 32 -6 57 -7 l45 -3 3 413 2 412 250 0 250 0 0 55 0 55 -303 0 c-167 0 -307 -3 -310 -7z"/>
 </g>
<g id="layer103" fill="#f9fafb" stroke="none">
 <path d="M1560 3520 c-99 -12 -189 -95 -224 -207 -25 -81 -35 -207 -36 -425 0 -112 -4 -188 -9 -188 -6 0 -30 13 -54 30 -65 44 -160 63 -243 50 -125 -20 -184 -58 -184 -120 0 -57 36 -81 180 -120 31 -8 59 -27 89 -58 l44 -45 -52 -14 c-29 -7 -61 -17 -71 -23 -10 -5 -23 -10 -28 -10 -6 0 -64 68 -131 151 -66 83 -132 160 -147 171 -17 14 -46 23 -80 26 -63 5 -102 -15 -163 -84 -37 -43 -141 -238 -141 -267 0 -7 -4 -17 -9 -22 -18 -20 -113 -344 -147 -499 -68 -319 -69 -321 -69 -536 0 -190 2 -211 24 -280 52 -161 123 -251 241 -308 165 -78 370 -72 677 19 44 14 49 12 121 -31 60 -36 163 -53 281 -45 168 10 201 9 291 -13 61 -15 118 -21 205 -21 232 -1 388 60 533 206 111 112 117 130 117 348 0 153 -4 195 -23 280 -38 162 -108 388 -149 485 -64 146 -102 226 -153 320 -39 70 -40 75 -23 88 18 14 114 12 271 -4 56 -6 65 -4 83 14 36 39 19 86 -54 153 -41 38 -141 93 -192 105 -16 4 -84 9 -149 13 -141 7 -127 -10 -146 183 -27 293 -60 452 -107 526 -66 101 -232 169 -373 152z m182 -107 c104 -40 168 -132 182 -258 4 -33 11 -82 17 -110 10 -50 32 -262 50 -474 10 -126 28 -170 80 -196 16 -9 29 -18 29 -21 0 -3 -16 -30 -35 -60 -19 -30 -35 -57 -35 -59 0 -3 -21 -47 -46 -98 -69 -139 -123 -263 -152 -347 -21 -61 -25 -95 -26 -185 -1 -99 1 -114 23 -148 39 -64 89 -88 195 -96 87 -6 91 -7 89 -29 -4 -31 -73 -167 -118 -233 -41 -59 -137 -158 -200 -205 -156 -118 -410 -164 -572 -105 -114 41 -193 117 -270 258 -33 60 -93 289 -93 356 0 40 6 44 36 22 10 -8 50 -24 87 -36 139 -43 248 -10 297 91 26 53 50 187 57 320 6 108 -17 238 -62 350 -43 107 -73 200 -67 204 4 2 23 6 43 10 42 7 91 56 108 105 7 21 11 111 11 230 0 108 5 275 10 370 10 169 12 177 45 247 33 68 62 99 110 116 32 11 160 0 207 -19z m-607 -730 c53 -18 59 -21 109 -70 51 -51 61 -76 46 -113 -7 -17 -23 -38 -36 -46 -28 -19 -49 -7 -84 43 -32 47 -100 113 -116 113 -7 0 -33 6 -56 14 -24 8 -55 17 -70 20 -41 9 -34 23 20 39 64 20 129 20 187 0z m-450 -80 c25 -26 45 -50 45 -54 0 -3 8 -15 18 -27 9 -11 28 -35 42 -52 14 -18 40 -48 58 -68 54 -61 55 -65 20 -108 -17 -22 -45 -68 -62 -104 l-31 -65 2 -365 c3 -321 5 -378 24 -475 11 -60 24 -119 28 -130 5 -11 18 -47 31 -80 24 -64 90 -184 116 -209 21 -21 11 -34 -34 -42 -20 -4 -41 -10 -47 -14 -39 -30 -348 -46 -430 -22 -147 42 -248 153 -291 322 -19 75 -23 350 -6 435 6 28 20 97 31 155 12 58 30 143 41 190 12 47 27 112 35 145 8 33 21 78 29 100 8 22 15 47 16 55 0 8 6 27 14 42 8 15 17 41 21 59 4 19 11 40 16 49 4 8 20 44 36 80 33 79 86 163 125 202 22 21 38 28 68 28 34 0 46 -7 85 -47z m1623 -43 c55 -12 172 -74 172 -91 0 -6 -22 -7 -62 -2 -99 13 -185 6 -233 -18 -42 -21 -44 -21 -73 -3 -47 27 -59 102 -19 122 25 13 135 9 215 -8z m-1163 -277 c9 -32 32 -96 50 -143 57 -147 67 -204 62 -337 -7 -200 -31 -296 -83 -329 -58 -38 -201 -10 -297 58 l-29 21 6 96 c4 53 2 155 -3 226 -14 202 7 289 87 378 40 43 121 87 163 87 23 0 28 -7 44 -57z m1094 -150 c34 -68 61 -126 61 -130 1 -5 9 -26 20 -48 11 -22 19 -44 20 -48 0 -5 6 -23 14 -40 19 -42 58 -163 83 -257 56 -210 58 -219 58 -400 l0 -175 -30 -40 c-53 -71 -86 -104 -144 -142 -31 -21 -57 -41 -59 -45 -2 -5 -9 -8 -15 -8 -7 0 -25 -7 -41 -15 -76 -40 -246 -62 -372 -49 -48 5 -89 14 -91 20 -2 6 9 17 24 25 147 75 310 265 396 465 44 103 51 153 38 283 -7 67 -11 223 -9 371 3 247 2 257 -19 304 -13 27 -23 56 -23 64 0 31 27 -10 89 -135z m-123 -15 c5 -29 6 -98 4 -153 -6 -136 -6 -354 0 -445 l5 -75 -67 -3 c-76 -3 -129 16 -160 59 -29 39 -26 162 6 259 47 142 173 410 193 410 6 0 15 -24 19 -52z"/>
 <path d="M1094 1588 c-12 -5 -28 -21 -35 -34 -11 -21 -10 -26 7 -39 23 -18 48 -19 91 -3 43 16 47 58 8 76 -31 14 -43 14 -71 0z"/>
 <path d="M1945 1540 c-14 -15 -15 -23 -6 -34 16 -19 77 -29 101 -16 25 13 25 21 0 48 -26 27 -71 28 -95 2z"/>
 </g>

</svg>