<!DOCTYPE svg PUBLIC "-//W3C//DTD SVG 20010904//EN" "http://www.w3.org/TR/2001/REC-SVG-20010904/DTD/svg10.dtd">
<svg version="1.0" xmlns="http://www.w3.org/2000/svg" width="780px" height="336px" viewBox="0 0 7800 3360" preserveAspectRatio="xMidYMid meet">
<g id="layer101" fill="#171516" stroke="none">
 <path d="M0 1680 l0 -1680 3900 0 3900 0 0 1680 0 1680 -3900 0 -3900 0 0 -1680z"/>
 </g>
<g id="layer102" fill="#221f20" stroke="none">
 <path d="M0 1680 l0 -1680 3900 0 3900 0 0 1680 0 1680 -3757 -3 c-2067 -1 -3766 -5 -3775 -8 -31 -9 -34 -21 -3 -15 26 5 34 2 58 -29 17 -22 26 -43 23 -52 -5 -13 -4 -14 9 -3 9 7 16 11 18 9 22 -39 27 -51 22 -60 -4 -5 -3 -9 2 -8 21 4 33 -2 33 -17 0 -8 -5 -12 -11 -8 -8 4 -8 1 -1 -12 5 -11 7 -25 4 -33 -3 -9 0 -11 7 -7 7 4 9 16 6 27 -8 26 2 24 16 -2 9 -17 8 -24 -2 -31 -11 -8 -10 -9 3 -5 9 3 22 -2 30 -11 11 -13 11 -14 -1 -7 -10 5 -12 4 -7 -4 4 -6 3 -17 -2 -24 -7 -8 -4 -19 9 -36 13 -16 19 -19 19 -8 0 8 -7 18 -16 21 -14 5 -14 9 -3 22 11 14 14 12 26 -11 8 -14 11 -30 8 -35 -4 -6 -2 -9 3 -8 6 2 23 -22 39 -52 16 -30 35 -64 41 -75 6 -11 23 -54 37 -95 14 -41 30 -83 35 -92 6 -10 7 -25 3 -34 -4 -11 -2 -15 4 -11 9 6 19 -21 29 -78 6 -39 18 -76 24 -80 5 -3 6 -14 3 -24 -3 -10 0 -22 5 -25 6 -3 8 -15 5 -26 -3 -11 -1 -26 3 -33 5 -6 9 -56 9 -109 0 -54 3 -98 6 -98 10 0 24 -150 34 -365 2 -44 6 -143 10 -220 19 -366 29 -1033 16 -1048 -7 -9 -4 -26 10 -57 11 -25 18 -55 16 -67 -2 -12 -1 -20 4 -18 4 3 10 1 13 -4 4 -5 2 -12 -4 -16 -5 -3 -10 -18 -10 -32 0 -16 -14 -39 -39 -64 -38 -39 -61 -49 -61 -28 0 6 -8 3 -17 -6 -13 -13 -27 -16 -62 -11 -25 3 -48 11 -49 16 -2 6 -7 8 -11 5 -5 -2 -17 3 -27 11 -16 13 -16 15 -2 10 10 -3 20 0 24 6 4 7 3 8 -4 4 -7 -4 -17 3 -24 18 -6 14 -16 26 -21 26 -5 0 -4 -7 3 -15 7 -9 10 -18 7 -21 -7 -7 -29 33 -34 61 -2 11 -3 40 -2 65 3 62 -1 993 -4 1225 -2 105 -7 198 -12 208 -4 10 -5 63 -1 118 4 55 4 104 0 110 -3 6 -8 41 -9 78 -1 36 -5 89 -9 116 -4 34 -3 44 3 30 8 -17 10 -17 10 -3 1 10 -7 22 -17 27 -15 8 -18 22 -18 69 1 33 -2 56 -5 50 -4 -5 -9 -3 -12 5 -3 8 0 20 6 26 8 8 8 11 -2 11 -10 0 -12 10 -8 38 5 25 3 32 -3 22 -9 -13 -10 -13 -11 0 -1 8 -1 18 0 22 0 4 -6 38 -15 75 -9 38 -18 78 -19 91 -2 13 -9 29 -15 37 -6 8 -9 18 -6 24 3 5 1 11 -6 13 -6 2 -11 18 -11 36 0 18 -3 30 -6 27 -8 -8 -51 118 -46 133 3 8 0 10 -7 6 -7 -5 -9 0 -6 14 4 16 2 19 -10 15 -12 -5 -14 -1 -10 15 4 14 2 20 -4 16 -6 -4 -8 2 -3 17 5 18 4 20 -4 9 -8 -12 -11 -11 -16 5 -4 11 -13 32 -21 48 -8 15 -12 32 -8 39 4 7 3 8 -4 4 -11 -7 -16 8 -15 42 1 7 -5 11 -12 8 -7 -2 -16 2 -19 10 -3 8 -2 13 3 9 5 -3 12 1 14 7 4 9 11 6 24 -10 l19 -23 -1 23 c0 38 -14 51 -32 33 -24 -25 -47 -14 -57 28 l-10 37 -68 0 -68 0 0 -1680z m230 1600 c0 -5 -2 -10 -4 -10 -3 0 -8 5 -11 10 -3 6 -1 10 4 10 6 0 11 -4 11 -10z m1407 -837 c11 -4 14 -3 9 5 -9 15 -5 15 29 2 14 -5 24 -14 21 -19 -8 -12 20 -34 33 -27 5 4 12 2 16 -4 6 -10 0 -12 -37 -14 -29 -2 -25 -21 4 -21 15 -1 24 3 21 9 -4 5 1 7 10 3 10 -3 17 -2 17 3 0 13 1079 13 1099 1 9 -6 10 -10 2 -16 -7 -4 -19 -1 -27 6 -8 6 -17 9 -21 5 -3 -3 -1 -6 5 -6 6 0 9 -9 7 -21 -3 -17 -2 -19 10 -9 8 6 19 9 26 5 8 -6 7 -10 -2 -16 -8 -5 -9 -9 -4 -9 6 0 17 5 25 10 13 8 13 10 0 10 -11 0 -11 3 -2 12 9 9 15 8 27 -8 8 -10 15 -25 15 -31 0 -7 5 -13 10 -13 6 0 4 -14 -5 -32 -14 -29 -14 -31 0 -14 14 19 15 17 13 -21 -1 -23 -9 -51 -20 -64 -11 -13 -16 -18 -12 -10 4 9 3 12 -4 7 -6 -4 -9 -13 -6 -20 9 -23 -25 -27 -43 -6 -10 11 -21 20 -26 20 -4 0 1 -10 13 -22 14 -15 17 -24 8 -29 -20 -13 -107 -8 -122 6 -7 8 -16 12 -18 10 -3 -3 -5 1 -5 9 0 9 7 12 16 9 13 -5 14 -4 3 8 -11 12 -15 11 -27 -4 -8 -12 -15 -14 -20 -8 -3 6 -1 11 4 11 6 0 11 4 11 10 0 5 -8 6 -17 3 -13 -5 -15 -2 -10 11 4 9 3 15 -2 11 -5 -3 -11 -1 -13 5 -2 6 -168 10 -443 12 l-440 3 3 -894 c2 -491 0 -900 -4 -910 -4 -9 -8 -24 -9 -34 -1 -11 -8 -23 -16 -28 -12 -8 -12 -10 1 -19 13 -9 7 -14 -12 -11 -4 0 -5 -6 -2 -14 14 -36 -99 -69 -159 -46 -32 13 -69 52 -63 68 3 6 1 13 -4 15 -6 2 -10 399 -10 1023 0 940 1 1021 16 1032 9 7 21 10 25 7 5 -3 6 2 3 11 -4 9 -11 12 -18 8 -7 -5 -1 2 13 14 36 31 61 35 108 16z m1931 9 c7 -1 17 -13 22 -27 5 -14 15 -25 21 -25 8 0 8 5 -1 18 -7 9 2 1 19 -18 22 -24 31 -42 28 -58 -2 -12 0 -25 5 -28 5 -3 8 -173 8 -391 -1 -212 1 -387 4 -390 3 -3 13 0 22 7 13 11 19 11 36 1 15 -9 23 -10 31 -2 15 15 1023 15 1032 1 4 -7 13 -7 24 0 12 6 22 5 29 -2 9 -9 16 -8 29 4 27 23 49 28 64 15 11 -10 11 -9 0 5 -7 10 -18 15 -25 12 -6 -3 -2 2 8 10 17 14 82 22 126 16 8 -1 27 -13 42 -28 21 -20 25 -28 16 -39 -8 -11 -7 -12 6 -7 10 4 16 1 16 -9 0 -9 3 -23 7 -33 3 -10 2 -15 -3 -12 -5 4 -7 -213 -4 -550 3 -307 4 -568 2 -582 -2 -14 -16 -40 -31 -59 -23 -28 -36 -34 -80 -39 -52 -5 -131 19 -131 40 0 5 4 6 10 3 5 -3 17 -2 26 3 11 6 13 11 5 16 -6 4 -11 2 -11 -3 0 -6 -5 -11 -11 -11 -6 0 -9 6 -6 13 3 8 -1 14 -9 14 -7 0 -11 -4 -8 -8 2 -4 -276 -8 -618 -9 -606 -1 -623 -1 -643 -20 -12 -11 -25 -17 -29 -13 -4 4 -4 1 -1 -8 4 -12 -7 -15 -59 -17 -64 -3 -112 10 -101 28 4 6 -2 7 -12 3 -10 -3 -15 -3 -11 2 4 4 1 14 -7 22 -8 8 -15 23 -15 33 0 10 -4 22 -10 25 -7 4 -10 343 -10 985 0 642 3 981 10 985 6 3 10 14 10 24 0 30 29 78 53 86 12 5 31 11 42 14 17 6 47 7 83 3z m2928 -16 c6 -9 13 -13 16 -10 11 10 48 -49 48 -77 0 -15 5 -31 10 -34 13 -8 14 -1751 1 -1760 -7 -4 -8 -46 -2 -74 1 -2 7 1 14 8 8 6 23 9 35 6 12 -2 24 0 27 6 7 11 458 13 469 2 4 -4 23 -6 42 -4 19 1 34 -1 33 -6 -3 -20 2 -27 11 -13 6 10 10 11 10 3 0 -7 7 -13 15 -13 13 0 64 -48 58 -53 -1 -1 2 -20 7 -42 11 -48 -11 -95 -35 -75 -9 8 -14 6 -19 -6 -3 -9 -3 -20 0 -25 3 -6 1 -15 -4 -22 -6 -7 -10 -16 -10 -22 0 -5 -6 -11 -14 -13 -9 -2 -8 0 2 7 11 8 11 11 2 11 -7 0 -15 -7 -19 -16 -3 -9 -13 -14 -24 -11 -11 3 -21 1 -24 -4 -7 -10 -72 18 -103 45 -12 11 -20 26 -17 34 2 7 1 11 -4 8 -5 -3 -12 1 -15 10 -3 8 -2 12 3 9 5 -3 12 -1 15 4 7 10 -20 9 -30 -2 -4 -4 -310 -7 -681 -7 -709 0 -760 3 -749 43 2 10 0 14 -7 10 -6 -4 -8 2 -5 15 4 12 2 20 -3 16 -5 -3 -9 4 -9 15 0 11 5 23 11 26 6 4 8 13 5 20 -2 7 3 20 12 28 23 19 62 28 62 14 0 -7 5 -4 11 5 9 16 33 18 279 18 177 0 271 -4 275 -10 5 -8 11 -8 19 -1 7 6 17 7 22 3 5 -5 25 0 44 10 19 10 28 18 20 18 -13 0 -14 108 -10 931 l5 931 28 24 c20 17 35 23 49 18 13 -4 18 -2 14 4 -16 26 91 23 110 -2z m-4766 -16 c0 -5 -4 -10 -9 -10 -6 0 -13 5 -16 10 -3 6 1 10 9 10 9 0 16 -4 16 -10z m-23 -47 c-4 -3 -10 -3 -14 0 -3 4 0 7 7 7 7 0 10 -3 7 -7z m5568 -2103 c-8 -9 -15 -22 -15 -28 0 -7 -4 -12 -8 -12 -5 0 -9 13 -9 29 0 23 5 29 24 29 22 0 23 -2 8 -18z"/>
 <path d="M1593 2433 c4 -3 10 -3 14 0 3 4 0 7 -7 7 -7 0 -10 -3 -7 -7z"/>
 <path d="M1665 2430 c3 -5 8 -10 11 -10 2 0 4 5 4 10 0 6 -5 10 -11 10 -5 0 -7 -4 -4 -10z"/>
 <path d="M1555 2410 c3 -5 8 -10 11 -10 2 0 4 5 4 10 0 6 -5 10 -11 10 -5 0 -7 -4 -4 -10z"/>
 <path d="M1540 2375 c-7 -9 -11 -18 -8 -20 3 -3 11 1 18 10 7 9 11 18 8 20 -3 3 -11 -1 -18 -10z"/>
 <path d="M2753 2373 c4 -3 10 -3 14 0 3 4 0 7 -7 7 -7 0 -10 -3 -7 -7z"/>
 <path d="M1500 2360 c0 -7 3 -10 7 -7 3 4 3 10 0 14 -4 3 -7 0 -7 -7z"/>
 <path d="M1741 2334 c0 -11 3 -14 6 -6 3 7 2 16 -1 19 -3 4 -6 -2 -5 -13z"/>
 <path d="M1533 2323 c4 -3 10 -3 14 0 3 4 0 7 -7 7 -7 0 -10 -3 -7 -7z"/>
 <path d="M1770 2231 c0 -9 24 -21 41 -21 5 0 9 4 9 10 0 5 -7 7 -15 4 -8 -4 -15 -1 -15 5 0 6 -4 11 -10 11 -5 0 -10 -4 -10 -9z"/>
 <path d="M2613 2233 c4 -3 10 -3 14 0 3 4 0 7 -7 7 -7 0 -10 -3 -7 -7z"/>
 <path d="M2640 2220 c0 -14 15 -19 29 -11 9 6 7 10 -8 14 -12 3 -21 1 -21 -3z"/>
 <path d="M2890 2190 c0 -7 3 -10 7 -7 3 4 3 10 0 14 -4 3 -7 0 -7 -7z"/>
 <path d="M2866 2147 c3 -10 9 -15 12 -12 3 3 0 11 -7 18 -10 9 -11 8 -5 -6z"/>
 <path d="M2750 2140 c-18 -12 -2 -12 25 0 13 6 15 9 5 9 -8 0 -22 -4 -30 -9z"/>
 <path d="M2753 2113 c4 -3 10 -3 14 0 3 4 0 7 -7 7 -7 0 -10 -3 -7 -7z"/>
 <path d="M2823 2113 c4 -3 10 -3 14 0 3 4 0 7 -7 7 -7 0 -10 -3 -7 -7z"/>
 <path d="M1714 375 c8 -8 18 -15 22 -15 3 0 1 7 -6 15 -7 8 -17 15 -22 15 -5 0 -3 -7 6 -15z"/>
 <path d="M1680 360 c0 -7 3 -10 7 -7 3 4 3 10 0 14 -4 3 -7 0 -7 -7z"/>
 <path d="M1550 320 c0 -7 3 -10 7 -7 3 4 3 10 0 14 -4 3 -7 0 -7 -7z"/>
 <path d="M1570 316 c0 -2 7 -7 16 -10 8 -3 12 -2 9 4 -6 10 -25 14 -25 6z"/>
 <path d="M1676 311 c-3 -5 3 -16 13 -25 13 -12 21 -14 26 -6 3 6 3 10 -2 9 -19 -3 -27 2 -15 10 11 7 11 9 -2 14 -8 3 -18 2 -20 -2z"/>
 <path d="M1578 273 c7 -3 16 -2 19 1 4 3 -2 6 -13 5 -11 0 -14 -3 -6 -6z"/>
 <path d="M1623 253 c4 -3 10 -3 14 0 3 4 0 7 -7 7 -7 0 -10 -3 -7 -7z"/>
 <path d="M3517 2433 c-9 -8 12 -33 27 -33 6 0 3 5 -7 11 -9 6 -15 14 -12 20 7 10 2 12 -8 2z"/>
 <path d="M3560 2420 c0 -5 5 -10 11 -10 5 0 7 5 4 10 -3 6 -8 10 -11 10 -2 0 -4 -4 -4 -10z"/>
 <path d="M3430 2400 c0 -7 3 -10 7 -7 3 4 3 10 0 14 -4 3 -7 0 -7 -7z"/>
 <path d="M3580 2385 c7 -8 17 -15 22 -15 6 0 5 7 -2 15 -7 8 -17 15 -22 15 -6 0 -5 -7 2 -15z"/>
 <path d="M3550 2370 c0 -5 5 -10 11 -10 5 0 7 5 4 10 -3 6 -8 10 -11 10 -2 0 -4 -4 -4 -10z"/>
 <path d="M3410 2350 c0 -7 3 -10 7 -7 3 4 3 10 0 14 -4 3 -7 0 -7 -7z"/>
 <path d="M3640 2350 c0 -7 3 -10 7 -7 3 4 3 10 0 14 -4 3 -7 0 -7 -7z"/>
 <path d="M3540 2340 c0 -7 3 -10 7 -7 3 4 3 10 0 14 -4 3 -7 0 -7 -7z"/>
 <path d="M3603 2343 c4 -3 10 -3 14 0 3 4 0 7 -7 7 -7 0 -10 -3 -7 -7z"/>
 <path d="M4948 1583 c7 -3 16 -2 19 1 4 3 -2 6 -13 5 -11 0 -14 -3 -6 -6z"/>
 <path d="M5034 1578 c-4 -7 -3 -8 4 -4 7 4 12 9 12 12 0 8 -9 4 -16 -8z"/>
 <path d="M5060 1570 c0 -7 3 -10 7 -7 3 4 3 10 0 14 -4 3 -7 0 -7 -7z"/>
 <path d="M5090 1550 c0 -7 3 -10 7 -7 3 4 3 10 0 14 -4 3 -7 0 -7 -7z"/>
 <path d="M4900 1540 c-8 -5 -12 -12 -9 -15 4 -3 12 1 19 10 14 17 11 19 -10 5z"/>
 <path d="M4924 1528 c-4 -7 -3 -8 4 -4 12 7 16 16 8 16 -3 0 -8 -5 -12 -12z"/>
 <path d="M3613 1523 c4 -3 10 -3 14 0 3 4 0 7 -7 7 -7 0 -10 -3 -7 -7z"/>
 <path d="M5060 1526 c0 -2 7 -7 16 -10 8 -3 12 -2 9 4 -6 10 -25 14 -25 6z"/>
 <path d="M5070 1460 c0 -7 3 -10 7 -7 3 4 3 10 0 14 -4 3 -7 0 -7 -7z"/>
 <path d="M3668 929 c2 -358 1 -419 -12 -432 -13 -13 -12 -14 14 -13 16 1 32 5 36 9 13 13 998 9 1012 -5 8 -8 15 -8 26 1 9 8 16 8 21 2 3 -6 23 -9 43 -7 20 3 46 5 57 6 11 1 14 4 8 7 -10 4 -13 98 -13 426 l0 422 -597 0 -598 0 3 -416z"/>
 <path d="M3642 520 c0 -14 2 -19 5 -12 2 6 2 18 0 25 -3 6 -5 1 -5 -13z"/>
 <path d="M3430 380 c0 -7 3 -10 7 -7 3 4 3 10 0 14 -4 3 -7 0 -7 -7z"/>
 <path d="M3390 370 c0 -7 3 -10 7 -7 3 4 3 10 0 14 -4 3 -7 0 -7 -7z"/>
 <path d="M5090 360 c0 -7 3 -10 7 -7 3 4 3 10 0 14 -4 3 -7 0 -7 -7z"/>
 <path d="M3413 330 c5 -31 26 -48 36 -31 5 8 6 21 3 30 -5 13 -8 11 -10 -7 -2 -12 -7 -20 -12 -17 -5 3 -7 12 -4 19 3 8 1 17 -5 21 -7 4 -10 -2 -8 -15z"/>
 <path d="M5060 340 c0 -7 3 -10 7 -7 3 4 3 10 0 14 -4 3 -7 0 -7 -7z"/>
 <path d="M3606 306 c4 -10 -3 -12 -23 -10 -28 4 -28 4 -4 -6 19 -8 28 -7 39 3 12 12 11 15 -2 20 -10 4 -13 1 -10 -7z"/>
 <path d="M3483 303 c4 -3 10 -3 14 0 3 4 0 7 -7 7 -7 0 -10 -3 -7 -7z"/>
 <path d="M4963 293 c4 -3 10 -3 14 0 3 4 0 7 -7 7 -7 0 -10 -3 -7 -7z"/>
 <path d="M5060 296 c0 -2 8 -10 18 -17 15 -13 16 -12 3 4 -13 16 -21 21 -21 13z"/>
 <path d="M3468 283 c7 -3 16 -2 19 1 4 3 -2 6 -13 5 -11 0 -14 -3 -6 -6z"/>
 <path d="M3513 283 c4 -3 10 -3 14 0 3 4 0 7 -7 7 -7 0 -10 -3 -7 -7z"/>
 <path d="M5043 268 c0 -13 1 -17 4 -10 3 6 10 9 16 5 7 -4 6 1 -2 10 -17 21 -17 21 -18 -5z"/>
 <path d="M3553 273 c4 -3 10 -3 14 0 3 4 0 7 -7 7 -7 0 -10 -3 -7 -7z"/>
 <path d="M4930 270 c0 -7 3 -10 7 -7 3 4 3 10 0 14 -4 3 -7 0 -7 -7z"/>
 <path d="M5008 273 c7 -3 16 -2 19 1 4 3 -2 6 -13 5 -11 0 -14 -3 -6 -6z"/>
 <path d="M3523 263 c4 -3 10 -3 14 0 3 4 0 7 -7 7 -7 0 -10 -3 -7 -7z"/>
 <path d="M6357 2415 c3 -8 9 -12 14 -9 12 7 11 11 -5 17 -10 4 -13 1 -9 -8z"/>
 <path d="M6327 2413 c-10 -9 -9 -23 1 -23 5 0 9 7 9 15 0 17 -1 18 -10 8z"/>
 <path d="M6483 2405 c0 -8 4 -12 9 -9 5 3 6 10 3 15 -9 13 -12 11 -12 -6z"/>
 <path d="M6519 2401 c8 -5 11 -17 7 -32 -6 -21 -5 -22 4 -6 13 21 6 47 -12 47 -10 0 -10 -2 1 -9z"/>
 <path d="M6500 2380 c0 -7 3 -10 7 -7 3 4 3 10 0 14 -4 3 -7 0 -7 -7z"/>
 <path d="M6345 2370 c-3 -5 1 -10 9 -10 9 0 16 5 16 10 0 6 -4 10 -9 10 -6 0 -13 -4 -16 -10z"/>
 <path d="M6480 2360 c0 -7 3 -10 7 -7 3 4 3 10 0 14 -4 3 -7 0 -7 -7z"/>
 <path d="M6540 2350 c0 -7 3 -10 7 -7 3 4 3 10 0 14 -4 3 -7 0 -7 -7z"/>
 <path d="M6290 499 c0 -5 5 -7 10 -4 6 3 10 8 10 11 0 2 -4 4 -10 4 -5 0 -10 -5 -10 -11z"/>
 <path d="M7205 450 c3 -5 8 -10 11 -10 3 0 2 5 -1 10 -3 6 -8 10 -11 10 -3 0 -2 -4 1 -10z"/>
 <path d="M5570 420 c0 -5 5 -10 10 -10 6 0 10 5 10 10 0 6 -4 10 -10 10 -5 0 -10 -4 -10 -10z"/>
 <path d="M7206 414 c-5 -14 -4 -15 9 -4 17 14 19 20 6 20 -5 0 -12 -7 -15 -16z"/>
 <path d="M5600 340 c0 -7 3 -10 7 -7 3 4 3 10 0 14 -4 3 -7 0 -7 -7z"/>
 <path d="M5630 320 c0 -5 5 -10 11 -10 5 0 7 5 4 10 -3 6 -8 10 -11 10 -2 0 -4 -4 -4 -10z"/>
 <path d="M7183 303 c4 -3 10 -3 14 0 3 4 0 7 -7 7 -7 0 -10 -3 -7 -7z"/>
 <path d="M7200 280 c0 -7 3 -10 7 -7 3 4 3 10 0 14 -4 3 -7 0 -7 -7z"/>
 <path d="M7040 270 c0 -7 3 -10 7 -7 3 4 3 10 0 14 -4 3 -7 0 -7 -7z"/>
 <path d="M7200 249 c0 -5 5 -7 10 -4 6 3 10 8 10 11 0 2 -4 4 -10 4 -5 0 -10 -5 -10 -11z"/>
 <path d="M7065 240 c3 -5 8 -10 11 -10 2 0 4 5 4 10 0 6 -5 10 -11 10 -5 0 -7 -4 -4 -10z"/>
 <path d="M154 3340 c0 -13 4 -16 10 -10 7 7 7 13 0 20 -6 6 -10 3 -10 -10z"/>
 <path d="M290 3320 c0 -7 3 -10 7 -7 3 4 3 10 0 14 -4 3 -7 0 -7 -7z"/>
 <path d="M170 3309 c0 -5 5 -7 10 -4 6 3 10 8 10 11 0 2 -4 4 -10 4 -5 0 -10 -5 -10 -11z"/>
 <path d="M250 3310 c0 -7 3 -10 7 -7 3 4 3 10 0 14 -4 3 -7 0 -7 -7z"/>
 <path d="M270 3310 c0 -7 3 -10 7 -7 3 4 3 10 0 14 -4 3 -7 0 -7 -7z"/>
 <path d="M290 3296 c0 -2 7 -7 16 -10 8 -3 12 -2 9 4 -6 10 -25 14 -25 6z"/>
 <path d="M270 3280 c0 -5 5 -10 11 -10 5 0 7 5 4 10 -3 6 -8 10 -11 10 -2 0 -4 -4 -4 -10z"/>
 <path d="M360 3236 c0 -2 8 -10 18 -17 15 -13 16 -12 3 4 -13 16 -21 21 -21 13z"/>
 <path d="M335 3180 c3 -5 8 -10 11 -10 3 0 2 5 -1 10 -3 6 -8 10 -11 10 -3 0 -2 -4 1 -10z"/>
 <path d="M240 3170 c0 -7 3 -10 7 -7 3 4 3 10 0 14 -4 3 -7 0 -7 -7z"/>
 <path d="M271 3144 c0 -11 3 -14 6 -6 3 7 2 16 -1 19 -3 4 -6 -2 -5 -13z"/>
 <path d="M297 3141 c-4 -17 -3 -21 5 -13 5 5 8 16 6 23 -3 8 -7 3 -11 -10z"/>
 <path d="M310 3110 c0 -7 3 -10 7 -7 3 4 3 10 0 14 -4 3 -7 0 -7 -7z"/>
 <path d="M400 3100 c0 -7 3 -10 7 -7 3 4 3 10 0 14 -4 3 -7 0 -7 -7z"/>
 <path d="M420 3090 c0 -7 3 -10 7 -7 3 4 3 10 0 14 -4 3 -7 0 -7 -7z"/>
 <path d="M440 3069 c0 -5 5 -7 10 -4 6 3 10 8 10 11 0 2 -4 4 -10 4 -5 0 -10 -5 -10 -11z"/>
 <path d="M520 2970 c0 -7 3 -10 7 -7 3 4 3 10 0 14 -4 3 -7 0 -7 -7z"/>
 <path d="M370 2950 c0 -7 3 -10 7 -7 3 4 3 10 0 14 -4 3 -7 0 -7 -7z"/>
 <path d="M540 2910 c0 -7 3 -10 7 -7 3 4 3 10 0 14 -4 3 -7 0 -7 -7z"/>
 <path d="M360 2900 c0 -5 5 -10 10 -10 6 0 10 5 10 10 0 6 -4 10 -10 10 -5 0 -10 -4 -10 -10z"/>
 <path d="M560 2901 c0 -6 4 -13 10 -16 6 -3 7 1 4 9 -7 18 -14 21 -14 7z"/>
 <path d="M395 2880 c3 -5 8 -10 11 -10 3 0 2 5 -1 10 -3 6 -8 10 -11 10 -3 0 -2 -4 1 -10z"/>
 <path d="M380 2860 c0 -7 3 -10 7 -7 3 4 3 10 0 14 -4 3 -7 0 -7 -7z"/>
 <path d="M401 2824 c0 -11 3 -14 6 -6 3 7 2 16 -1 19 -3 4 -6 -2 -5 -13z"/>
 <path d="M580 2820 c0 -7 3 -10 7 -7 3 4 3 10 0 14 -4 3 -7 0 -7 -7z"/>
 <path d="M618 2745 c2 -14 8 -25 12 -25 10 0 1 38 -10 45 -4 2 -5 -7 -2 -20z"/>
 <path d="M570 2730 c0 -7 3 -10 7 -7 3 4 3 10 0 14 -4 3 -7 0 -7 -7z"/>
 <path d="M470 2700 c0 -7 3 -10 7 -7 3 4 3 10 0 14 -4 3 -7 0 -7 -7z"/>
 <path d="M643 2645 c-3 -9 -3 -18 -1 -21 3 -3 8 4 11 16 6 23 -1 27 -10 5z"/>
 <path d="M471 2564 c0 -11 3 -14 6 -6 3 7 2 16 -1 19 -3 4 -6 -2 -5 -13z"/>
 <path d="M680 2530 c0 -7 3 -10 7 -7 3 4 3 10 0 14 -4 3 -7 0 -7 -7z"/>
 <path d="M712 2440 c0 -14 2 -19 5 -12 2 6 2 18 0 25 -3 6 -5 1 -5 -13z"/>
 <path d="M490 2370 c0 -7 3 -10 7 -7 3 4 3 10 0 14 -4 3 -7 0 -7 -7z"/>
 <path d="M731 2284 c0 -11 3 -14 6 -6 3 7 2 16 -1 19 -3 4 -6 -2 -5 -13z"/>
 <path d="M710 2270 c0 -7 3 -10 7 -7 3 4 3 10 0 14 -4 3 -7 0 -7 -7z"/>
 <path d="M525 2239 c-4 -6 -4 -13 -1 -16 3 -4 6 -1 6 6 0 7 5 9 12 5 7 -4 8 -3 4 4 -9 15 -13 15 -21 1z"/>
 <path d="M582 1860 c0 -14 2 -19 5 -12 2 6 2 18 0 25 -3 6 -5 1 -5 -13z"/>
 <path d="M760 1810 c0 -7 3 -10 7 -7 3 4 3 10 0 14 -4 3 -7 0 -7 -7z"/>
 <path d="M540 1740 c0 -7 3 -10 7 -7 3 4 3 10 0 14 -4 3 -7 0 -7 -7z"/>
 <path d="M550 1670 c0 -7 3 -10 7 -7 3 4 3 10 0 14 -4 3 -7 0 -7 -7z"/>
 <path d="M780 1570 c0 -7 3 -10 7 -7 3 4 3 10 0 14 -4 3 -7 0 -7 -7z"/>
 <path d="M551 1374 c0 -11 3 -14 6 -6 3 7 2 16 -1 19 -3 4 -6 -2 -5 -13z"/>
 <path d="M580 1320 c0 -7 3 -10 7 -7 3 4 3 10 0 14 -4 3 -7 0 -7 -7z"/>
 <path d="M573 1240 c0 -25 2 -35 4 -22 2 12 2 32 0 45 -2 12 -4 2 -4 -23z"/>
 <path d="M561 814 c0 -11 3 -14 6 -6 3 7 2 16 -1 19 -3 4 -6 -2 -5 -13z"/>
 <path d="M800 460 c0 -7 3 -10 7 -7 3 4 3 10 0 14 -4 3 -7 0 -7 -7z"/>
 <path d="M820 430 c0 -7 3 -10 7 -7 3 4 3 10 0 14 -4 3 -7 0 -7 -7z"/>
 <path d="M808 403 c7 -3 16 -2 19 1 4 3 -2 6 -13 5 -11 0 -14 -3 -6 -6z"/>
 <path d="M830 370 c0 -7 3 -10 7 -7 3 4 3 10 0 14 -4 3 -7 0 -7 -7z"/>
 <path d="M810 340 c0 -7 3 -10 7 -7 3 4 3 10 0 14 -4 3 -7 0 -7 -7z"/>
 <path d="M593 303 c4 -3 10 -3 14 0 3 4 0 7 -7 7 -7 0 -10 -3 -7 -7z"/>
 <path d="M638 288 c6 -6 18 -8 28 -6 14 3 12 5 -9 10 -19 3 -25 2 -19 -4z"/>
 <path d="M743 293 c4 -3 10 -3 14 0 3 4 0 7 -7 7 -7 0 -10 -3 -7 -7z"/>
 <path d="M774 288 c-4 -7 -3 -8 4 -4 7 4 12 9 12 12 0 8 -9 4 -16 -8z"/>
 <path d="M625 270 c3 -5 8 -10 11 -10 3 0 2 5 -1 10 -3 6 -8 10 -11 10 -3 0 -2 -4 1 -10z"/>
 <path d="M750 270 c8 -5 20 -10 25 -10 6 0 3 5 -5 10 -8 5 -19 10 -25 10 -5 0 -3 -5 5 -10z"/>
 <path d="M700 259 c0 -5 5 -7 10 -4 6 3 10 8 10 11 0 2 -4 4 -10 4 -5 0 -10 -5 -10 -11z"/>
 </g>
<g id="layer103" fill="#2f2e2e" stroke="none">
 <path d="M0 1680 l0 -1680 3900 0 3900 0 0 1680 0 1680 -3754 0 c-3676 0 -3755 0 -3753 -19 0 -10 6 -17 12 -15 6 2 19 -11 29 -31 11 -19 25 -35 33 -35 12 0 18 -21 13 -45 -1 -5 2 -7 6 -2 8 8 44 -21 44 -35 0 -5 15 -33 34 -61 36 -56 146 -256 146 -267 0 -3 16 -46 36 -94 19 -49 33 -95 30 -103 -3 -8 -2 -11 3 -8 10 6 16 -9 27 -68 3 -20 10 -40 15 -42 4 -3 6 -12 2 -20 -3 -9 0 -21 6 -29 6 -7 8 -16 4 -19 -3 -4 -1 -13 6 -20 6 -8 9 -22 5 -30 -3 -9 -2 -22 2 -29 5 -7 9 -26 10 -43 1 -16 4 -57 8 -90 3 -33 8 -85 10 -115 2 -30 7 -84 10 -120 18 -199 34 -677 41 -1184 5 -336 6 -362 25 -393 26 -44 25 -61 -5 -120 -25 -48 -67 -83 -99 -83 -9 0 -16 -4 -16 -8 0 -14 -108 6 -136 25 -36 23 -65 82 -65 133 0 8 2 246 4 528 2 282 1 515 -3 517 -4 3 -7 95 -6 206 1 118 -2 203 -7 206 -6 4 -7 48 -4 109 5 67 3 105 -4 109 -6 4 -8 24 -4 48 3 23 1 65 -5 92 -11 55 -14 72 -25 160 -4 33 -9 64 -12 68 -3 5 -9 34 -14 65 -13 78 -16 97 -18 97 -1 0 -4 16 -6 35 -2 19 -14 62 -25 95 -12 33 -30 90 -41 127 -25 88 -57 169 -75 189 -8 8 -14 20 -14 25 -1 12 -51 112 -73 146 -12 17 -16 35 -12 50 4 15 3 19 -3 10 -13 -18 -28 3 -37 51 l-7 37 -69 0 -69 0 0 -1680z m1742 730 c18 -20 29 -20 558 -20 296 0 545 -3 554 -6 9 -3 13 -10 10 -15 -3 -5 1 -6 9 -3 22 8 64 -64 66 -114 2 -43 -16 -102 -31 -102 -5 0 -8 -6 -8 -13 0 -12 -89 -47 -119 -47 -7 0 -32 9 -57 20 -31 15 -50 31 -61 56 l-17 35 -439 -3 -440 -3 2 -912 c2 -636 -1 -924 -9 -952 -10 -37 -19 -46 -43 -42 -5 1 -6 -2 -3 -7 11 -19 -15 -33 -76 -40 -61 -8 -67 -6 -95 17 -17 15 -40 46 -52 70 -21 45 -21 46 -21 1022 0 674 3 980 11 984 5 4 8 12 6 18 -5 15 17 59 38 77 9 8 42 19 73 25 48 10 60 9 90 -7 19 -9 43 -26 54 -38z m1846 30 c2 -6 9 -10 16 -10 7 0 23 -15 37 -32 l24 -33 0 -410 0 -410 602 2 601 2 37 26 c35 23 90 33 145 25 26 -3 70 -52 81 -90 7 -23 9 -234 7 -615 -3 -495 -5 -583 -18 -603 -8 -12 -21 -20 -28 -17 -7 3 -10 0 -7 -5 9 -15 -39 -30 -93 -30 -46 0 -88 19 -105 47 -6 10 -127 13 -626 13 -603 0 -618 0 -636 -20 -10 -11 -22 -17 -26 -14 -5 3 -6 -1 -4 -8 4 -10 -10 -14 -55 -16 -68 -4 -133 15 -125 36 2 7 1 11 -4 8 -13 -8 -32 19 -25 37 3 8 1 18 -5 22 -14 8 -16 1981 -2 1989 5 3 12 21 15 40 7 37 19 50 69 75 24 13 43 15 77 9 25 -5 47 -13 48 -18z m2934 -30 c-1 -6 2 -9 8 -5 5 3 15 -7 21 -22 6 -15 16 -37 20 -48 6 -12 8 -404 7 -925 l-3 -905 312 0 c309 0 312 0 335 -22 14 -13 29 -23 34 -23 12 0 47 -79 46 -105 -2 -47 -5 -61 -17 -75 -6 -8 -15 -23 -18 -32 -5 -15 -41 -36 -91 -52 -35 -12 -87 6 -125 43 -21 20 -40 42 -42 49 -3 10 -144 12 -701 12 -439 0 -699 3 -703 9 -3 6 -12 8 -20 5 -9 -4 -20 9 -33 37 -17 37 -18 47 -7 78 7 21 26 46 45 59 32 22 37 22 359 22 193 0 332 4 341 10 8 5 11 10 5 10 -14 0 -9 1802 5 1852 11 41 49 66 110 75 19 3 37 7 39 8 7 8 76 -44 73 -55z"/>
 <path d="M1724 2378 c-4 -7 -3 -8 4 -4 12 7 16 16 8 16 -3 0 -8 -5 -12 -12z"/>
 <path d="M2840 2140 c0 -7 3 -10 7 -7 3 4 3 10 0 14 -4 3 -7 0 -7 -7z"/>
 <path d="M4910 1570 c-9 -6 -10 -10 -3 -10 6 0 15 5 18 10 8 12 4 12 -15 0z"/>
 <path d="M4258 1342 l-588 -2 0 -420 0 -420 574 0 c390 0 577 -3 581 -10 5 -8 11 -7 21 1 12 9 14 82 14 430 0 230 -3 419 -7 421 -5 2 -272 2 -595 0z"/>
 </g>
<g id="layer104" fill="#424041" stroke="none">
 <path d="M0 1680 l0 -1680 3900 0 3900 0 0 1680 0 1680 -3750 0 c-2062 0 -3750 -2 -3750 -5 0 -11 50 -84 62 -92 17 -10 68 -79 68 -91 0 -5 9 -17 20 -27 11 -10 20 -22 20 -27 0 -5 12 -27 27 -51 56 -86 115 -204 144 -282 4 -11 14 -36 22 -55 9 -19 23 -66 33 -105 9 -38 19 -77 22 -85 3 -8 4 -19 3 -24 -1 -4 3 -14 10 -22 6 -7 12 -33 14 -56 2 -24 4 -45 6 -48 1 -3 3 -16 4 -30 1 -14 6 -56 9 -95 19 -192 29 -346 42 -645 12 -288 15 -394 20 -764 4 -300 7 -371 19 -382 8 -8 12 -21 9 -28 -3 -8 -1 -17 5 -21 41 -25 -25 -155 -98 -195 -27 -14 -127 -5 -156 14 -38 25 -78 91 -77 128 5 302 7 1050 2 1053 -4 2 -8 89 -9 192 -3 249 -13 490 -25 578 -15 113 -33 231 -46 305 -6 30 -11 63 -11 72 0 10 -4 20 -9 23 -5 3 -7 12 -4 19 3 8 1 17 -5 20 -6 4 -8 13 -5 20 3 8 0 17 -5 21 -6 3 -9 10 -6 15 3 4 -13 57 -35 117 -22 59 -40 115 -40 124 0 9 -13 43 -29 75 -16 32 -44 88 -61 124 -17 36 -47 92 -67 124 -20 33 -36 69 -37 80 -1 19 -8 21 -68 24 l-68 3 0 -1681z m1678 781 c8 -1 27 -14 43 -31 l30 -30 534 0 c597 -1 581 1 630 -70 22 -32 28 -51 27 -86 -3 -57 -32 -114 -70 -136 -33 -20 -106 -24 -147 -8 -29 11 -64 47 -65 67 0 6 -5 15 -10 18 -6 4 -207 6 -446 6 l-437 0 2 -913 c1 -540 -2 -926 -8 -944 -5 -18 -24 -46 -41 -63 -32 -30 -41 -32 -120 -34 -36 -1 -87 40 -110 88 -20 41 -20 57 -18 1047 l3 1005 30 35 c42 51 55 55 173 49z m1932 -31 c27 -21 43 -44 50 -70 7 -26 10 -178 8 -427 l-3 -388 604 2 c542 2 605 4 622 19 10 9 23 13 29 9 6 -3 9 -1 8 6 -4 16 55 29 102 23 23 -3 47 -17 70 -39 l35 -35 0 -616 0 -615 -39 -33 c-34 -28 -46 -32 -90 -30 -63 2 -101 17 -116 44 -11 20 -16 20 -626 20 l-615 0 -32 -34 c-29 -31 -36 -33 -82 -30 -100 8 -165 46 -149 87 3 8 1 18 -5 22 -8 4 -11 304 -11 994 0 875 2 992 16 1022 27 59 30 63 70 85 53 29 104 24 154 -16z m2867 31 c18 -1 62 -51 84 -95 18 -38 19 -70 19 -947 l0 -907 308 -3 c302 -4 308 -4 345 -27 47 -30 69 -72 69 -131 0 -93 -63 -155 -158 -154 -43 0 -59 6 -92 33 -22 17 -42 40 -45 51 -5 18 -28 18 -702 19 -534 0 -704 3 -723 13 -54 26 -58 119 -6 168 l26 24 339 3 339 3 2 932 c3 898 4 933 22 960 11 16 35 36 55 45 31 15 50 17 118 13z"/>
 <path d="M4258 1342 l-588 -2 0 -420 0 -420 585 0 c322 0 588 -1 593 -2 9 -4 14 834 5 841 -5 3 -272 5 -595 3z"/>
 </g>
<g id="layer105" fill="#9e352d" stroke="none">
 <path d="M0 1680 l0 -1680 3900 0 3900 0 0 1680 0 1680 -3750 0 c-2062 0 -3750 -3 -3750 -7 0 -5 14 -24 31 -43 47 -54 139 -186 192 -275 113 -192 213 -480 237 -685 30 -261 70 -1160 70 -1593 1 -211 3 -266 15 -281 18 -23 29 -97 21 -131 -8 -32 -61 -92 -97 -111 -33 -17 -111 -19 -142 -3 -34 18 -78 61 -89 89 -6 15 -9 108 -7 235 11 620 -11 1410 -46 1705 -37 301 -101 536 -229 833 -10 21 -40 80 -68 130 -28 51 -51 101 -52 112 -1 18 -9 20 -68 23 l-68 3 0 -1681z m1685 776 c19 -8 40 -24 47 -35 13 -21 17 -21 554 -21 l541 0 43 -23 c137 -72 84 -287 -71 -287 -68 0 -102 16 -130 60 l-24 39 -437 1 -438 0 -2 -933 c-3 -880 -4 -934 -21 -960 -27 -41 -75 -67 -125 -67 -53 0 -90 20 -122 68 l-25 36 0 1022 c0 1018 0 1023 21 1051 42 57 120 77 189 49z m1898 -2 c18 -9 44 -32 57 -52 l25 -36 3 -408 3 -408 572 -1 c315 0 582 -2 595 -3 14 -2 38 9 59 25 63 51 149 50 206 -1 l32 -28 0 -622 0 -622 -37 -34 c-34 -31 -43 -34 -98 -34 -54 0 -63 3 -99 35 l-38 35 -603 0 -603 0 -38 -35 c-35 -31 -45 -35 -95 -35 -64 0 -103 17 -130 57 -18 27 -19 65 -22 1028 -2 550 0 1014 3 1032 11 63 82 122 147 123 15 0 42 -7 61 -16z m2925 -11 c14 -11 35 -32 46 -47 21 -27 21 -36 24 -956 l2 -929 308 -3 c302 -3 308 -3 345 -26 47 -30 69 -72 69 -132 0 -80 -38 -130 -114 -150 -70 -19 -156 18 -179 77 l-8 22 -703 1 c-667 0 -704 1 -728 18 -28 21 -46 77 -36 115 8 35 40 63 78 71 17 3 174 6 349 6 l319 0 2 933 3 932 22 31 c46 64 142 81 201 37z"/>
 <path d="M3670 920 l0 -420 590 0 590 0 0 420 0 420 -590 0 -590 0 0 -420z"/>
 </g>
<g id="layer106" fill="#9f423d" stroke="none">
 <path d="M0 1680 l0 -1680 3900 0 3900 0 0 1680 0 1680 -3750 0 c-2062 0 -3750 -3 -3750 -7 0 -5 14 -24 31 -43 47 -54 139 -186 192 -275 113 -192 213 -480 237 -685 30 -261 70 -1160 70 -1593 1 -211 3 -266 15 -281 18 -23 29 -97 21 -131 -8 -32 -61 -92 -97 -111 -33 -17 -111 -19 -142 -3 -34 18 -78 61 -89 89 -6 15 -9 108 -7 235 11 620 -11 1410 -46 1705 -37 301 -101 536 -229 833 -10 21 -40 80 -68 130 -28 51 -51 101 -52 112 -1 18 -9 20 -68 23 l-68 3 0 -1681z m1685 776 c19 -8 40 -24 47 -35 13 -21 17 -21 554 -21 l541 0 43 -23 c137 -72 84 -287 -71 -287 -68 0 -102 16 -130 60 l-24 39 -437 1 -438 0 -2 -933 c-3 -880 -4 -934 -21 -960 -27 -41 -75 -67 -125 -67 -53 0 -90 20 -122 68 l-25 36 0 1022 c0 1018 0 1023 21 1051 42 57 120 77 189 49z m1898 -2 c18 -9 44 -32 57 -52 l25 -36 3 -408 3 -408 572 -1 c315 0 582 -2 595 -3 14 -2 38 9 59 25 63 51 149 50 206 -1 l32 -28 0 -622 0 -622 -37 -34 c-34 -31 -43 -34 -98 -34 -54 0 -63 3 -99 35 l-38 35 -603 0 -603 0 -38 -35 c-35 -31 -45 -35 -95 -35 -64 0 -103 17 -130 57 -18 27 -19 65 -22 1028 -2 550 0 1014 3 1032 11 63 82 122 147 123 15 0 42 -7 61 -16z m2925 -11 c14 -11 35 -32 46 -47 21 -27 21 -36 24 -956 l2 -929 308 -3 c302 -3 308 -3 345 -26 47 -30 69 -72 69 -132 0 -80 -38 -130 -114 -150 -70 -19 -156 18 -179 77 l-8 22 -703 1 c-667 0 -704 1 -728 18 -28 21 -46 77 -36 115 8 35 40 63 78 71 17 3 174 6 349 6 l319 0 2 933 3 932 22 31 c46 64 142 81 201 37z"/>
 <path d="M3670 920 l0 -420 590 0 590 0 0 420 0 420 -590 0 -590 0 0 -420z m537 193 c-4 -3 -10 -3 -14 0 -3 4 0 7 7 7 7 0 10 -3 7 -7z"/>
 </g>
<g id="layer107" fill="#b23a35" stroke="none">
 <path d="M0 1680 l0 -1680 3900 0 3900 0 0 1680 0 1680 -3750 0 c-2062 0 -3750 -3 -3750 -7 0 -5 14 -24 31 -43 47 -54 139 -186 192 -275 113 -192 213 -480 237 -685 30 -261 70 -1160 70 -1593 1 -211 3 -266 15 -281 18 -23 29 -97 21 -131 -8 -32 -61 -92 -97 -111 -33 -17 -111 -19 -142 -3 -34 18 -78 61 -89 89 -6 15 -9 108 -7 235 11 620 -11 1410 -46 1705 -37 301 -101 536 -229 833 -10 21 -40 80 -68 130 -28 51 -51 101 -52 112 -1 18 -9 20 -68 23 l-68 3 0 -1681z m1685 776 c19 -8 40 -24 47 -35 13 -21 17 -21 554 -21 l541 0 43 -23 c137 -72 84 -287 -71 -287 -68 0 -102 16 -130 60 l-24 39 -437 1 -438 0 -2 -933 c-3 -880 -4 -934 -21 -960 -27 -41 -75 -67 -125 -67 -53 0 -90 20 -122 68 l-25 36 0 1022 c0 1018 0 1023 21 1051 42 57 120 77 189 49z m1898 -2 c18 -9 44 -32 57 -52 l25 -36 3 -408 3 -408 572 -1 c315 0 582 -2 595 -3 14 -2 38 9 59 25 63 51 149 50 206 -1 l32 -28 0 -622 0 -622 -37 -34 c-34 -31 -43 -34 -98 -34 -54 0 -63 3 -99 35 l-38 35 -603 0 -603 0 -38 -35 c-35 -31 -45 -35 -95 -35 -64 0 -103 17 -130 57 -18 27 -19 65 -22 1028 -2 550 0 1014 3 1032 11 63 82 122 147 123 15 0 42 -7 61 -16z m2925 -11 c14 -11 35 -32 46 -47 21 -27 21 -36 24 -956 l2 -929 308 -3 c302 -3 308 -3 345 -26 47 -30 69 -72 69 -132 0 -80 -38 -130 -114 -150 -70 -19 -156 18 -179 77 l-8 22 -703 1 c-667 0 -704 1 -728 18 -28 21 -46 77 -36 115 8 35 40 63 78 71 17 3 174 6 349 6 l319 0 2 933 3 932 22 31 c46 64 142 81 201 37z"/>
 <path d="M3670 920 l0 -420 590 0 590 0 0 420 0 420 -590 0 -590 0 0 -420z m607 204 c-3 -3 -12 -4 -19 -1 -8 3 -5 6 6 6 11 1 17 -2 13 -5z m-70 -11 c-4 -3 -10 -3 -14 0 -3 4 0 7 7 7 7 0 10 -3 7 -7z m198 -44 c11 -16 1 -19 -13 -3 -7 8 -8 14 -3 14 5 0 13 -5 16 -11z m42 -76 c-4 -3 -7 0 -7 7 0 7 3 10 7 7 3 -4 3 -10 0 -14z m10 -140 c-4 -3 -7 0 -7 7 0 7 3 10 7 7 3 -4 3 -10 0 -14z"/>
 </g>
<g id="layer108" fill="#df2c1d" stroke="none">
 <path d="M0 1680 l0 -1680 3900 0 3900 0 0 1680 0 1680 -3750 0 c-2062 0 -3750 -3 -3750 -7 0 -5 14 -24 31 -43 47 -54 139 -186 192 -275 113 -192 213 -480 237 -685 30 -261 70 -1160 70 -1593 1 -211 3 -266 15 -281 18 -23 29 -97 21 -131 -8 -32 -61 -92 -97 -111 -33 -17 -111 -19 -142 -3 -34 18 -78 61 -89 89 -6 15 -9 108 -7 235 11 620 -11 1410 -46 1705 -37 301 -101 536 -229 833 -10 21 -40 80 -68 130 -28 51 -51 101 -52 112 -1 18 -9 20 -68 23 l-68 3 0 -1681z m1685 776 c19 -8 40 -24 47 -35 13 -21 17 -21 554 -21 l541 0 43 -23 c137 -72 84 -287 -71 -287 -68 0 -102 16 -130 60 l-24 39 -437 1 -438 0 -2 -933 c-3 -880 -4 -934 -21 -960 -27 -41 -75 -67 -125 -67 -53 0 -90 20 -122 68 l-25 36 0 1022 c0 1018 0 1023 21 1051 42 57 120 77 189 49z m1898 -2 c18 -9 44 -32 57 -52 l25 -36 3 -408 3 -408 572 -1 c315 0 582 -2 595 -3 14 -2 38 9 59 25 63 51 149 50 206 -1 l32 -28 0 -622 0 -622 -37 -34 c-34 -31 -43 -34 -98 -34 -54 0 -63 3 -99 35 l-38 35 -603 0 -603 0 -38 -35 c-35 -31 -45 -35 -95 -35 -64 0 -103 17 -130 57 -18 27 -19 65 -22 1028 -2 550 0 1014 3 1032 11 63 82 122 147 123 15 0 42 -7 61 -16z m2925 -11 c14 -11 35 -32 46 -47 21 -27 21 -36 24 -956 l2 -929 308 -3 c302 -3 308 -3 345 -26 47 -30 69 -72 69 -132 0 -80 -38 -130 -114 -150 -70 -19 -156 18 -179 77 l-8 22 -703 1 c-667 0 -704 1 -728 18 -28 21 -46 77 -36 115 8 35 40 63 78 71 17 3 174 6 349 6 l319 0 2 933 3 932 22 31 c46 64 142 81 201 37z"/>
 <path d="M3670 920 l0 -420 590 0 590 0 0 420 0 420 -590 0 -590 0 0 -420z m607 204 c-3 -3 -12 -4 -19 -1 -8 3 -5 6 6 6 11 1 17 -2 13 -5z m-60 -10 c-3 -3 -12 -4 -19 -1 -8 3 -5 6 6 6 11 1 17 -2 13 -5z m-47 -19 c0 -2 -10 -9 -22 -15 -22 -11 -22 -10 -4 4 21 17 26 19 26 11z m240 -36 c7 -11 9 -23 6 -27 -3 -3 -6 0 -6 6 0 6 -7 18 -16 26 -8 9 -11 16 -5 16 6 0 15 -9 21 -21z m-290 1 c0 -5 -5 -10 -11 -10 -5 0 -7 5 -4 10 3 6 8 10 11 10 2 0 4 -4 4 -10z m-29 -47 c-12 -20 -14 -14 -5 12 4 9 9 14 11 11 3 -2 0 -13 -6 -23z m357 -18 c-3 -3 -9 2 -12 12 -6 14 -5 15 5 6 7 -7 10 -15 7 -18z m9 -32 c-4 -3 -7 0 -7 7 0 7 3 10 7 7 3 -4 3 -10 0 -14z m-400 -50 c-4 -3 -7 0 -7 7 0 7 3 10 7 7 3 -4 3 -10 0 -14z m13 -27 c0 -3 -5 -8 -12 -12 -7 -4 -8 -3 -4 4 7 12 16 16 16 8z m387 -28 c-3 -8 -6 -5 -6 6 -1 11 2 17 5 13 3 -3 4 -12 1 -19z m-20 -45 c-4 -3 -7 0 -7 7 0 7 3 10 7 7 3 -4 3 -10 0 -14z m-70 -69 c-3 -3 -12 -4 -19 -1 -8 3 -5 6 6 6 11 1 17 -2 13 -5z m-42 -14 c-3 -5 -11 -10 -16 -10 -6 0 -7 5 -4 10 3 6 11 10 16 10 6 0 7 -4 4 -10z"/>
 </g>
<g id="layer109" fill="#b2463c" stroke="none">
 <path d="M0 1680 l0 -1680 3900 0 3900 0 0 1680 0 1680 -3750 0 c-2062 0 -3750 -3 -3750 -7 0 -5 14 -24 31 -43 47 -54 139 -186 192 -275 113 -192 213 -480 237 -685 30 -261 70 -1160 70 -1593 1 -211 3 -266 15 -281 18 -23 29 -97 21 -131 -8 -32 -61 -92 -97 -111 -33 -17 -111 -19 -142 -3 -34 18 -78 61 -89 89 -6 15 -9 108 -7 235 11 620 -11 1410 -46 1705 -37 301 -101 536 -229 833 -10 21 -40 80 -68 130 -28 51 -51 101 -52 112 -1 18 -9 20 -68 23 l-68 3 0 -1681z m1685 776 c19 -8 40 -24 47 -35 13 -21 17 -21 554 -21 l541 0 43 -23 c137 -72 84 -287 -71 -287 -68 0 -102 16 -130 60 l-24 39 -437 1 -438 0 -2 -933 c-3 -880 -4 -934 -21 -960 -27 -41 -75 -67 -125 -67 -53 0 -90 20 -122 68 l-25 36 0 1022 c0 1018 0 1023 21 1051 42 57 120 77 189 49z m1898 -2 c18 -9 44 -32 57 -52 l25 -36 3 -408 3 -408 572 -1 c315 0 582 -2 595 -3 14 -2 38 9 59 25 63 51 149 50 206 -1 l32 -28 0 -622 0 -622 -37 -34 c-34 -31 -43 -34 -98 -34 -54 0 -63 3 -99 35 l-38 35 -603 0 -603 0 -38 -35 c-35 -31 -45 -35 -95 -35 -64 0 -103 17 -130 57 -18 27 -19 65 -22 1028 -2 550 0 1014 3 1032 11 63 82 122 147 123 15 0 42 -7 61 -16z m2925 -11 c14 -11 35 -32 46 -47 21 -27 21 -36 24 -956 l2 -929 308 -3 c302 -3 308 -3 345 -26 47 -30 69 -72 69 -132 0 -80 -38 -130 -114 -150 -70 -19 -156 18 -179 77 l-8 22 -703 1 c-667 0 -704 1 -728 18 -28 21 -46 77 -36 115 8 35 40 63 78 71 17 3 174 6 349 6 l319 0 2 933 3 932 22 31 c46 64 142 81 201 37z"/>
 <path d="M3670 920 l0 -420 590 0 590 0 0 420 0 420 -590 0 -590 0 0 -420z m607 204 c-3 -3 -12 -4 -19 -1 -8 3 -5 6 6 6 11 1 17 -2 13 -5z m-60 -10 c-3 -3 -12 -4 -19 -1 -8 3 -5 6 6 6 11 1 17 -2 13 -5z m-47 -19 c0 -2 -10 -9 -22 -15 -22 -11 -22 -10 -4 4 21 17 26 19 26 11z m164 -29 c-3 -8 0 -17 7 -22 8 -4 10 -3 5 4 -4 7 -3 12 3 12 5 0 13 -4 16 -10 3 -5 1 -10 -5 -10 -6 0 -9 -4 -6 -9 3 -4 -6 -6 -19 -3 -27 5 -32 21 -13 40 16 16 19 15 12 -2z m76 -7 c7 -11 9 -23 7 -26 -3 -2 -8 5 -12 17 -4 13 -12 19 -21 16 -9 -3 -12 -1 -9 4 10 16 23 12 35 -11z m-272 -5 c6 3 14 1 18 -5 4 -7 3 -9 -4 -5 -6 3 -15 -2 -21 -11 -10 -17 -10 -17 -11 0 0 9 -5 17 -11 17 -5 0 -7 5 -3 11 5 8 9 8 14 -1 4 -7 12 -10 18 -6z m69 10 c-3 -3 -12 -4 -19 -1 -8 3 -5 6 6 6 11 1 17 -2 13 -5z m-30 -31 c-4 -3 -7 0 -7 7 0 7 3 10 7 7 3 -4 3 -10 0 -14z m30 10 c-4 -3 -10 -3 -14 0 -3 4 0 7 7 7 7 0 10 -3 7 -7z m-116 -30 c-12 -20 -14 -14 -5 12 4 9 9 14 11 11 3 -2 0 -13 -6 -23z m71 -1 c-7 -2 -12 -11 -12 -19 0 -9 -3 -14 -6 -10 -10 10 7 48 19 40 8 -5 8 -8 -1 -11z m286 -17 c-3 -3 -9 2 -12 12 -6 14 -5 15 5 6 7 -7 10 -15 7 -18z m-331 -7 c-3 -8 -6 -5 -6 6 -1 11 2 17 5 13 3 -3 4 -12 1 -19z m276 -6 c14 -15 14 -19 3 -19 -8 0 -17 9 -19 19 -3 10 -4 18 -3 18 2 0 10 -8 19 -18z m64 -19 c-4 -3 -7 0 -7 7 0 7 3 10 7 7 3 -4 3 -10 0 -14z m-400 -50 c-4 -3 -7 0 -7 7 0 7 3 10 7 7 3 -4 3 -10 0 -14z m78 -25 c6 -4 2 -8 -7 -8 -10 0 -18 7 -18 17 0 9 3 12 8 7 4 -5 12 -12 17 -16z m-65 -2 c0 -3 -5 -8 -12 -12 -7 -4 -8 -3 -4 4 7 12 16 16 16 8z m347 -16 c1 -11 -2 -22 -6 -24 -6 -4 -7 26 -2 42 3 8 7 -1 8 -18z m40 -12 c-3 -8 -6 -5 -6 6 -1 11 2 17 5 13 3 -3 4 -12 1 -19z m-20 -45 c-4 -3 -7 0 -7 7 0 7 3 10 7 7 3 -4 3 -10 0 -14z m-70 -40 c-4 -3 -10 -3 -14 0 -3 4 0 7 7 7 7 0 10 -3 7 -7z m-150 -10 c-4 -3 -10 -3 -14 0 -3 4 0 7 7 7 7 0 10 -3 7 -7z m144 -21 c-7 -2 -18 1 -23 6 -8 8 -4 9 13 5 13 -4 18 -8 10 -11z m-36 -12 c-3 -5 -11 -10 -16 -10 -6 0 -7 5 -4 10 3 6 11 10 16 10 6 0 7 -4 4 -10z"/>
 </g>
<g id="layer110" fill="#e23029" stroke="none">
 <path d="M0 1680 l0 -1680 3900 0 3900 0 0 1680 0 1680 -3750 0 c-2062 0 -3750 -3 -3750 -7 0 -5 14 -24 31 -43 47 -54 139 -186 192 -275 113 -192 213 -480 237 -685 30 -261 70 -1160 70 -1593 1 -211 3 -266 15 -281 18 -23 29 -97 21 -131 -8 -32 -61 -92 -97 -111 -33 -17 -111 -19 -142 -3 -34 18 -78 61 -89 89 -6 15 -9 108 -7 235 11 620 -11 1410 -46 1705 -37 301 -101 536 -229 833 -10 21 -40 80 -68 130 -28 51 -51 101 -52 112 -1 18 -9 20 -68 23 l-68 3 0 -1681z m1685 776 c19 -8 40 -24 47 -35 13 -21 17 -21 554 -21 l541 0 43 -23 c137 -72 84 -287 -71 -287 -68 0 -102 16 -130 60 l-24 39 -437 1 -438 0 -2 -933 c-3 -880 -4 -934 -21 -960 -27 -41 -75 -67 -125 -67 -53 0 -90 20 -122 68 l-25 36 0 1022 c0 1018 0 1023 21 1051 42 57 120 77 189 49z m1898 -2 c18 -9 44 -32 57 -52 l25 -36 3 -408 3 -408 572 -1 c315 0 582 -2 595 -3 14 -2 38 9 59 25 63 51 149 50 206 -1 l32 -28 0 -622 0 -622 -37 -34 c-34 -31 -43 -34 -98 -34 -54 0 -63 3 -99 35 l-38 35 -603 0 -603 0 -38 -35 c-35 -31 -45 -35 -95 -35 -64 0 -103 17 -130 57 -18 27 -19 65 -22 1028 -2 550 0 1014 3 1032 11 63 82 122 147 123 15 0 42 -7 61 -16z m2925 -11 c14 -11 35 -32 46 -47 21 -27 21 -36 24 -956 l2 -929 308 -3 c302 -3 308 -3 345 -26 47 -30 69 -72 69 -132 0 -80 -38 -130 -114 -150 -70 -19 -156 18 -179 77 l-8 22 -703 1 c-667 0 -704 1 -728 18 -28 21 -46 77 -36 115 8 35 40 63 78 71 17 3 174 6 349 6 l319 0 2 933 3 932 22 31 c46 64 142 81 201 37z"/>
 <path d="M3670 920 l0 -420 590 0 590 0 0 420 0 420 -590 0 -590 0 0 -420z m603 203 c-7 -2 -21 -2 -30 0 -10 3 -4 5 12 5 17 0 24 -2 18 -5z m57 -9 c0 -2 -9 -4 -21 -4 -11 0 -18 4 -14 10 5 8 35 3 35 -6z m-110 2 c0 -2 -9 -6 -20 -9 -11 -3 -18 -1 -14 4 5 9 34 13 34 5z m-64 -31 c-11 -8 -23 -15 -28 -15 -4 0 -8 -5 -8 -11 0 -6 7 -9 15 -6 8 4 17 1 21 -5 4 -6 3 -8 -4 -4 -6 3 -15 -2 -21 -11 -10 -17 -10 -17 -11 0 0 28 -14 19 -34 -24 -10 -22 -20 -38 -23 -36 -5 5 29 72 49 98 13 16 34 27 53 28 6 0 1 -6 -9 -14z m244 -15 c11 -11 20 -26 19 -32 0 -7 -5 -3 -11 10 -7 13 -17 21 -25 18 -8 -3 -12 -2 -8 3 3 5 -1 12 -7 14 -10 4 -10 6 0 6 6 1 21 -8 32 -19z m-66 -4 c-3 -8 0 -17 7 -22 8 -4 10 -3 5 4 -4 7 -3 12 3 12 5 0 13 -4 16 -10 3 -5 1 -10 -5 -10 -6 0 -9 -4 -6 -9 3 -4 -6 -6 -19 -3 -27 5 -32 21 -13 40 16 16 19 15 12 -2z m-127 -2 c-3 -3 -12 -4 -19 -1 -8 3 -5 6 6 6 11 1 17 -2 13 -5z m-30 -31 c-4 -3 -7 0 -7 7 0 7 3 10 7 7 3 -4 3 -10 0 -14z m30 10 c-4 -3 -10 -3 -14 0 -3 4 0 7 7 7 7 0 10 -3 7 -7z m-45 -31 c-7 -2 -12 -11 -12 -19 0 -9 -3 -14 -6 -10 -10 10 7 48 19 40 8 -5 8 -8 -1 -11z m296 -38 c-3 -14 -7 -10 -16 16 -12 32 -11 34 4 19 9 -9 14 -25 12 -35z m-341 14 c-3 -8 -6 -5 -6 6 -1 11 2 17 5 13 3 -3 4 -12 1 -19z m276 -6 c14 -15 14 -19 3 -19 -8 0 -17 9 -19 19 -3 10 -4 18 -3 18 2 0 10 -8 19 -18z m-333 -64 c0 -16 -3 -19 -11 -11 -6 6 -8 16 -5 22 11 17 16 13 16 -11z m410 2 c0 -11 -2 -20 -4 -20 -2 0 -6 9 -9 20 -3 11 -1 20 4 20 5 0 9 -9 9 -20z m-335 -32 c6 -4 2 -8 -7 -8 -10 0 -18 7 -18 17 0 9 3 12 8 7 4 -5 12 -12 17 -16z m-65 -2 c0 -3 -5 -8 -12 -12 -7 -4 -8 -3 -4 4 7 12 16 16 16 8z m347 -16 c1 -11 -2 -22 -6 -24 -6 -4 -7 26 -2 42 3 8 7 -1 8 -18z m27 -42 c-14 -20 -15 -20 -9 -3 4 11 10 29 13 40 5 17 7 18 10 3 2 -10 -4 -28 -14 -40z m-366 7 c-3 -3 -9 2 -12 12 -6 14 -5 15 5 6 7 -7 10 -15 7 -18z m345 -50 c-3 -8 -21 -22 -40 -31 -27 -13 -37 -14 -46 -5 -9 9 -8 11 5 6 21 -8 81 32 72 47 -4 7 -2 8 4 4 6 -4 9 -13 5 -21z m-263 -42 c0 -1 -13 5 -30 13 -16 9 -30 22 -30 31 0 10 9 6 30 -14 17 -15 30 -29 30 -30z m207 30 c-4 -3 -10 -3 -14 0 -3 4 0 7 7 7 7 0 10 -3 7 -7z m-150 -10 c-4 -3 -10 -3 -14 0 -3 4 0 7 7 7 7 0 10 -3 7 -7z m-17 -33 c8 -5 11 -10 5 -10 -5 0 -17 5 -25 10 -8 5 -10 10 -5 10 6 0 17 -5 25 -10z m130 0 c0 -5 -7 -10 -16 -10 -8 0 -12 5 -9 10 3 6 10 10 16 10 5 0 9 -4 9 -10z"/>
 </g>
<g id="layer111" fill="#cb433c" stroke="none">
 <path d="M0 1680 l0 -1680 3900 0 3900 0 0 1680 0 1680 -3750 0 c-2062 0 -3750 -3 -3750 -7 0 -5 14 -24 31 -43 47 -54 139 -186 192 -275 113 -192 213 -480 237 -685 30 -261 70 -1160 70 -1593 1 -211 3 -266 15 -281 18 -23 29 -97 21 -131 -8 -32 -61 -92 -97 -111 -33 -17 -111 -19 -142 -3 -34 18 -78 61 -89 89 -6 15 -9 108 -7 235 11 620 -11 1410 -46 1705 -37 301 -101 536 -229 833 -10 21 -40 80 -68 130 -28 51 -51 101 -52 112 -1 18 -9 20 -68 23 l-68 3 0 -1681z m1685 776 c19 -8 40 -24 47 -35 13 -21 17 -21 554 -21 l541 0 43 -23 c137 -72 84 -287 -71 -287 -68 0 -102 16 -130 60 l-24 39 -437 1 -438 0 -2 -933 c-3 -880 -4 -934 -21 -960 -27 -41 -75 -67 -125 -67 -53 0 -90 20 -122 68 l-25 36 0 1022 c0 1018 0 1023 21 1051 42 57 120 77 189 49z m1898 -2 c18 -9 44 -32 57 -52 l25 -36 3 -408 3 -408 572 -1 c315 0 582 -2 595 -3 14 -2 38 9 59 25 63 51 149 50 206 -1 l32 -28 0 -622 0 -622 -37 -34 c-34 -31 -43 -34 -98 -34 -54 0 -63 3 -99 35 l-38 35 -603 0 -603 0 -38 -35 c-35 -31 -45 -35 -95 -35 -64 0 -103 17 -130 57 -18 27 -19 65 -22 1028 -2 550 0 1014 3 1032 11 63 82 122 147 123 15 0 42 -7 61 -16z m2925 -11 c14 -11 35 -32 46 -47 21 -27 21 -36 24 -956 l2 -929 308 -3 c302 -3 308 -3 345 -26 47 -30 69 -72 69 -132 0 -80 -38 -130 -114 -150 -70 -19 -156 18 -179 77 l-8 22 -703 1 c-667 0 -704 1 -728 18 -28 21 -46 77 -36 115 8 35 40 63 78 71 17 3 174 6 349 6 l319 0 2 933 3 932 22 31 c46 64 142 81 201 37z"/>
 <path d="M3670 920 l0 -420 590 0 590 0 0 420 0 420 -590 0 -590 0 0 -420z m605 200 c-8 -13 8 -13 21 0 6 6 15 6 24 0 12 -8 11 -10 -5 -10 -17 -1 -16 -3 5 -12 14 -5 36 -11 49 -13 26 -3 54 -33 47 -50 -2 -6 3 -20 11 -30 15 -19 15 -19 9 -1 -5 16 -4 17 9 6 8 -7 15 -22 15 -34 0 -17 -2 -18 -10 -6 -6 9 -10 10 -10 3 0 -6 7 -18 15 -27 8 -8 15 -23 14 -33 0 -16 -1 -16 -8 2 -6 16 -9 13 -14 -15 -3 -19 -8 -44 -11 -55 -4 -11 0 -6 8 10 12 23 15 26 15 10 0 -24 -23 -57 -33 -47 -5 4 -7 0 -6 -8 1 -8 2 -20 1 -27 -1 -13 -56 -43 -78 -43 -7 0 -13 -4 -13 -10 0 -5 -7 -10 -16 -10 -9 0 -12 5 -8 12 5 8 2 9 -10 5 -10 -4 -22 -7 -27 -7 -6 0 -7 -5 -3 -11 3 -6 -8 -4 -24 5 -35 18 -67 22 -42 6 8 -5 11 -10 5 -10 -14 0 -38 16 -33 22 1 3 -12 17 -29 32 -40 34 -44 27 -5 -9 l27 -26 -31 16 c-24 11 -34 24 -38 50 -4 20 -11 33 -15 30 -5 -3 -12 2 -15 11 -4 9 -2 13 5 8 7 -4 10 -1 7 7 -3 8 -12 13 -19 11 -11 -3 -12 -1 -1 9 6 7 12 22 11 34 0 19 -1 19 -8 1 -5 -14 -10 -16 -15 -8 -4 7 2 24 13 38 12 15 21 32 21 38 0 6 -5 4 -10 -4 -20 -31 -9 6 13 45 16 28 29 39 43 37 15 -2 16 -1 4 7 -18 13 -9 23 24 25 14 0 28 7 31 14 2 6 12 12 22 11 16 0 16 -1 -2 -9 -11 -5 -15 -9 -8 -9 20 -2 43 11 37 20 -3 5 7 9 21 9 15 0 24 -4 20 -10z"/>
 <path d="M4377 1069 c7 -7 15 -10 18 -7 3 3 -2 9 -12 12 -14 6 -15 5 -6 -5z"/>
 <path d="M4103 1043 c4 -3 10 -3 14 0 3 4 0 7 -7 7 -7 0 -10 -3 -7 -7z"/>
 <path d="M4380 775 c-19 -14 -30 -25 -24 -25 10 0 73 49 63 50 -3 0 -20 -11 -39 -25z"/>
 </g>
<g id="layer112" fill="#b3514a" stroke="none">
 <path d="M0 1680 l0 -1680 3900 0 3900 0 0 1680 0 1680 -3750 0 c-2062 0 -3750 -3 -3750 -7 0 -5 14 -24 31 -43 47 -54 139 -186 192 -275 113 -192 213 -480 237 -685 30 -261 70 -1160 70 -1593 1 -211 3 -266 15 -281 18 -23 29 -97 21 -131 -8 -32 -61 -92 -97 -111 -33 -17 -111 -19 -142 -3 -34 18 -78 61 -89 89 -6 15 -9 108 -7 235 11 620 -11 1410 -46 1705 -37 301 -101 536 -229 833 -10 21 -40 80 -68 130 -28 51 -51 101 -52 112 -1 18 -9 20 -68 23 l-68 3 0 -1681z m1685 776 c19 -8 40 -24 47 -35 13 -21 17 -21 554 -21 l541 0 43 -23 c137 -72 84 -287 -71 -287 -68 0 -102 16 -130 60 l-24 39 -437 1 -438 0 -2 -933 c-3 -880 -4 -934 -21 -960 -27 -41 -75 -67 -125 -67 -53 0 -90 20 -122 68 l-25 36 0 1022 c0 1018 0 1023 21 1051 42 57 120 77 189 49z m1898 -2 c18 -9 44 -32 57 -52 l25 -36 3 -408 3 -408 572 -1 c315 0 582 -2 595 -3 14 -2 38 9 59 25 63 51 149 50 206 -1 l32 -28 0 -622 0 -622 -37 -34 c-34 -31 -43 -34 -98 -34 -54 0 -63 3 -99 35 l-38 35 -603 0 -603 0 -38 -35 c-35 -31 -45 -35 -95 -35 -64 0 -103 17 -130 57 -18 27 -19 65 -22 1028 -2 550 0 1014 3 1032 11 63 82 122 147 123 15 0 42 -7 61 -16z m2925 -11 c14 -11 35 -32 46 -47 21 -27 21 -36 24 -956 l2 -929 308 -3 c302 -3 308 -3 345 -26 47 -30 69 -72 69 -132 0 -80 -38 -130 -114 -150 -70 -19 -156 18 -179 77 l-8 22 -703 1 c-667 0 -704 1 -728 18 -28 21 -46 77 -36 115 8 35 40 63 78 71 17 3 174 6 349 6 l319 0 2 933 3 932 22 31 c46 64 142 81 201 37z"/>
 <path d="M3670 920 l0 -420 590 0 590 0 0 420 0 420 -590 0 -590 0 0 -420z m689 179 c28 -13 50 -29 51 -36 0 -6 12 -26 26 -43 23 -27 27 -40 27 -98 0 -49 -5 -76 -20 -99 -11 -18 -23 -30 -27 -26 -4 4 -4 0 -1 -9 5 -12 -7 -23 -49 -43 -115 -56 -233 -24 -287 78 -15 30 -26 57 -22 60 3 4 0 13 -6 21 -8 10 -9 20 -2 33 5 10 12 29 15 43 6 30 57 110 69 110 5 0 23 6 40 14 18 8 39 17 47 19 29 11 90 0 139 -24z"/>
 </g>
<g id="layer113" fill="#cb635e" stroke="none">
 <path d="M0 1680 l0 -1680 3900 0 3900 0 0 1680 0 1680 -3750 0 c-2062 0 -3750 -3 -3750 -7 0 -5 14 -24 31 -43 47 -54 139 -186 192 -275 113 -192 213 -480 237 -685 30 -261 70 -1160 70 -1593 1 -211 3 -266 15 -281 18 -23 29 -97 21 -131 -8 -32 -61 -92 -97 -111 -33 -17 -111 -19 -142 -3 -34 18 -78 61 -89 89 -6 15 -9 108 -7 235 11 620 -11 1410 -46 1705 -37 301 -101 536 -229 833 -10 21 -40 80 -68 130 -28 51 -51 101 -52 112 -1 18 -9 20 -68 23 l-68 3 0 -1681z m1685 776 c19 -8 40 -24 47 -35 13 -21 17 -21 554 -21 l541 0 43 -23 c137 -72 84 -287 -71 -287 -68 0 -102 16 -130 60 l-24 39 -437 1 -438 0 -2 -933 c-3 -880 -4 -934 -21 -960 -27 -41 -75 -67 -125 -67 -53 0 -90 20 -122 68 l-25 36 0 1022 c0 1018 0 1023 21 1051 42 57 120 77 189 49z m1898 -2 c18 -9 44 -32 57 -52 l25 -36 3 -408 3 -408 572 -1 c315 0 582 -2 595 -3 14 -2 38 9 59 25 63 51 149 50 206 -1 l32 -28 0 -622 0 -622 -37 -34 c-34 -31 -43 -34 -98 -34 -54 0 -63 3 -99 35 l-38 35 -603 0 -603 0 -38 -35 c-35 -31 -45 -35 -95 -35 -64 0 -103 17 -130 57 -18 27 -19 65 -22 1028 -2 550 0 1014 3 1032 11 63 82 122 147 123 15 0 42 -7 61 -16z m2925 -11 c14 -11 35 -32 46 -47 21 -27 21 -36 24 -956 l2 -929 308 -3 c302 -3 308 -3 345 -26 47 -30 69 -72 69 -132 0 -80 -38 -130 -114 -150 -70 -19 -156 18 -179 77 l-8 22 -703 1 c-667 0 -704 1 -728 18 -28 21 -46 77 -36 115 8 35 40 63 78 71 17 3 174 6 349 6 l319 0 2 933 3 932 22 31 c46 64 142 81 201 37z"/>
 <path d="M3670 920 l0 -420 590 0 590 0 0 420 0 420 -590 0 -590 0 0 -420z m690 182 c74 -36 104 -89 104 -182 0 -73 -19 -134 -40 -126 -8 3 -11 0 -8 -9 11 -27 -139 -99 -161 -77 -3 3 -23 7 -45 7 -28 1 -50 10 -77 31 -36 30 -85 106 -81 128 0 6 -2 19 -6 28 -5 10 -5 26 0 35 4 10 6 24 5 30 -4 28 64 123 88 123 5 0 14 6 21 14 27 34 129 33 200 -2z"/>
 </g>
<g id="layer114" fill="#fdd6ce" stroke="none">
 <path d="M0 1680 l0 -1680 3900 0 3900 0 0 1680 0 1680 -3750 0 c-2062 0 -3750 -3 -3750 -7 0 -5 14 -24 31 -43 47 -54 139 -186 192 -275 113 -192 213 -480 237 -685 30 -261 70 -1160 70 -1593 1 -211 3 -266 15 -281 18 -23 29 -97 21 -131 -8 -32 -61 -92 -97 -111 -33 -17 -111 -19 -142 -3 -34 18 -78 61 -89 89 -6 15 -9 108 -7 235 11 620 -11 1410 -46 1705 -37 301 -101 536 -229 833 -10 21 -40 80 -68 130 -28 51 -51 101 -52 112 -1 18 -9 20 -68 23 l-68 3 0 -1681z m1685 776 c19 -8 40 -24 47 -35 13 -21 17 -21 554 -21 l541 0 43 -23 c137 -72 84 -287 -71 -287 -68 0 -102 16 -130 60 l-24 39 -437 1 -438 0 -2 -933 c-3 -880 -4 -934 -21 -960 -27 -41 -75 -67 -125 -67 -53 0 -90 20 -122 68 l-25 36 0 1022 c0 1018 0 1023 21 1051 42 57 120 77 189 49z m1898 -2 c18 -9 44 -32 57 -52 l25 -36 3 -408 3 -408 572 -1 c315 0 582 -2 595 -3 14 -2 38 9 59 25 63 51 149 50 206 -1 l32 -28 0 -622 0 -622 -37 -34 c-34 -31 -43 -34 -98 -34 -54 0 -63 3 -99 35 l-38 35 -603 0 -603 0 -38 -35 c-35 -31 -45 -35 -95 -35 -64 0 -103 17 -130 57 -18 27 -19 65 -22 1028 -2 550 0 1014 3 1032 11 63 82 122 147 123 15 0 42 -7 61 -16z m2925 -11 c14 -11 35 -32 46 -47 21 -27 21 -36 24 -956 l2 -929 308 -3 c302 -3 308 -3 345 -26 47 -30 69 -72 69 -132 0 -80 -38 -130 -114 -150 -70 -19 -156 18 -179 77 l-8 22 -703 1 c-667 0 -704 1 -728 18 -28 21 -46 77 -36 115 8 35 40 63 78 71 17 3 174 6 349 6 l319 0 2 933 3 932 22 31 c46 64 142 81 201 37z"/>
 <path d="M3670 920 l0 -420 590 0 590 0 0 420 0 420 -590 0 -590 0 0 -420z m711 175 c30 -19 48 -43 68 -87 25 -54 27 -66 19 -115 -11 -73 -30 -107 -79 -142 -85 -62 -192 -60 -269 6 -55 48 -73 86 -74 158 0 96 56 178 141 205 53 17 150 5 194 -25z"/>
 </g>
<g id="layer115" fill="#e2e0e1" stroke="none">
 <path d="M0 1680 l0 -1680 3900 0 3900 0 0 1680 0 1680 -3750 0 c-2062 0 -3750 -3 -3750 -7 0 -5 14 -24 31 -43 47 -54 139 -186 192 -275 113 -192 213 -480 237 -685 30 -261 70 -1160 70 -1593 1 -211 3 -266 15 -281 18 -23 29 -97 21 -131 -8 -32 -61 -92 -97 -111 -33 -17 -111 -19 -142 -3 -34 18 -78 61 -89 89 -6 15 -9 108 -7 235 11 620 -11 1410 -46 1705 -37 301 -101 536 -229 833 -10 21 -40 80 -68 130 -28 51 -51 101 -52 112 -1 18 -9 20 -68 23 l-68 3 0 -1681z m1685 776 c19 -8 40 -24 47 -35 13 -21 17 -21 554 -21 l541 0 43 -23 c137 -72 84 -287 -71 -287 -68 0 -102 16 -130 60 l-24 39 -437 1 -438 0 -2 -933 c-3 -880 -4 -934 -21 -960 -27 -41 -75 -67 -125 -67 -53 0 -90 20 -122 68 l-25 36 0 1022 c0 1018 0 1023 21 1051 42 57 120 77 189 49z m1898 -2 c18 -9 44 -32 57 -52 l25 -36 3 -408 3 -408 572 -1 c315 0 582 -2 595 -3 14 -2 38 9 59 25 63 51 149 50 206 -1 l32 -28 0 -622 0 -622 -37 -34 c-34 -31 -43 -34 -98 -34 -54 0 -63 3 -99 35 l-38 35 -603 0 -603 0 -38 -35 c-35 -31 -45 -35 -95 -35 -64 0 -103 17 -130 57 -18 27 -19 65 -22 1028 -2 550 0 1014 3 1032 11 63 82 122 147 123 15 0 42 -7 61 -16z m2925 -11 c14 -11 35 -32 46 -47 21 -27 21 -36 24 -956 l2 -929 308 -3 c302 -3 308 -3 345 -26 47 -30 69 -72 69 -132 0 -80 -38 -130 -114 -150 -70 -19 -156 18 -179 77 l-8 22 -703 1 c-667 0 -704 1 -728 18 -28 21 -46 77 -36 115 8 35 40 63 78 71 17 3 174 6 349 6 l319 0 2 933 3 932 22 31 c46 64 142 81 201 37z"/>
 <path d="M3670 920 l0 -420 590 0 590 0 0 420 0 420 -590 0 -590 0 0 -420z m657 206 c3 -3 13 -6 21 -6 23 0 78 -46 103 -86 26 -42 33 -148 13 -199 -24 -65 -123 -143 -165 -132 -11 3 -22 1 -25 -5 -3 -5 -13 -6 -23 -3 -9 4 -25 8 -36 9 -47 6 -73 21 -116 67 -84 88 -84 213 0 302 14 15 30 27 34 27 5 0 19 8 32 18 17 13 38 17 89 16 37 -1 69 -4 73 -8z"/>
 </g>
<g id="layer116" fill="#ffe7dd" stroke="none">
 <path d="M0 1680 l0 -1680 3900 0 3900 0 0 1680 0 1680 -3750 0 c-2168 0 -3750 -4 -3750 -9 0 -5 11 -16 25 -25 13 -9 32 -30 40 -46 10 -19 21 -28 28 -24 7 4 9 4 5 -1 -4 -4 3 -22 16 -39 13 -17 26 -40 30 -51 3 -11 19 -35 36 -53 16 -18 30 -39 30 -46 0 -7 12 -31 28 -52 30 -43 50 -83 111 -224 30 -69 62 -169 66 -200 2 -19 8 -48 13 -65 25 -74 45 -219 55 -395 1 -25 6 -51 10 -58 5 -7 6 -46 2 -86 -5 -52 -4 -76 5 -81 8 -5 10 -34 5 -105 -5 -65 -4 -100 3 -104 7 -4 9 -46 5 -125 -3 -65 -3 -127 2 -137 8 -20 14 -248 18 -679 3 -225 6 -264 21 -293 12 -24 16 -51 14 -97 -2 -35 -7 -63 -11 -62 -5 1 -14 -7 -20 -18 -7 -11 -18 -24 -25 -28 -7 -5 -10 -12 -7 -18 4 -5 -2 -6 -11 -2 -13 5 -15 3 -9 -7 5 -8 4 -11 -2 -7 -6 4 -33 3 -61 -3 -56 -10 -120 2 -129 26 -3 8 -12 13 -20 10 -8 -3 -11 -1 -8 4 3 6 2 10 -4 10 -26 0 -32 50 -36 275 -2 139 0 237 6 240 13 8 12 282 -1 290 -7 4 -10 81 -8 223 1 120 -1 309 -6 422 -4 113 -9 237 -11 275 -2 65 -11 167 -21 240 -17 140 -19 149 -28 163 -4 7 -5 21 -1 31 3 11 1 22 -5 26 -6 4 -9 14 -6 22 4 9 1 22 -5 29 -6 8 -9 20 -6 29 4 8 0 34 -8 57 -7 24 -32 104 -56 178 -23 74 -45 144 -49 155 -5 11 -16 43 -25 70 -9 28 -27 70 -40 95 -13 25 -31 60 -39 78 -9 18 -20 31 -26 27 -6 -3 -7 0 -4 10 4 9 -4 26 -19 41 -14 14 -26 33 -26 42 -1 67 -1 67 -73 70 l-68 3 0 -1681z m3604 770 c9 0 27 -17 41 -39 l26 -39 2 -405 c1 -223 4 -408 8 -411 4 -4 1046 -9 1187 -6 7 0 17 12 22 26 6 14 14 23 19 20 5 -3 14 0 20 8 8 10 30 13 69 11 90 -4 94 -4 87 -15 -3 -5 0 -10 7 -10 8 0 21 -13 31 -29 16 -27 17 -79 18 -640 0 -471 -3 -616 -13 -633 -7 -13 -11 -27 -10 -31 1 -5 -2 -5 -8 -2 -6 4 -17 0 -23 -9 -8 -11 -31 -18 -70 -20 -48 -3 -65 1 -93 20 -19 13 -39 24 -44 24 -6 0 -10 7 -10 15 0 13 -68 15 -548 15 -302 0 -552 -3 -556 -7 -4 -5 -34 -8 -66 -9 -48 -1 -64 -6 -90 -28 -37 -30 -28 -28 -107 -30 -33 0 -59 2 -56 7 2 4 -7 11 -20 16 -13 5 -27 17 -31 26 -3 9 -10 14 -15 10 -6 -3 -10 377 -11 1033 -1 1150 -5 1069 66 1122 46 33 88 41 126 23 15 -7 34 -13 42 -13z m-1882 -15 l49 -36 546 1 c327 1 548 -2 552 -8 3 -5 16 -13 29 -17 13 -4 21 -9 18 -12 -2 -3 5 -24 17 -46 74 -141 -59 -275 -213 -216 -19 7 -39 12 -43 11 -5 -1 -6 2 -3 7 3 5 -7 23 -22 39 l-29 31 -427 0 -426 -1 0 -931 c1 -927 1 -931 -20 -959 -12 -16 -18 -33 -15 -38 4 -6 3 -9 -2 -8 -4 1 -19 -4 -31 -11 -40 -22 -113 -22 -143 0 -15 10 -32 19 -38 19 -6 0 -11 5 -11 11 0 5 -5 7 -12 3 -7 -4 -8 -3 -4 4 8 13 -11 55 -22 48 -4 -2 -5 458 -2 1022 4 761 8 1034 17 1053 6 15 9 30 5 34 -3 3 0 4 8 1 8 -3 26 3 40 14 18 14 41 20 79 20 46 0 61 -5 103 -35z m4779 14 c16 -11 34 -17 40 -13 8 4 9 3 5 -5 -4 -6 2 -24 13 -40 21 -29 21 -38 23 -951 l3 -922 298 1 c252 1 301 -1 313 -14 9 -8 24 -15 34 -15 10 0 22 -5 25 -10 4 -6 11 -7 17 -4 7 4 8 2 4 -4 -7 -12 10 -52 25 -62 19 -13 18 -78 -2 -114 -10 -20 -21 -46 -23 -59 -2 -12 -9 -21 -15 -20 -6 2 -27 -6 -46 -17 -36 -20 -76 -26 -89 -13 -4 4 -13 8 -19 8 -21 2 -87 35 -87 44 0 4 -12 20 -26 34 l-26 26 -649 1 c-462 0 -654 -3 -667 -11 -13 -8 -26 -7 -55 4 -20 9 -37 21 -37 28 0 6 -6 9 -12 6 -9 -3 -14 11 -16 47 -3 61 10 94 46 121 26 19 44 20 357 21 216 1 330 6 330 12 0 6 3 14 8 18 4 4 7 415 7 913 0 498 0 912 0 919 0 7 18 31 39 52 37 37 43 40 96 40 41 0 65 -6 86 -21z m36 14 c-4 -3 -10 -3 -14 0 -3 4 0 7 7 7 7 0 10 -3 7 -7z m-1397 -867 c0 -3 -5 -8 -12 -12 -7 -4 -8 -3 -4 4 7 12 16 16 16 8z m2107 -1093 c-4 -3 -10 -3 -14 0 -3 4 0 7 7 7 7 0 10 -3 7 -7z m-192 -313 c3 -5 4 -10 1 -10 -3 0 -8 5 -11 10 -3 6 -4 10 -1 10 3 0 8 -4 11 -10z"/>
 <path d="M3670 962 c0 -208 2 -397 6 -420 l7 -42 577 0 577 0 7 51 c4 27 6 216 6 420 l-2 369 -588 0 -588 0 -2 -378z m657 164 c3 -3 13 -6 21 -6 23 0 78 -46 103 -86 26 -42 33 -148 13 -199 -24 -65 -123 -143 -165 -132 -11 3 -22 1 -25 -5 -3 -5 -13 -6 -23 -3 -9 4 -25 8 -36 9 -66 9 -156 86 -170 148 -19 83 0 165 51 217 13 13 21 27 18 32 -3 5 2 6 10 3 9 -3 26 3 39 13 19 15 39 18 91 17 37 -1 69 -4 73 -8z m150 -363 c-4 -3 -7 0 -7 7 0 7 3 10 7 7 3 -4 3 -10 0 -14z m-12 -13 c3 -5 4 -10 1 -10 -3 0 -8 5 -11 10 -3 6 -4 10 -1 10 3 0 8 -4 11 -10z"/>
 </g>
<g id="layer117" fill="#ffffff" stroke="none">
 <path d="M0 1680 l0 -1680 3900 0 3900 0 0 1680 0 1680 -3750 0 c-2168 0 -3750 -4 -3750 -9 0 -5 11 -16 25 -25 13 -9 32 -30 40 -46 10 -19 21 -28 28 -24 7 4 9 4 5 -1 -4 -4 3 -22 16 -39 13 -17 26 -40 30 -51 3 -11 19 -35 36 -53 16 -18 30 -39 30 -46 0 -7 12 -31 28 -52 30 -43 50 -83 111 -224 30 -69 62 -169 66 -200 2 -19 8 -48 13 -65 25 -74 45 -219 55 -395 1 -25 6 -51 10 -58 5 -7 6 -46 2 -86 -5 -52 -4 -76 5 -81 8 -5 10 -34 5 -105 -5 -65 -4 -100 3 -104 7 -4 9 -46 5 -125 -3 -65 -3 -127 2 -137 8 -20 14 -248 18 -679 3 -225 6 -264 21 -293 12 -24 16 -51 14 -97 -2 -35 -7 -63 -11 -62 -5 1 -14 -7 -20 -18 -7 -11 -18 -24 -25 -28 -7 -5 -10 -12 -7 -18 4 -5 -2 -6 -11 -2 -13 5 -15 3 -9 -7 5 -8 4 -11 -2 -7 -6 4 -33 3 -61 -3 -56 -10 -120 2 -129 26 -3 8 -12 13 -20 10 -8 -3 -11 -1 -8 4 3 6 2 10 -4 10 -26 0 -32 50 -36 275 -2 139 0 237 6 240 13 8 12 282 -1 290 -7 4 -10 82 -9 223 3 190 -3 423 -16 697 -3 75 -12 171 -21 240 -18 142 -19 149 -28 163 -4 7 -5 21 -1 31 3 11 1 22 -5 26 -6 4 -9 14 -6 22 4 9 1 22 -5 29 -6 8 -9 20 -6 29 4 8 0 34 -8 57 -7 24 -32 104 -56 178 -23 74 -45 144 -49 155 -5 11 -16 43 -25 70 -9 28 -27 70 -40 95 -13 25 -31 60 -39 78 -10 21 -20 31 -27 26 -8 -4 -9 -3 -5 4 4 7 -4 27 -17 44 -13 18 -25 40 -25 48 -5 68 -2 65 -74 68 l-68 3 0 -1681z m3604 770 c9 0 27 -17 41 -39 l26 -39 2 -405 c1 -223 5 -408 8 -411 5 -6 1190 -10 1193 -4 11 24 24 42 29 38 2 -3 13 2 23 11 14 12 35 16 74 14 86 -3 92 -4 85 -15 -3 -5 0 -10 7 -10 8 0 21 -13 31 -29 16 -27 17 -79 18 -640 0 -471 -3 -616 -13 -633 -7 -13 -11 -27 -10 -31 1 -5 -2 -5 -8 -2 -6 4 -17 0 -23 -9 -8 -11 -31 -18 -70 -20 -48 -3 -65 1 -93 20 -19 13 -39 24 -44 24 -6 0 -10 7 -10 15 0 13 -68 15 -548 15 -302 0 -552 -3 -556 -7 -4 -5 -34 -8 -66 -9 -48 -1 -64 -6 -90 -28 -37 -30 -28 -28 -107 -30 -33 0 -59 2 -56 7 2 4 -7 11 -20 16 -13 5 -27 17 -31 26 -3 9 -10 14 -15 10 -6 -3 -10 377 -11 1033 -1 1150 -5 1069 66 1122 46 33 88 41 126 23 15 -7 34 -13 42 -13z m-1882 -15 l49 -36 546 1 c327 1 548 -2 552 -8 3 -5 16 -13 29 -17 13 -4 21 -9 18 -12 -2 -3 5 -24 17 -46 74 -141 -59 -275 -213 -216 -19 7 -39 12 -43 11 -5 -1 -6 2 -3 7 3 5 -7 23 -22 39 l-29 31 -427 0 -426 -1 0 -931 c1 -927 1 -931 -20 -959 -12 -16 -18 -33 -15 -38 4 -6 3 -9 -2 -8 -4 1 -19 -4 -31 -11 -40 -22 -113 -22 -143 0 -15 10 -32 19 -38 19 -6 0 -11 5 -11 11 0 5 -5 7 -12 3 -7 -4 -8 -3 -4 4 8 13 -11 55 -22 48 -4 -2 -5 458 -2 1022 4 761 8 1034 17 1053 6 15 9 30 5 34 -3 3 0 4 8 1 8 -3 26 3 40 14 18 14 41 20 79 20 46 0 61 -5 103 -35z m4779 14 c16 -11 34 -17 40 -13 8 4 9 3 5 -5 -4 -6 2 -24 13 -40 21 -29 21 -38 23 -951 l3 -922 298 1 c252 1 301 -1 313 -14 9 -8 24 -15 34 -15 10 0 22 -5 25 -10 4 -6 11 -7 17 -4 7 4 8 2 4 -4 -7 -12 10 -52 25 -62 19 -13 19 -83 -1 -115 -11 -18 -21 -43 -23 -56 -3 -16 -10 -23 -21 -21 -9 2 -16 -2 -16 -8 0 -5 -9 -10 -19 -10 -11 0 -23 -4 -26 -10 -7 -12 -58 -14 -69 -3 -4 4 -13 8 -19 8 -21 2 -87 35 -87 44 0 4 -12 20 -26 34 l-26 26 -649 1 c-462 0 -654 -3 -667 -11 -13 -8 -26 -7 -55 4 -20 9 -37 21 -37 28 0 6 -6 9 -12 6 -9 -3 -14 11 -16 47 -3 61 10 94 46 121 26 19 44 20 357 21 216 1 330 6 330 12 0 6 3 14 8 18 4 4 7 415 7 913 0 498 0 912 0 919 0 7 18 31 39 52 37 37 43 40 96 40 41 0 65 -6 86 -21z m36 14 c-4 -3 -10 -3 -14 0 -3 4 0 7 7 7 7 0 10 -3 7 -7z m-1397 -867 c0 -3 -5 -8 -12 -12 -7 -4 -8 -3 -4 4 7 12 16 16 16 8z m2107 -1093 c-4 -3 -10 -3 -14 0 -3 4 0 7 7 7 7 0 10 -3 7 -7z m-192 -313 c3 -5 4 -10 1 -10 -3 0 -8 5 -11 10 -3 6 -4 10 -1 10 3 0 8 -4 11 -10z"/>
 <path d="M3670 962 c0 -208 2 -397 6 -420 l7 -42 577 0 577 0 7 51 c4 27 6 216 6 420 l-2 369 -588 0 -588 0 -2 -378z m612 187 c76 -16 150 -54 176 -89 34 -45 41 -166 14 -241 -16 -44 -17 -60 -9 -70 10 -10 9 -11 -3 -2 -18 14 -45 12 -62 -5 -9 -9 -9 -12 0 -12 7 0 12 5 12 12 0 6 3 8 7 4 13 -13 -41 -46 -75 -46 -20 0 -31 -4 -27 -10 4 -7 -9 -9 -37 -5 -33 4 -39 3 -23 -5 16 -8 14 -9 -14 -5 -54 8 -157 71 -172 104 -7 16 -18 27 -25 24 -11 -4 -13 6 -16 102 -2 59 3 91 21 125 20 37 73 90 90 91 9 0 30 9 46 19 37 23 33 22 97 9z m195 -386 c-4 -3 -7 0 -7 7 0 7 3 10 7 7 3 -4 3 -10 0 -14z"/>
 </g>

</svg>